{
.formatVersion = 3;
axes = (
{
name = Weight;
tag = wght;
}
);
classes = (
{

glyphs = (
{
glyphname = .notdef;
layers = (
{
layerId = "BA60169A-A75E-4ACC-B9C7-976B0FD777BA";
shapes = (
{
closed = 1;
nodes = (
(90,650,ls),
(90,704,o),
(126,730,o),
(180,730,cs),
(420,730,ls),
(474,730,o),
(510,704,o),
(510,650,cs),
(510,80,ls),
(510,26,o),
(474,0,o),
(420,0,cs),
(180,0,ls),
(126,0,o),
(90,26,o),
(90,80,cs)
);
},
{
closed = 1;
nodes = (
(370,120,ls),
(397,120,o),
(400,123,o),
(400,150,cs),
(400,580,ls),
(400,607,o),
(397,610,o),
(370,610,cs),
(230,610,ls),
(203,610,o),
(200,607,o),
(200,580,cs),
(200,150,ls),
(200,123,o),
(203,120,o),
(230,120,cs)
);
},
{
closed = 1;
nodes = (
(135,52,l),
(365,680,l),
(465,680,l),
(235,52,l)
);
},
{
closed = 1;
nodes = (
(365,52,l),
(135,680,l),
(235,680,l),
(465,52,l)
);
}
);
width = 600;
},
{
layerId = "61B1B659-4F4A-4AEF-9EF6-2030D7AB6825";
shapes = (
{
closed = 1;
nodes = (
(100,650,ls),
(100,704,o),
(126,730,o),
(180,730,cs),
(420,730,ls),
(474,730,o),
(500,704,o),
(500,650,cs),
(500,80,ls),
(500,26,o),
(474,0,o),
(420,0,cs),
(180,0,ls),
(126,0,o),
(100,26,o),
(100,80,cs)
);
},
{
closed = 1;
nodes = (
(370,90,ls),
(397,90,o),
(410,103,o),
(410,130,cs),
(410,600,ls),
(410,627,o),
(397,640,o),
(370,640,cs),
(230,640,ls),
(203,640,o),
(190,627,o),
(190,600,cs),
(190,130,ls),
(190,103,o),
(203,90,o),
(230,90,cs)
);
},
{
closed = 1;
nodes = (
(145,52,l),
(375,680,l),
(455,680,l),
(225,52,l)
);
},
{
closed = 1;
nodes = (
(375,52,l),
(145,680,l),
(225,680,l),
(455,52,l)
);
}
);
width = 600;
},
{
layerId = "F8E4993A-289F-423E-A261-7F0C3E35DC2E";
shapes = (
{
closed = 1;
nodes = (
(110,660,ls),
(110,704,o),
(136,730,o),
(180,730,cs),
(420,730,ls),
(464,730,o),
(490,704,o),
(490,660,cs),
(490,70,ls),
(490,26,o),
(464,0,o),
(420,0,cs),
(180,0,ls),
(136,0,o),
(110,26,o),
(110,70,cs)
);
},
{
closed = 1;
nodes = (
(370,60,ls),
(407,60,o),
(430,83,o),
(430,120,cs),
(430,610,ls),
(430,647,o),
(407,670,o),
(370,670,cs),
(230,670,ls),
(193,670,o),
(170,647,o),
(170,610,cs),
(170,120,ls),
(170,83,o),
(193,60,o),
(230,60,cs)
);
},
{
closed = 1;
nodes = (
(145,42,l),
(395,690,l),
(455,690,l),
(205,42,l)
);
},
{
closed = 1;
nodes = (
(395,42,l),
(145,690,l),
(205,690,l),
(455,42,l)
);
}
);
width = 600;
}
);
},
{
color = (153, 254, 255, 255);
glyphname = A;
layers = (
{
layerId = "BA60169A-A75E-4ACC-B9C7-976B0FD777BA";
shapes = (
{
closed = 1;
nodes = (
(444,148,ls),
(445,168,o),
(435,177,o),
(415,177,cs),
(261,177,ls),
(241,177,o),
(227,168,o),
(216,148,cs),
(164,40,ls),
(147,6,o),
(113,-10,o),
(74,-10,cs),
(34,-10,o),
(17,7,o),
(25,43,cs),
(28,56,o),
(34,72,o),
(43,90,cs),
(339,664,ls),
(366,715,o),
(404,740,o),
(457,740,cs),
(510,740,o),
(538,715,o),
(543,664,cs),
(596,96,ls),
(598,79,o),
(597,63,o),
(595,50,cs),
(586,10,o),
(557,-10,o),
(513,-10,cs),
(472,-10,o),
(445,8,o),
(444,44,cs)
);
},
{
closed = 1;
nodes = (
(412,295,ls),
(428,295,o),
(437,301,o),
(440,313,cs),
(440,316,o),
(440,320,o),
(440,324,cs),
(425,518,ls),
(424,528,o),
(419,532,o),
(413,532,cs),
(407,532,o),
(400,528,o),
(395,518,cs),
(299,324,ls),
(297,320,o),
(295,316,o),
(295,313,cs),
(292,301,o),
(299,295,o),
(315,295,cs)
);
}
);
width = 600;
},
{
layerId = "61B1B659-4F4A-4AEF-9EF6-2030D7AB6825";
shapes = (
{
closed = 1;
nodes = (
(472,172,ls),
(470,185,o),
(464,191,o),
(451,191,cs),
(231,191,ls),
(218,191,o),
(208,185,o),
(202,172,cs),
(128,27,ls),
(115,2,o),
(97,-10,o),
(68,-10,cs),
(41,-10,o),
(25,4,o),
(31,33,cs),
(33,42,o),
(37,52,o),
(42,63,c),
(366,684,ls),
(386,722,o),
(417,741,o),
(457,741,cs),
(497,741,o),
(518,722,o),
(522,684,cs),
(584,63,l),
(585,52,o),
(585,42,o),
(583,33,cs),
(577,4,o),
(555,-10,o),
(528,-10,cs),
(499,-10,o),
(485,2,o),
(484,27,cs)
);
},
{
closed = 1;
nodes = (
(443,271,ls),
(453,271,o),
(459,275,o),
(461,283,cs),
(462,285,o),
(462,287,o),
(462,290,cs),
(441,598,ls),
(440,608,o),
(436,612,o),
(431,612,cs),
(425,612,o),
(419,608,o),
(414,598,cs),
(262,290,ls),
(260,287,o),
(259,284,o),
(259,282,cs),
(257,274,o),
(264,271,o),
(272,271,cs)
);
}
);
width = 600;
},
{
layerId = "F8E4993A-289F-423E-A261-7F0C3E35DC2E";
shapes = (
{
closed = 1;
nodes = (
(487,196,ls),
(486,202,o),
(481,206,o),
(474,206,cs),
(214,206,ls),
(207,206,o),
(199,202,o),
(196,196,cs),
(102,9,ls),
(95,-4,o),
(86,-10,o),
(73,-10,cs),
(56,-10,o),
(48,-2,o),
(51,13,cs),
(52,17,o),
(54,22,o),
(56,27,c),
(398,701,ls),
(412,727,o),
(430,740,o),
(457,740,cs),
(484,740,o),
(498,728,o),
(500,702,cs),
(557,28,l),
(558,22,o),
(558,17,o),
(557,12,cs),
(553,-3,o),
(542,-10,o),
(526,-10,cs),
(511,-10,o),
(502,-4,o),
(501,9,cs)
);
},
{
closed = 1;
nodes = (
(471,256,ls),
(477,256,o),
(480,258,o),
(481,262,cs),
(481,263,o),
(483,265,o),
(484,266,cs),
(453,653,ls),
(452,663,o),
(446,668,o),
(442,668,cs),
(438,668,o),
(430,663,o),
(425,653,cs),
(230,266,ls),
(229,265,o),
(231,263,o),
(231,262,cs),
(230,258,o),
(231,256,o),
(237,256,cs)
);
}
);
width = 600;
}
);
unicode = 65;
},
{
glyphname = Aacute;
layers = (
{
layerId = "BA60169A-A75E-4ACC-B9C7-976B0FD777BA";
shapes = (
{
closed = 1;
nodes = (
(444,148,ls),
(445,168,o),
(435,177,o),
(415,177,cs),
(261,177,ls),
(241,177,o),
(227,168,o),
(216,148,cs),
(164,40,ls),
(147,6,o),
(113,-10,o),
(74,-10,cs),
(34,-10,o),
(17,7,o),
(25,43,cs),
(28,56,o),
(34,72,o),
(43,90,cs),
(339,664,ls),
(366,715,o),
(404,740,o),
(457,740,cs),
(510,740,o),
(538,715,o),
(543,664,cs),
(596,96,ls),
(598,79,o),
(597,63,o),
(595,50,cs),
(586,10,o),
(557,-10,o),
(513,-10,cs),
(472,-10,o),
(445,8,o),
(444,44,cs)
);
},
{
closed = 1;
nodes = (
(412,295,ls),
(428,295,o),
(437,301,o),
(440,313,cs),
(440,316,o),
(440,320,o),
(440,324,cs),
(425,518,ls),
(424,528,o),
(419,532,o),
(413,532,cs),
(407,532,o),
(400,528,o),
(395,518,cs),
(299,324,ls),
(297,320,o),
(295,316,o),
(295,313,cs),
(292,301,o),
(299,295,o),
(315,295,cs)
);
},
{
closed = 1;
nodes = (
(416,810,o),
(411,835,o),
(461,889,cs),
(480,910,ls),
(511,943,o),
(541,950,o),
(580,950,cs),
(647,950,o),
(653,924,o),
(600,873,cs),
(573,848,ls),
(547,822,o),
(516,810,o),
(483,810,cs)
);
}
);
width = 600;
},
{
layerId = "61B1B659-4F4A-4AEF-9EF6-2030D7AB6825";
shapes = (
{
closed = 1;
nodes = (
(472,172,ls),
(470,185,o),
(464,191,o),
(451,191,cs),
(231,191,ls),
(218,191,o),
(208,185,o),
(202,172,cs),
(128,27,ls),
(115,2,o),
(97,-10,o),
(68,-10,cs),
(41,-10,o),
(25,4,o),
(31,33,cs),
(33,42,o),
(37,52,o),
(42,63,c),
(366,684,ls),
(386,722,o),
(417,741,o),
(457,741,cs),
(497,741,o),
(518,722,o),
(522,684,cs),
(584,63,l),
(585,52,o),
(585,42,o),
(583,33,cs),
(577,4,o),
(555,-10,o),
(528,-10,cs),
(499,-10,o),
(485,2,o),
(484,27,cs)
);
},
{
closed = 1;
nodes = (
(443,271,ls),
(453,271,o),
(459,275,o),
(461,283,cs),
(462,285,o),
(462,287,o),
(462,290,cs),
(441,598,ls),
(440,608,o),
(436,612,o),
(431,612,cs),
(425,612,o),
(419,608,o),
(414,598,cs),
(262,290,ls),
(260,287,o),
(259,284,o),
(259,282,cs),
(257,274,o),
(264,271,o),
(272,271,cs)
);
},
{
closed = 1;
nodes = (
(434,810,o),
(430,826,o),
(462,859,cs),
(524,924,ls),
(541,941,o),
(560,950,o),
(582,950,cs),
(625,950,o),
(630,933,o),
(596,899,cs),
(530,834,ls),
(514,818,o),
(496,810,o),
(475,810,cs)
);
}
);
width = 600;
},
{
layerId = "F8E4993A-289F-423E-A261-7F0C3E35DC2E";
shapes = (
{
closed = 1;
nodes = (
(487,196,ls),
(486,202,o),
(481,206,o),
(474,206,cs),
(214,206,ls),
(207,206,o),
(199,202,o),
(196,196,cs),
(102,9,ls),
(95,-4,o),
(86,-10,o),
(73,-10,cs),
(56,-10,o),
(48,-2,o),
(51,13,cs),
(52,17,o),
(54,22,o),
(56,27,c),
(398,701,ls),
(412,727,o),
(430,740,o),
(457,740,cs),
(484,740,o),
(498,728,o),
(500,702,cs),
(557,28,l),
(558,22,o),
(558,17,o),
(557,12,cs),
(553,-3,o),
(542,-10,o),
(526,-10,cs),
(511,-10,o),
(502,-4,o),
(501,9,cs)
);
},
{
closed = 1;
nodes = (
(471,256,ls),
(477,256,o),
(480,258,o),
(481,262,cs),
(481,263,o),
(483,265,o),
(484,266,cs),
(453,653,ls),
(452,663,o),
(446,668,o),
(442,668,cs),
(438,668,o),
(430,663,o),
(425,653,cs),
(230,266,ls),
(229,265,o),
(231,263,o),
(231,262,cs),
(230,258,o),
(231,256,o),
(237,256,cs)
);
},
{
closed = 1;
nodes = (
(447,810,o),
(445,819,o),
(463,838,cs),
(557,934,ls),
(567,945,o),
(579,950,o),
(592,950,cs),
(618,950,o),
(620,940,o),
(599,919,cs),
(503,824,ls),
(494,815,o),
(483,810,o),
(471,810,cs)
);
}
);
width = 600;
}
);
unicode = 193;
},
{
glyphname = Abreve;
layers = (
{
layerId = "BA60169A-A75E-4ACC-B9C7-976B0FD777BA";
shapes = (
{
closed = 1;
nodes = (
(444,148,ls),
(445,168,o),
(435,177,o),
(415,177,cs),
(261,177,ls),
(241,177,o),
(227,168,o),
(216,148,cs),
(164,40,ls),
(147,6,o),
(113,-10,o),
(74,-10,cs),
(34,-10,o),
(17,7,o),
(25,43,cs),
(28,56,o),
(34,72,o),
(43,90,cs),
(339,664,ls),
(366,715,o),
(404,740,o),
(457,740,cs),
(510,740,o),
(538,715,o),
(543,664,cs),
(596,96,ls),
(598,79,o),
(597,63,o),
(595,50,cs),
(586,10,o),
(557,-10,o),
(513,-10,cs),
(472,-10,o),
(445,8,o),
(444,44,cs)
);
},
{
closed = 1;
nodes = (
(412,295,ls),
(428,295,o),
(437,301,o),
(440,313,cs),
(440,316,o),
(440,320,o),
(440,324,cs),
(425,518,ls),
(424,528,o),
(419,532,o),
(413,532,cs),
(407,532,o),
(400,528,o),
(395,518,cs),
(299,324,ls),
(297,320,o),
(295,316,o),
(295,313,cs),
(292,301,o),
(299,295,o),
(315,295,cs)
);
},
{
closed = 1;
nodes = (
(309,927,o),
(333,950,o),
(374,950,cs),
(387,950,o),
(396,947,o),
(403,942,cs),
(419,931,o),
(427,912,o),
(446,898,cs),
(462,887,o),
(489,887,qs),
(516,887,o),
(536,898,qs),
(560,911,o),
(576,929,o),
(594,940,cs),
(604,946,o),
(615,950,o),
(629,950,cs),
(670,950,o),
(685,927,o),
(664,894,cs),
(645,864,o),
(613,842,qs),
(553,800,o),
(470,800,qs),
(387,801,o),
(345,842,qs),
(322,865,o),
(316,894,qs)
);
}
);
width = 600;
},
{
layerId = "61B1B659-4F4A-4AEF-9EF6-2030D7AB6825";
shapes = (
{
closed = 1;
nodes = (
(472,172,ls),
(470,185,o),
(464,191,o),
(451,191,cs),
(231,191,ls),
(218,191,o),
(208,185,o),
(202,172,cs),
(128,27,ls),
(115,2,o),
(97,-10,o),
(68,-10,cs),
(41,-10,o),
(25,4,o),
(31,33,cs),
(33,42,o),
(37,52,o),
(42,63,c),
(366,684,ls),
(386,722,o),
(417,741,o),
(457,741,cs),
(497,741,o),
(518,722,o),
(522,684,cs),
(584,63,l),
(585,52,o),
(585,42,o),
(583,33,cs),
(577,4,o),
(555,-10,o),
(528,-10,cs),
(499,-10,o),
(485,2,o),
(484,27,cs)
);
},
{
closed = 1;
nodes = (
(443,271,ls),
(453,271,o),
(459,275,o),
(461,283,cs),
(462,285,o),
(462,287,o),
(462,290,cs),
(441,598,ls),
(440,608,o),
(436,612,o),
(431,612,cs),
(425,612,o),
(419,608,o),
(414,598,cs),
(262,290,ls),
(260,287,o),
(259,284,o),
(259,282,cs),
(257,274,o),
(264,271,o),
(272,271,cs)
);
},
{
closed = 1;
nodes = (
(338,937,o),
(352,950,o),
(377,950,cs),
(392,950,o),
(401,946,o),
(407,939,cs),
(417,927,o),
(418,909,o),
(425,895,cs),
(441,863,o),
(482,863,qs),
(523,863,o),
(554,895,qs),
(567,908,o),
(577,925,o),
(590,937,cs),
(600,945,o),
(610,950,o),
(626,950,cs),
(651,950,o),
(660,937,o),
(651,915,cs),
(633,874,o),
(596,845,qs),
(543,805,o),
(471,805,qs),
(399,805,o),
(364,845,qs),
(339,874,o),
(339,915,qs)
);
}
);
width = 600;
},
{
layerId = "F8E4993A-289F-423E-A261-7F0C3E35DC2E";
shapes = (
{
closed = 1;
nodes = (
(487,196,ls),
(486,202,o),
(481,206,o),
(474,206,cs),
(214,206,ls),
(207,206,o),
(199,202,o),
(196,196,cs),
(102,9,ls),
(95,-4,o),
(86,-10,o),
(73,-10,cs),
(56,-10,o),
(48,-2,o),
(51,13,cs),
(52,17,o),
(54,22,o),
(56,27,c),
(398,701,ls),
(412,727,o),
(430,740,o),
(457,740,cs),
(484,740,o),
(498,728,o),
(500,702,cs),
(557,28,l),
(558,22,o),
(558,17,o),
(557,12,cs),
(553,-3,o),
(542,-10,o),
(526,-10,cs),
(511,-10,o),
(502,-4,o),
(501,9,cs)
);
},
{
closed = 1;
nodes = (
(471,256,ls),
(477,256,o),
(480,258,o),
(481,262,cs),
(481,263,o),
(483,265,o),
(484,266,cs),
(453,653,ls),
(452,663,o),
(446,668,o),
(442,668,cs),
(438,668,o),
(430,663,o),
(425,653,cs),
(230,266,ls),
(229,265,o),
(231,263,o),
(231,262,cs),
(230,258,o),
(231,256,o),
(237,256,cs)
);
},
{
closed = 1;
nodes = (
(354,943,o),
(364,950,o),
(379,950,cs),
(388,950,o),
(393,946,o),
(396,939,cs),
(401,924,o),
(398,896,o),
(412,876,cs),
(431,848,o),
(479,848,qs),
(526,848,o),
(559,876,qs),
(586,898,o),
(594,925,o),
(605,939,cs),
(610,946,o),
(615,950,o),
(624,950,cs),
(639,950,o),
(646,943,o),
(641,928,cs),
(625,879,o),
(586,847,qs),
(539,808,o),
(472,808,qs),
(405,808,o),
(374,847,qs),
(349,879,o),
(353,928,qs)
);
}
);
width = 600;
}
);
unicode = 258;
},
{
glyphname = Abreveacute;
layers = (
{
layerId = "BA60169A-A75E-4ACC-B9C7-976B0FD777BA";
shapes = (
{
closed = 1;
nodes = (
(294,895,o),
(334,915,o),
(370,915,cs),
(385,915,o),
(400,913,o),
(412,891,cs),
(420,878,o),
(433,873,qs),
(454,865,o),
(483,865,qs),
(514,865,o),
(539,873,qs),
(553,878,o),
(566,891,qs),
(588,911,o),
(605,915,o),
(620,915,cs),
(656,915,o),
(685,893,o),
(670,866,cs),
(655,838,o),
(616,814,qs),
(553,775,o),
(465,775,qs),
(377,775,o),
(330,814,qs),
(302,838,o),
(298,866,qs)
);
},
{
closed = 1;
nodes = (
(447,900,o),
(434,934,o),
(486,962,cs),
(532,987,ls),
(559,1002,o),
(581,1020,o),
(610,1020,cs),
(668,1020,o),
(682,983,o),
(625,955,cs),
(575,930,ls),
(548,917,o),
(518,900,o),
(491,900,cs)
);
},
{
closed = 1;
nodes = (
(444,148,ls),
(445,168,o),
(435,177,o),
(415,177,cs),
(261,177,ls),
(241,177,o),
(227,168,o),
(216,148,cs),
(164,40,ls),
(147,6,o),
(113,-10,o),
(74,-10,cs),
(34,-10,o),
(17,7,o),
(25,43,cs),
(28,56,o),
(34,72,o),
(43,90,cs),
(339,664,ls),
(366,715,o),
(404,740,o),
(457,740,cs),
(510,740,o),
(538,715,o),
(543,664,cs),
(596,96,ls),
(598,79,o),
(597,63,o),
(595,50,cs),
(586,10,o),
(557,-10,o),
(513,-10,cs),
(472,-10,o),
(445,8,o),
(444,44,cs)
);
},
{
closed = 1;
nodes = (
(412,295,ls),
(428,295,o),
(437,301,o),
(440,313,cs),
(440,316,o),
(440,320,o),
(440,324,cs),
(425,518,ls),
(424,528,o),
(419,532,o),
(413,532,cs),
(407,532,o),
(400,528,o),
(395,518,cs),
(299,324,ls),
(297,320,o),
(295,316,o),
(295,313,cs),
(292,301,o),
(299,295,o),
(315,295,cs)
);
}
);
width = 600;
},
{
layerId = "61B1B659-4F4A-4AEF-9EF6-2030D7AB6825";
shapes = (
{
closed = 1;
nodes = (
(319,896,o),
(333,910,o),
(358,910,cs),
(374,910,o),
(385,902,o),
(396,877,cs),
(401,868,o),
(410,860,qs),
(433,840,o),
(479,840,qs),
(523,840,o),
(555,860,qs),
(568,868,o),
(576,877,qs),
(599,902,o),
(612,910,o),
(628,910,cs),
(653,910,o),
(661,896,o),
(651,875,cs),
(633,840,o),
(596,816,qs),
(542,780,o),
(466,780,qs),
(390,780,o),
(350,816,qs),
(324,840,o),
(321,875,qs)
);
},
{
closed = 1;
nodes = (
(448,900,o),
(443,917,o),
(478,945,cs),
(543,996,ls),
(561,1011,o),
(580,1020,o),
(601,1020,cs),
(644,1020,o),
(650,1002,o),
(612,973,cs),
(545,922,ls),
(527,908,o),
(509,900,o),
(489,900,cs)
);
},
{
closed = 1;
nodes = (
(472,172,ls),
(470,185,o),
(464,191,o),
(451,191,cs),
(231,191,ls),
(218,191,o),
(208,185,o),
(202,172,cs),
(128,27,ls),
(115,2,o),
(97,-10,o),
(68,-10,cs),
(41,-10,o),
(25,4,o),
(31,33,cs),
(33,42,o),
(37,52,o),
(42,63,c),
(366,684,ls),
(386,722,o),
(417,741,o),
(457,741,cs),
(497,741,o),
(518,722,o),
(522,684,cs),
(584,63,l),
(585,52,o),
(585,42,o),
(583,33,cs),
(577,4,o),
(555,-10,o),
(528,-10,cs),
(499,-10,o),
(485,2,o),
(484,27,cs)
);
},
{
closed = 1;
nodes = (
(443,271,ls),
(453,271,o),
(459,275,o),
(461,283,cs),
(462,285,o),
(462,287,o),
(462,290,cs),
(441,598,ls),
(440,608,o),
(436,612,o),
(431,612,cs),
(425,612,o),
(419,608,o),
(414,598,cs),
(262,290,ls),
(260,287,o),
(259,284,o),
(259,282,cs),
(257,274,o),
(264,271,o),
(272,271,cs)
);
}
);
width = 600;
},
{
layerId = "F8E4993A-289F-423E-A261-7F0C3E35DC2E";
shapes = (
{
closed = 1;
nodes = (
(341,897,o),
(348,905,o),
(364,905,cs),
(378,905,o),
(385,899,o),
(386,883,cs),
(387,860,o),
(403,844,qs),
(427,820,o),
(474,820,qs),
(521,820,o),
(555,844,qs),
(579,860,o),
(590,883,qs),
(597,899,o),
(605,905,o),
(619,905,cs),
(635,905,o),
(641,897,o),
(636,883,cs),
(620,843,o),
(582,815,qs),
(534,780,o),
(466,780,qs),
(398,780,o),
(364,815,qs),
(337,843,o),
(340,883,qs)
);
},
{
closed = 1;
nodes = (
(459,895,o),
(457,903,o),
(476,920,cs),
(569,1005,ls),
(580,1015,o),
(592,1020,o),
(605,1020,cs),
(632,1020,o),
(635,1010,o),
(612,991,cs),
(512,907,ls),
(502,899,o),
(492,895,o),
(481,895,cs)
);
},
{
closed = 1;
nodes = (
(487,196,ls),
(486,202,o),
(481,206,o),
(474,206,cs),
(214,206,ls),
(207,206,o),
(199,202,o),
(196,196,cs),
(102,9,ls),
(95,-4,o),
(86,-10,o),
(73,-10,cs),
(56,-10,o),
(48,-2,o),
(51,13,cs),
(52,17,o),
(54,22,o),
(56,27,c),
(398,701,ls),
(412,727,o),
(430,740,o),
(457,740,cs),
(484,740,o),
(498,728,o),
(500,702,cs),
(557,28,l),
(558,22,o),
(558,17,o),
(557,12,cs),
(553,-3,o),
(542,-10,o),
(526,-10,cs),
(511,-10,o),
(502,-4,o),
(501,9,cs)
);
},
{
closed = 1;
nodes = (
(471,256,ls),
(477,256,o),
(480,258,o),
(481,262,cs),
(481,263,o),
(483,265,o),
(484,266,cs),
(453,653,ls),
(452,663,o),
(446,668,o),
(442,668,cs),
(438,668,o),
(430,663,o),
(425,653,cs),
(230,266,ls),
(229,265,o),
(231,263,o),
(231,262,cs),
(230,258,o),
(231,256,o),
(237,256,cs)
);
}
);
width = 600;
}
);
unicode = 7854;
},
{
glyphname = Abrevedotbelow;
layers = (
{
layerId = "BA60169A-A75E-4ACC-B9C7-976B0FD777BA";
shapes = (
{
closed = 1;
nodes = (
(309,927,o),
(333,950,o),
(374,950,cs),
(387,950,o),
(396,947,o),
(403,942,cs),
(419,931,o),
(427,912,o),
(446,898,cs),
(462,887,o),
(489,887,qs),
(516,887,o),
(536,898,qs),
(560,911,o),
(576,929,o),
(594,940,cs),
(604,946,o),
(615,950,o),
(629,950,cs),
(670,950,o),
(685,927,o),
(664,894,cs),
(645,864,o),
(613,842,qs),
(553,800,o),
(470,800,qs),
(387,801,o),
(345,842,qs),
(322,865,o),
(316,894,qs)
);
},
{
closed = 1;
nodes = (
(444,148,ls),
(445,168,o),
(435,177,o),
(415,177,cs),
(261,177,ls),
(241,177,o),
(227,168,o),
(216,148,cs),
(164,40,ls),
(147,6,o),
(113,-10,o),
(74,-10,cs),
(34,-10,o),
(17,7,o),
(25,43,cs),
(28,56,o),
(34,72,o),
(43,90,cs),
(339,664,ls),
(366,715,o),
(404,740,o),
(457,740,cs),
(510,740,o),
(538,715,o),
(543,664,cs),
(596,96,ls),
(598,79,o),
(597,63,o),
(595,50,cs),
(586,10,o),
(557,-10,o),
(513,-10,cs),
(472,-10,o),
(445,8,o),
(444,44,cs)
);
},
{
closed = 1;
nodes = (
(412,295,ls),
(428,295,o),
(437,301,o),
(440,313,cs),
(440,316,o),
(440,320,o),
(440,324,cs),
(425,518,ls),
(424,528,o),
(419,532,o),
(413,532,cs),
(407,532,o),
(400,528,o),
(395,518,cs),
(299,324,ls),
(297,320,o),
(295,316,o),
(295,313,cs),
(292,301,o),
(299,295,o),
(315,295,cs)
);
},
{
closed = 1;
nodes = (
(209,-233,o),
(169,-191,o),
(177,-155,qs),
(185,-119,o),
(243,-77,o),
(284,-77,qs),
(325,-77,o),
(365,-119,o),
(357,-155,qs),
(349,-191,o),
(291,-233,o),
(250,-233,qs)
);
}
);
width = 600;
},
{
layerId = "61B1B659-4F4A-4AEF-9EF6-2030D7AB6825";
shapes = (
{
closed = 1;
nodes = (
(338,937,o),
(352,950,o),
(377,950,cs),
(392,950,o),
(401,946,o),
(407,939,cs),
(417,927,o),
(418,909,o),
(425,895,cs),
(441,863,o),
(482,863,qs),
(523,863,o),
(554,895,qs),
(567,908,o),
(577,925,o),
(590,937,cs),
(600,945,o),
(610,950,o),
(626,950,cs),
(651,950,o),
(660,937,o),
(651,915,cs),
(633,874,o),
(596,845,qs),
(543,805,o),
(471,805,qs),
(399,805,o),
(364,845,qs),
(339,874,o),
(339,915,qs)
);
},
{
closed = 1;
nodes = (
(472,172,ls),
(470,185,o),
(464,191,o),
(451,191,cs),
(231,191,ls),
(218,191,o),
(208,185,o),
(202,172,cs),
(128,27,ls),
(115,2,o),
(97,-10,o),
(68,-10,cs),
(41,-10,o),
(25,4,o),
(31,33,cs),
(33,42,o),
(37,52,o),
(42,63,c),
(366,684,ls),
(386,722,o),
(417,741,o),
(457,741,cs),
(497,741,o),
(518,722,o),
(522,684,cs),
(584,63,l),
(585,52,o),
(585,42,o),
(583,33,cs),
(577,4,o),
(555,-10,o),
(528,-10,cs),
(499,-10,o),
(485,2,o),
(484,27,cs)
);
},
{
closed = 1;
nodes = (
(443,271,ls),
(453,271,o),
(459,275,o),
(461,283,cs),
(462,285,o),
(462,287,o),
(462,290,cs),
(441,598,ls),
(440,608,o),
(436,612,o),
(431,612,cs),
(425,612,o),
(419,608,o),
(414,598,cs),
(262,290,ls),
(260,287,o),
(259,284,o),
(259,282,cs),
(257,274,o),
(264,271,o),
(272,271,cs)
);
},
{
closed = 1;
nodes = (
(222,-213,o),
(191,-179,o),
(197,-150,qs),
(203,-120,o),
(249,-85,o),
(282,-85,qs),
(315,-85,o),
(345,-120,o),
(339,-150,qs),
(333,-179,o),
(288,-213,o),
(255,-213,qs)
);
}
);
width = 600;
},
{
layerId = "F8E4993A-289F-423E-A261-7F0C3E35DC2E";
shapes = (
{
closed = 1;
nodes = (
(354,943,o),
(364,950,o),
(379,950,cs),
(388,950,o),
(393,946,o),
(396,939,cs),
(401,924,o),
(398,896,o),
(412,876,cs),
(431,848,o),
(479,848,qs),
(526,848,o),
(559,876,qs),
(586,898,o),
(594,925,o),
(605,939,cs),
(610,946,o),
(615,950,o),
(624,950,cs),
(639,950,o),
(646,943,o),
(641,928,cs),
(625,879,o),
(586,847,qs),
(539,808,o),
(472,808,qs),
(405,808,o),
(374,847,qs),
(349,879,o),
(353,928,qs)
);
},
{
closed = 1;
nodes = (
(487,196,ls),
(486,202,o),
(481,206,o),
(474,206,cs),
(214,206,ls),
(207,206,o),
(199,202,o),
(196,196,cs),
(102,9,ls),
(95,-4,o),
(86,-10,o),
(73,-10,cs),
(56,-10,o),
(48,-2,o),
(51,13,cs),
(52,17,o),
(54,22,o),
(56,27,c),
(398,701,ls),
(412,727,o),
(430,740,o),
(457,740,cs),
(484,740,o),
(498,728,o),
(500,702,cs),
(557,28,l),
(558,22,o),
(558,17,o),
(557,12,cs),
(553,-3,o),
(542,-10,o),
(526,-10,cs),
(511,-10,o),
(502,-4,o),
(501,9,cs)
);
},
{
closed = 1;
nodes = (
(471,256,ls),
(477,256,o),
(480,258,o),
(481,262,cs),
(481,263,o),
(483,265,o),
(484,266,cs),
(453,653,ls),
(452,663,o),
(446,668,o),
(442,668,cs),
(438,668,o),
(430,663,o),
(425,653,cs),
(230,266,ls),
(229,265,o),
(231,263,o),
(231,262,cs),
(230,258,o),
(231,256,o),
(237,256,cs)
);
},
{
closed = 1;
nodes = (
(230,-205,o),
(205,-175,o),
(210,-150,qs),
(215,-125,o),
(254,-95,o),
(280,-95,qs),
(306,-95,o),
(331,-125,o),
(326,-150,qs),
(321,-175,o),
(282,-205,o),
(256,-205,qs)
);
}
);
width = 600;
}
);
unicode = 7862;
},
{
glyphname = Abrevegrave;
layers = (
{
layerId = "BA60169A-A75E-4ACC-B9C7-976B0FD777BA";
shapes = (
{
closed = 1;
nodes = (
(444,148,ls),
(445,168,o),
(435,177,o),
(415,177,cs),
(261,177,ls),
(241,177,o),
(227,168,o),
(216,148,cs),
(164,40,ls),
(147,6,o),
(113,-10,o),
(74,-10,cs),
(34,-10,o),
(17,7,o),
(25,43,cs),
(28,56,o),
(34,72,o),
(43,90,cs),
(339,664,ls),
(366,715,o),
(404,740,o),
(457,740,cs),
(510,740,o),
(538,715,o),
(543,664,cs),
(596,96,ls),
(598,79,o),
(597,63,o),
(595,50,cs),
(586,10,o),
(557,-10,o),
(513,-10,cs),
(472,-10,o),
(445,8,o),
(444,44,cs)
);
},
{
closed = 1;
nodes = (
(412,295,ls),
(428,295,o),
(437,301,o),
(440,313,cs),
(440,316,o),
(440,320,o),
(440,324,cs),
(425,518,ls),
(424,528,o),
(419,532,o),
(413,532,cs),
(407,532,o),
(400,528,o),
(395,518,cs),
(299,324,ls),
(297,320,o),
(295,316,o),
(295,313,cs),
(292,301,o),
(299,295,o),
(315,295,cs)
);
},
{
closed = 1;
nodes = (
(464,900,o),
(442,917,o),
(421,930,cs),
(381,955,ls),
(336,983,o),
(366,1020,o),
(424,1020,cs),
(453,1020,o),
(467,1002,o),
(488,987,cs),
(524,962,ls),
(564,934,o),
(535,900,o),
(491,900,cs)
);
},
{
closed = 1;
nodes = (
(284,895,o),
(324,915,o),
(360,915,cs),
(375,915,o),
(390,913,o),
(402,891,cs),
(410,878,o),
(423,873,qs),
(444,865,o),
(483,865,qs),
(524,865,o),
(549,873,qs),
(563,878,o),
(576,891,qs),
(598,911,o),
(615,915,o),
(630,915,cs),
(666,915,o),
(695,893,o),
(680,866,cs),
(665,838,o),
(626,814,qs),
(563,775,o),
(465,775,qs),
(367,775,o),
(320,814,qs),
(292,838,o),
(288,866,qs)
);
}
);
width = 600;
},
{
layerId = "61B1B659-4F4A-4AEF-9EF6-2030D7AB6825";
shapes = (
{
closed = 1;
nodes = (
(472,172,ls),
(470,185,o),
(464,191,o),
(451,191,cs),
(231,191,ls),
(218,191,o),
(208,185,o),
(202,172,cs),
(128,27,ls),
(115,2,o),
(97,-10,o),
(68,-10,cs),
(41,-10,o),
(25,4,o),
(31,33,cs),
(33,42,o),
(37,52,o),
(42,63,c),
(366,684,ls),
(386,722,o),
(417,741,o),
(457,741,cs),
(497,741,o),
(518,722,o),
(522,684,cs),
(584,63,l),
(585,52,o),
(585,42,o),
(583,33,cs),
(577,4,o),
(555,-10,o),
(528,-10,cs),
(499,-10,o),
(485,2,o),
(484,27,cs)
);
},
{
closed = 1;
nodes = (
(443,271,ls),
(453,271,o),
(459,275,o),
(461,283,cs),
(462,285,o),
(462,287,o),
(462,290,cs),
(441,598,ls),
(440,608,o),
(436,612,o),
(431,612,cs),
(425,612,o),
(419,608,o),
(414,598,cs),
(262,290,ls),
(260,287,o),
(259,284,o),
(259,282,cs),
(257,274,o),
(264,271,o),
(272,271,cs)
);
},
{
closed = 1;
nodes = (
(473,900,o),
(459,908,o),
(447,922,cs),
(402,973,ls),
(376,1002,o),
(390,1020,o),
(433,1020,cs),
(454,1020,o),
(469,1011,o),
(481,996,cs),
(524,945,ls),
(547,917,o),
(534,900,o),
(493,900,cs)
);
},
{
closed = 1;
nodes = (
(319,896,o),
(333,910,o),
(358,910,cs),
(374,910,o),
(385,902,o),
(396,877,cs),
(401,868,o),
(410,860,qs),
(433,840,o),
(479,840,qs),
(523,840,o),
(555,860,qs),
(568,868,o),
(576,877,qs),
(599,902,o),
(612,910,o),
(628,910,cs),
(653,910,o),
(661,896,o),
(651,875,cs),
(633,840,o),
(596,816,qs),
(542,780,o),
(466,780,qs),
(390,780,o),
(350,816,qs),
(324,840,o),
(321,875,qs)
);
}
);
width = 600;
},
{
layerId = "F8E4993A-289F-423E-A261-7F0C3E35DC2E";
shapes = (
{
closed = 1;
nodes = (
(487,196,ls),
(486,202,o),
(481,206,o),
(474,206,cs),
(214,206,ls),
(207,206,o),
(199,202,o),
(196,196,cs),
(102,9,ls),
(95,-4,o),
(86,-10,o),
(73,-10,cs),
(56,-10,o),
(48,-2,o),
(51,13,cs),
(52,17,o),
(54,22,o),
(56,27,c),
(398,701,ls),
(412,727,o),
(430,740,o),
(457,740,cs),
(484,740,o),
(498,728,o),
(500,702,cs),
(557,28,l),
(558,22,o),
(558,17,o),
(557,12,cs),
(553,-3,o),
(542,-10,o),
(526,-10,cs),
(511,-10,o),
(502,-4,o),
(501,9,cs)
);
},
{
closed = 1;
nodes = (
(471,256,ls),
(477,256,o),
(480,258,o),
(481,262,cs),
(481,263,o),
(483,265,o),
(484,266,cs),
(453,653,ls),
(452,663,o),
(446,668,o),
(442,668,cs),
(438,668,o),
(430,663,o),
(425,653,cs),
(230,266,ls),
(229,265,o),
(231,263,o),
(231,262,cs),
(230,258,o),
(231,256,o),
(237,256,cs)
);
},
{
closed = 1;
nodes = (
(489,895,o),
(481,899,o),
(475,907,cs),
(411,991,ls),
(396,1010,o),
(403,1020,o),
(430,1020,cs),
(443,1020,o),
(453,1015,o),
(460,1005,cs),
(517,920,ls),
(528,904,o),
(522,895,o),
(500,895,cs)
);
},
{
closed = 1;
nodes = (
(341,897,o),
(348,905,o),
(364,905,cs),
(378,905,o),
(385,899,o),
(386,883,cs),
(387,860,o),
(403,844,qs),
(427,820,o),
(474,820,qs),
(521,820,o),
(555,844,qs),
(579,860,o),
(590,883,qs),
(597,899,o),
(605,905,o),
(619,905,cs),
(635,905,o),
(641,897,o),
(636,883,cs),
(620,843,o),
(582,815,qs),
(534,780,o),
(466,780,qs),
(398,780,o),
(364,815,qs),
(337,843,o),
(340,883,qs)
);
}
);
width = 600;
}
);
unicode = 7856;
},
{
glyphname = Abrevehookabove;
layers = (
{
layerId = "BA60169A-A75E-4ACC-B9C7-976B0FD777BA";
shapes = (
{
closed = 1;
nodes = (
(444,148,ls),
(445,168,o),
(435,177,o),
(415,177,cs),
(261,177,ls),
(241,177,o),
(227,168,o),
(216,148,cs),
(164,40,ls),
(147,6,o),
(113,-10,o),
(74,-10,cs),
(34,-10,o),
(17,7,o),
(25,43,cs),
(28,56,o),
(34,72,o),
(43,90,cs),
(339,664,ls),
(366,715,o),
(404,740,o),
(457,740,cs),
(510,740,o),
(538,715,o),
(543,664,cs),
(596,96,ls),
(598,79,o),
(597,63,o),
(595,50,cs),
(586,10,o),
(557,-10,o),
(513,-10,cs),
(472,-10,o),
(445,8,o),
(444,44,cs)
);
},
{
closed = 1;
nodes = (
(412,295,ls),
(428,295,o),
(437,301,o),
(440,313,cs),
(440,316,o),
(440,320,o),
(440,324,cs),
(425,518,ls),
(424,528,o),
(419,532,o),
(413,532,cs),
(407,532,o),
(400,528,o),
(395,518,cs),
(299,324,ls),
(297,320,o),
(295,316,o),
(295,313,cs),
(292,301,o),
(299,295,o),
(315,295,cs)
);
},
{
closed = 1;
nodes = (
(470,890,o),
(451,892,o),
(472,921,cs),
(475,925,ls),
(480,933,o),
(482,938,qs),
(485,949,o),
(471,949,qs),
(438,949,ls),
(414,949,o),
(404,961,o),
(409,985,cs),
(415,1009,o),
(429,1020,o),
(453,1020,cs),
(517,1020,ls),
(558,1020,o),
(594,985,o),
(588,954,qs),
(584,938,o),
(575,925,qs),
(573,922,ls),
(557,901,o),
(541,890,o),
(493,890,cs)
);
},
{
closed = 1;
nodes = (
(284,888,o),
(311,915,o),
(357,915,cs),
(371,915,o),
(380,908,o),
(391,885,cs),
(394,880,o),
(398,875,qs),
(413,860,o),
(447,860,qs),
(518,860,ls),
(550,860,o),
(572,875,qs),
(579,880,o),
(584,885,qs),
(604,906,o),
(619,915,o),
(632,915,cs),
(678,915,o),
(693,888,o),
(667,853,cs),
(652,833,o),
(629,817,qs),
(576,781,o),
(501,780,qs),
(430,780,ls),
(353,781,o),
(317,817,qs),
(300,833,o),
(294,853,qs)
);
}
);
width = 600;
},
{
layerId = "61B1B659-4F4A-4AEF-9EF6-2030D7AB6825";
shapes = (
{
closed = 1;
nodes = (
(472,172,ls),
(470,185,o),
(464,191,o),
(451,191,cs),
(231,191,ls),
(218,191,o),
(208,185,o),
(202,172,cs),
(128,27,ls),
(115,2,o),
(97,-10,o),
(68,-10,cs),
(41,-10,o),
(25,4,o),
(31,33,cs),
(33,42,o),
(37,52,o),
(42,63,c),
(366,684,ls),
(386,722,o),
(417,741,o),
(457,741,cs),
(497,741,o),
(518,722,o),
(522,684,cs),
(584,63,l),
(585,52,o),
(585,42,o),
(583,33,cs),
(577,4,o),
(555,-10,o),
(528,-10,cs),
(499,-10,o),
(485,2,o),
(484,27,cs)
);
},
{
closed = 1;
nodes = (
(443,271,ls),
(453,271,o),
(459,275,o),
(461,283,cs),
(462,285,o),
(462,287,o),
(462,290,cs),
(441,598,ls),
(440,608,o),
(436,612,o),
(431,612,cs),
(425,612,o),
(419,608,o),
(414,598,cs),
(262,290,ls),
(260,287,o),
(259,284,o),
(259,282,cs),
(257,274,o),
(264,271,o),
(272,271,cs)
);
},
{
closed = 1;
nodes = (
(467,880,o),
(454,892,o),
(480,917,cs),
(500,936,ls),
(509,944,o),
(510,952,qs),
(512,960,o),
(502,960,qs),
(459,960,ls),
(439,960,o),
(431,970,o),
(435,990,cs),
(440,1010,o),
(452,1020,o),
(472,1020,cs),
(539,1020,ls),
(565,1020,o),
(589,995,o),
(584,972,qs),
(577,942,o),
(557,920,qs),
(536,900,ls),
(522,886,o),
(507,880,o),
(490,880,cs)
);
},
{
closed = 1;
nodes = (
(325,897,o),
(338,910,o),
(363,910,cs),
(383,910,o),
(391,902,o),
(398,876,cs),
(401,867,o),
(407,859,qs),
(422,840,o),
(454,840,qs),
(503,840,ls),
(536,840,o),
(559,859,qs),
(567,867,o),
(574,876,qs),
(593,902,o),
(603,910,o),
(623,910,cs),
(648,910,o),
(657,897,o),
(647,875,cs),
(631,839,o),
(600,815,qs),
(555,780,o),
(490,780,qs),
(441,780,ls),
(377,780,o),
(346,815,qs),
(325,839,o),
(325,875,qs)
);
}
);
width = 600;
},
{
layerId = "F8E4993A-289F-423E-A261-7F0C3E35DC2E";
shapes = (
{
closed = 1;
nodes = (
(487,196,ls),
(486,202,o),
(481,206,o),
(474,206,cs),
(214,206,ls),
(207,206,o),
(199,202,o),
(196,196,cs),
(102,9,ls),
(95,-4,o),
(86,-10,o),
(73,-10,cs),
(56,-10,o),
(48,-2,o),
(51,13,cs),
(52,17,o),
(54,22,o),
(56,27,c),
(398,701,ls),
(412,727,o),
(430,740,o),
(457,740,cs),
(484,740,o),
(498,728,o),
(500,702,cs),
(557,28,l),
(558,22,o),
(558,17,o),
(557,12,cs),
(553,-3,o),
(542,-10,o),
(526,-10,cs),
(511,-10,o),
(502,-4,o),
(501,9,cs)
);
},
{
closed = 1;
nodes = (
(471,256,ls),
(477,256,o),
(480,258,o),
(481,262,cs),
(481,263,o),
(483,265,o),
(484,266,cs),
(453,653,ls),
(452,663,o),
(446,668,o),
(442,668,cs),
(438,668,o),
(430,663,o),
(425,653,cs),
(230,266,ls),
(229,265,o),
(231,263,o),
(231,262,cs),
(230,258,o),
(231,256,o),
(237,256,cs)
);
},
{
closed = 1;
nodes = (
(471,880,o),
(465,887,o),
(481,903,cs),
(513,933,ls),
(536,954,o),
(538,966,qs),
(542,985,o),
(516,985,qs),
(460,985,ls),
(448,985,o),
(444,991,o),
(446,1003,cs),
(449,1015,o),
(455,1020,o),
(467,1020,cs),
(521,1020,ls),
(553,1020,o),
(583,994,o),
(578,971,qs),
(573,946,o),
(541,915,qs),
(514,891,ls),
(506,883,o),
(497,880,o),
(487,880,cs)
);
},
{
closed = 1;
nodes = (
(341,897,o),
(348,905,o),
(364,905,cs),
(378,905,o),
(385,899,o),
(385,883,cs),
(385,861,o),
(397,844,qs),
(416,821,o),
(454,820,qs),
(494,820,ls),
(532,821,o),
(560,844,qs),
(580,861,o),
(591,883,qs),
(597,899,o),
(605,905,o),
(619,905,cs),
(635,905,o),
(641,897,o),
(636,883,cs),
(621,843,o),
(587,815,qs),
(544,781,o),
(486,780,qs),
(446,780,ls),
(388,781,o),
(359,815,qs),
(337,843,o),
(340,883,qs)
);
}
);
width = 600;
}
);
unicode = 7858;
},
{
glyphname = Abrevetilde;
layers = (
{
layerId = "BA60169A-A75E-4ACC-B9C7-976B0FD777BA";
shapes = (
{
closed = 1;
nodes = (
(444,148,ls),
(445,168,o),
(435,177,o),
(415,177,cs),
(261,177,ls),
(241,177,o),
(227,168,o),
(216,148,cs),
(164,40,ls),
(147,6,o),
(113,-10,o),
(74,-10,cs),
(34,-10,o),
(17,7,o),
(25,43,cs),
(28,56,o),
(34,72,o),
(43,90,cs),
(339,664,ls),
(366,715,o),
(404,740,o),
(457,740,cs),
(510,740,o),
(538,715,o),
(543,664,cs),
(596,96,ls),
(598,79,o),
(597,63,o),
(595,50,cs),
(586,10,o),
(557,-10,o),
(513,-10,cs),
(472,-10,o),
(445,8,o),
(444,44,cs)
);
},
{
closed = 1;
nodes = (
(412,295,ls),
(428,295,o),
(437,301,o),
(440,313,cs),
(440,316,o),
(440,320,o),
(440,324,cs),
(425,518,ls),
(424,528,o),
(419,532,o),
(413,532,cs),
(407,532,o),
(400,528,o),
(395,518,cs),
(299,324,ls),
(297,320,o),
(295,316,o),
(295,313,cs),
(292,301,o),
(299,295,o),
(315,295,cs)
);
},
{
closed = 1;
nodes = (
(302,870,o),
(322,890,o),
(356,890,cs),
(371,890,o),
(382,884,o),
(390,877,cs),
(402,867,o),
(418,860,o),
(435,860,cs),
(531,860,ls),
(547,860,o),
(563,866,o),
(577,874,cs),
(590,882,o),
(605,890,o),
(621,890,cs),
(655,890,o),
(668,870,o),
(650,843,cs),
(636,823,o),
(615,809,qs),
(572,780,o),
(511,780,qs),
(423,780,ls),
(360,780,o),
(329,809,qs),
(313,823,o),
(308,843,qs)
);
},
{
closed = 1;
nodes = (
(330,915,o),
(314,938,o),
(335,968,cs),
(345,982,o),
(358,993,qs),
(391,1020,o),
(437,1020,qs),
(465,1020,o),
(506,1009,o),
(537,996,o),
(564,985,o),
(579,985,qs),
(585,985,o),
(591,987,qs),
(610,993,o),
(621,1015,o),
(642,1015,cs),
(681,1015,o),
(696,992,o),
(676,962,cs),
(666,948,o),
(652,937,qs),
(619,910,o),
(573,910,qs),
(545,910,o),
(505,921,o),
(474,934,o),
(446,945,o),
(431,945,qs),
(425,945,o),
(419,943,qs),
(402,935,o),
(387,915,o),
(369,915,cs)
);
}
);
width = 600;
},
{
layerId = "61B1B659-4F4A-4AEF-9EF6-2030D7AB6825";
shapes = (
{
closed = 1;
nodes = (
(472,172,ls),
(470,185,o),
(464,191,o),
(451,191,cs),
(231,191,ls),
(218,191,o),
(208,185,o),
(202,172,cs),
(128,27,ls),
(115,2,o),
(97,-10,o),
(68,-10,cs),
(41,-10,o),
(25,4,o),
(31,33,cs),
(33,42,o),
(37,52,o),
(42,63,c),
(366,684,ls),
(386,722,o),
(417,741,o),
(457,741,cs),
(497,741,o),
(518,722,o),
(522,684,cs),
(584,63,l),
(585,52,o),
(585,42,o),
(583,33,cs),
(577,4,o),
(555,-10,o),
(528,-10,cs),
(499,-10,o),
(485,2,o),
(484,27,cs)
);
},
{
closed = 1;
nodes = (
(443,271,ls),
(453,271,o),
(459,275,o),
(461,283,cs),
(462,285,o),
(462,287,o),
(462,290,cs),
(441,598,ls),
(440,608,o),
(436,612,o),
(431,612,cs),
(425,612,o),
(419,608,o),
(414,598,cs),
(262,290,ls),
(260,287,o),
(259,284,o),
(259,282,cs),
(257,274,o),
(264,271,o),
(272,271,cs)
);
},
{
closed = 1;
nodes = (
(323,887,o),
(336,900,o),
(361,900,cs),
(379,900,o),
(386,885,o),
(394,870,cs),
(402,855,o),
(420,840,o),
(454,840,cs),
(503,840,ls),
(535,840,o),
(557,852,o),
(572,867,cs),
(589,883,o),
(602,900,o),
(621,900,cs),
(646,900,o),
(655,887,o),
(645,865,cs),
(629,830,o),
(599,810,qs),
(555,780,o),
(490,780,qs),
(441,780,ls),
(377,780,o),
(345,810,qs),
(323,830,o),
(323,865,qs)
);
},
{
closed = 1;
nodes = (
(344,930,o),
(333,947,o),
(347,970,cs),
(357,986,o),
(371,998,qs),
(400,1021,o),
(442,1020,qs),
(474,1020,o),
(512,1006,o),
(537,987,o),
(560,973,o),
(577,973,qs),
(592,973,o),
(601,982,qs),
(612,992,o),
(624,1010,o),
(640,1010,cs),
(669,1010,o),
(680,993,o),
(666,970,cs),
(657,955,o),
(641,943,qs),
(613,921,o),
(573,920,qs),
(542,920,o),
(503,934,o),
(477,953,o),
(453,967,o),
(436,967,qs),
(421,968,o),
(412,959,qs),
(399,946,o),
(393,930,o),
(373,930,cs)
);
}
);
width = 600;
},
{
layerId = "F8E4993A-289F-423E-A261-7F0C3E35DC2E";
shapes = (
{
closed = 1;
nodes = (
(487,196,ls),
(486,202,o),
(481,206,o),
(474,206,cs),
(214,206,ls),
(207,206,o),
(199,202,o),
(196,196,cs),
(102,9,ls),
(95,-4,o),
(86,-10,o),
(73,-10,cs),
(56,-10,o),
(48,-2,o),
(51,13,cs),
(52,17,o),
(54,22,o),
(56,27,c),
(398,701,ls),
(412,727,o),
(430,740,o),
(457,740,cs),
(484,740,o),
(498,728,o),
(500,702,cs),
(557,28,l),
(558,22,o),
(558,17,o),
(557,12,cs),
(553,-3,o),
(542,-10,o),
(526,-10,cs),
(511,-10,o),
(502,-4,o),
(501,9,cs)
);
},
{
closed = 1;
nodes = (
(471,256,ls),
(477,256,o),
(480,258,o),
(481,262,cs),
(481,263,o),
(483,265,o),
(484,266,cs),
(453,653,ls),
(452,663,o),
(446,668,o),
(442,668,cs),
(438,668,o),
(430,663,o),
(425,653,cs),
(230,266,ls),
(229,265,o),
(231,263,o),
(231,262,cs),
(230,258,o),
(231,256,o),
(237,256,cs)
);
},
{
closed = 1;
nodes = (
(340,892,o),
(347,900,o),
(363,900,cs),
(379,900,o),
(382,890,o),
(388,864,cs),
(394,835,o),
(422,820,o),
(454,820,cs),
(494,820,ls),
(524,820,o),
(562,835,o),
(580,864,cs),
(595,889,o),
(603,900,o),
(618,900,cs),
(634,900,o),
(640,892,o),
(635,878,cs),
(619,839,o),
(587,813,qs),
(544,780,o),
(486,780,qs),
(446,780,ls),
(388,780,o),
(359,813,qs),
(336,839,o),
(339,878,qs)
);
},
{
closed = 1;
nodes = (
(354,930,o),
(348,937,o),
(352,950,cs),
(360,981,o),
(384,1000,qs),
(409,1020,o),
(447,1020,qs),
(475,1020,o),
(510,1001,o),
(535,977,o),
(560,958,o),
(579,958,qs),
(609,958,o),
(620,990,qs),
(625,1003,o),
(632,1010,o),
(645,1010,cs),
(659,1010,o),
(664,1003,o),
(660,990,cs),
(653,960,o),
(630,941,qs),
(606,921,o),
(571,920,qs),
(543,920,o),
(508,939,o),
(483,963,o),
(458,982,o),
(439,982,qs),
(403,982,o),
(392,950,qs),
(387,937,o),
(381,930,o),
(368,930,cs)
);
}
);
width = 600;
}
);
unicode = 7860;
},
{
glyphname = Acaron;
layers = (
{
layerId = "BA60169A-A75E-4ACC-B9C7-976B0FD777BA";
shapes = (
{
closed = 1;
nodes = (
(444,148,ls),
(445,168,o),
(435,177,o),
(415,177,cs),
(261,177,ls),
(241,177,o),
(227,168,o),
(216,148,cs),
(164,40,ls),
(147,6,o),
(113,-10,o),
(74,-10,cs),
(34,-10,o),
(17,7,o),
(25,43,cs),
(28,56,o),
(34,72,o),
(43,90,cs),
(339,664,ls),
(366,715,o),
(404,740,o),
(457,740,cs),
(510,740,o),
(538,715,o),
(543,664,cs),
(596,96,ls),
(598,79,o),
(597,63,o),
(595,50,cs),
(586,10,o),
(557,-10,o),
(513,-10,cs),
(472,-10,o),
(445,8,o),
(444,44,cs)
);
},
{
closed = 1;
nodes = (
(412,295,ls),
(428,295,o),
(437,301,o),
(440,313,cs),
(440,316,o),
(440,320,o),
(440,324,cs),
(425,518,ls),
(424,528,o),
(419,532,o),
(413,532,cs),
(407,532,o),
(400,528,o),
(395,518,cs),
(299,324,ls),
(297,320,o),
(295,316,o),
(295,313,cs),
(292,301,o),
(299,295,o),
(315,295,cs)
);
},
{
closed = 1;
nodes = (
(418,950,o),
(440,939,o),
(457,917,cs),
(458,916,ls),
(477,892,o),
(499,891,o),
(529,915,cs),
(533,919,ls),
(560,941,o),
(587,950,o),
(617,950,cs),
(677,950,o),
(682,928,o),
(631,885,cs),
(602,860,ls),
(562,826,o),
(509,810,o),
(472,810,cs),
(435,810,o),
(388,825,o),
(364,860,cs),
(346,885,ls),
(315,930,o),
(327,950,o),
(388,950,cs)
);
}
);
width = 600;
},
{
layerId = "61B1B659-4F4A-4AEF-9EF6-2030D7AB6825";
shapes = (
{
closed = 1;
nodes = (
(472,172,ls),
(470,185,o),
(464,191,o),
(451,191,cs),
(231,191,ls),
(218,191,o),
(208,185,o),
(202,172,cs),
(128,27,ls),
(115,2,o),
(97,-10,o),
(68,-10,cs),
(41,-10,o),
(25,4,o),
(31,33,cs),
(33,42,o),
(37,52,o),
(42,63,c),
(366,684,ls),
(386,722,o),
(417,741,o),
(457,741,cs),
(497,741,o),
(518,722,o),
(522,684,cs),
(584,63,l),
(585,52,o),
(585,42,o),
(583,33,cs),
(577,4,o),
(555,-10,o),
(528,-10,cs),
(499,-10,o),
(485,2,o),
(484,27,cs)
);
},
{
closed = 1;
nodes = (
(443,271,ls),
(453,271,o),
(459,275,o),
(461,283,cs),
(462,285,o),
(462,287,o),
(462,290,cs),
(441,598,ls),
(440,608,o),
(436,612,o),
(431,612,cs),
(425,612,o),
(419,608,o),
(414,598,cs),
(262,290,ls),
(260,287,o),
(259,284,o),
(259,282,cs),
(257,274,o),
(264,271,o),
(272,271,cs)
);
},
{
closed = 1;
nodes = (
(412,950,o),
(429,942,o),
(442,926,cs),
(463,900,ls),
(478,881,o),
(499,882,o),
(521,900,cs),
(556,927,ls),
(575,942,o),
(596,950,o),
(618,950,cs),
(662,950,o),
(665,934,o),
(627,903,cs),
(549,839,ls),
(525,819,o),
(495,810,o),
(472,810,cs),
(449,810,o),
(424,819,o),
(408,839,cs),
(359,902,ls),
(334,934,o),
(344,950,o),
(389,950,cs)
);
}
);
width = 600;
},
{
layerId = "F8E4993A-289F-423E-A261-7F0C3E35DC2E";
shapes = (
{
closed = 1;
nodes = (
(487,196,ls),
(486,202,o),
(481,206,o),
(474,206,cs),
(214,206,ls),
(207,206,o),
(199,202,o),
(196,196,cs),
(102,9,ls),
(95,-4,o),
(86,-10,o),
(73,-10,cs),
(56,-10,o),
(48,-2,o),
(51,13,cs),
(52,17,o),
(54,22,o),
(56,27,c),
(398,701,ls),
(412,727,o),
(430,740,o),
(457,740,cs),
(484,740,o),
(498,728,o),
(500,702,cs),
(557,28,l),
(558,22,o),
(558,17,o),
(557,12,cs),
(553,-3,o),
(542,-10,o),
(526,-10,cs),
(511,-10,o),
(502,-4,o),
(501,9,cs)
);
},
{
closed = 1;
nodes = (
(471,256,ls),
(477,256,o),
(480,258,o),
(481,262,cs),
(481,263,o),
(483,265,o),
(484,266,cs),
(453,653,ls),
(452,663,o),
(446,668,o),
(442,668,cs),
(438,668,o),
(430,663,o),
(425,653,cs),
(230,266,ls),
(229,265,o),
(231,263,o),
(231,262,cs),
(230,258,o),
(231,256,o),
(237,256,cs)
);
},
{
closed = 1;
nodes = (
(397,950,o),
(405,945,o),
(411,937,cs),
(463,863,ls),
(474,848,o),
(486,848,o),
(503,863,cs),
(589,938,ls),
(598,946,o),
(608,950,o),
(619,950,cs),
(641,950,o),
(643,942,o),
(626,925,cs),
(527,833,ls),
(511,818,o),
(487,810,o),
(472,810,cs),
(457,810,o),
(437,818,o),
(427,833,cs),
(368,924,ls),
(357,941,o),
(363,950,o),
(386,950,cs)
);
}
);
width = 600;
}
);
unicode = 461;
},
{
glyphname = Acircumflex;
layers = (
{
layerId = "BA60169A-A75E-4ACC-B9C7-976B0FD777BA";
shapes = (
{
closed = 1;
nodes = (
(444,148,ls),
(445,168,o),
(435,177,o),
(415,177,cs),
(261,177,ls),
(241,177,o),
(227,168,o),
(216,148,cs),
(164,40,ls),
(147,6,o),
(113,-10,o),
(74,-10,cs),
(34,-10,o),
(17,7,o),
(25,43,cs),
(28,56,o),
(34,72,o),
(43,90,cs),
(339,664,ls),
(366,715,o),
(404,740,o),
(457,740,cs),
(510,740,o),
(538,715,o),
(543,664,cs),
(596,96,ls),
(598,79,o),
(597,63,o),
(595,50,cs),
(586,10,o),
(557,-10,o),
(513,-10,cs),
(472,-10,o),
(445,8,o),
(444,44,cs)
);
},
{
closed = 1;
nodes = (
(412,295,ls),
(428,295,o),
(437,301,o),
(440,313,cs),
(440,316,o),
(440,320,o),
(440,324,cs),
(425,518,ls),
(424,528,o),
(419,532,o),
(413,532,cs),
(407,532,o),
(400,528,o),
(395,518,cs),
(299,324,ls),
(297,320,o),
(295,316,o),
(295,313,cs),
(292,301,o),
(299,295,o),
(315,295,cs)
);
},
{
closed = 1;
nodes = (
(297,810,o),
(293,831,o),
(344,875,cs),
(372,900,ls),
(413,934,o),
(455,950,o),
(502,950,cs),
(549,950,o),
(585,934,o),
(610,900,cs),
(629,875,ls),
(662,832,o),
(647,810,o),
(587,810,cs),
(557,810,o),
(534,820,o),
(517,841,cs),
(514,845,ls),
(495,868,o),
(471,868,o),
(442,844,cs),
(441,843,ls),
(416,821,o),
(388,810,o),
(358,810,cs)
);
}
);
width = 600;
},
{
layerId = "61B1B659-4F4A-4AEF-9EF6-2030D7AB6825";
shapes = (
{
closed = 1;
nodes = (
(472,172,ls),
(470,185,o),
(464,191,o),
(451,191,cs),
(231,191,ls),
(218,191,o),
(208,185,o),
(202,172,cs),
(128,27,ls),
(115,2,o),
(97,-10,o),
(68,-10,cs),
(41,-10,o),
(25,4,o),
(31,33,cs),
(33,42,o),
(37,52,o),
(42,63,c),
(366,684,ls),
(386,722,o),
(417,741,o),
(457,741,cs),
(497,741,o),
(518,722,o),
(522,684,cs),
(584,63,l),
(585,52,o),
(585,42,o),
(583,33,cs),
(577,4,o),
(555,-10,o),
(528,-10,cs),
(499,-10,o),
(485,2,o),
(484,27,cs)
);
},
{
closed = 1;
nodes = (
(443,271,ls),
(453,271,o),
(459,275,o),
(461,283,cs),
(462,285,o),
(462,287,o),
(462,290,cs),
(441,598,ls),
(440,608,o),
(436,612,o),
(431,612,cs),
(425,612,o),
(419,608,o),
(414,598,cs),
(262,290,ls),
(260,287,o),
(259,284,o),
(259,282,cs),
(257,274,o),
(264,271,o),
(272,271,cs)
);
},
{
closed = 1;
nodes = (
(314,810,o),
(311,826,o),
(349,858,cs),
(426,921,ls),
(450,941,o),
(474,950,o),
(502,950,cs),
(530,950,o),
(551,941,o),
(567,921,cs),
(617,857,ls),
(642,826,o),
(632,810,o),
(588,810,cs),
(566,810,o),
(549,818,o),
(536,833,cs),
(513,860,ls),
(498,878,o),
(478,879,o),
(455,860,cs),
(422,834,ls),
(403,818,o),
(382,810,o),
(359,810,cs)
);
}
);
width = 600;
},
{
layerId = "F8E4993A-289F-423E-A261-7F0C3E35DC2E";
shapes = (
{
closed = 1;
nodes = (
(487,196,ls),
(486,202,o),
(481,206,o),
(474,206,cs),
(214,206,ls),
(207,206,o),
(199,202,o),
(196,196,cs),
(102,9,ls),
(95,-4,o),
(86,-10,o),
(73,-10,cs),
(56,-10,o),
(48,-2,o),
(51,13,cs),
(52,17,o),
(54,22,o),
(56,27,c),
(398,701,ls),
(412,727,o),
(430,740,o),
(457,740,cs),
(484,740,o),
(498,728,o),
(500,702,cs),
(557,28,l),
(558,22,o),
(558,17,o),
(557,12,cs),
(553,-3,o),
(542,-10,o),
(526,-10,cs),
(511,-10,o),
(502,-4,o),
(501,9,cs)
);
},
{
closed = 1;
nodes = (
(471,256,ls),
(477,256,o),
(480,258,o),
(481,262,cs),
(481,263,o),
(483,265,o),
(484,266,cs),
(453,653,ls),
(452,663,o),
(446,668,o),
(442,668,cs),
(438,668,o),
(430,663,o),
(425,653,cs),
(230,266,ls),
(229,265,o),
(231,263,o),
(231,262,cs),
(230,258,o),
(231,256,o),
(237,256,cs)
);
},
{
closed = 1;
nodes = (
(333,810,o),
(331,819,o),
(350,836,cs),
(447,927,ls),
(463,942,o),
(482,950,o),
(502,950,cs),
(522,950,o),
(537,942,o),
(547,927,cs),
(607,835,ls),
(617,818,o),
(611,810,o),
(589,810,cs),
(578,810,o),
(570,814,o),
(565,822,cs),
(511,897,ls),
(500,912,o),
(488,912,o),
(471,897,cs),
(387,823,ls),
(377,815,o),
(367,810,o),
(356,810,cs)
);
}
);
width = 600;
}
);
unicode = 194;
},
{
glyphname = Acircumflexacute;
layers = (
{
layerId = "BA60169A-A75E-4ACC-B9C7-976B0FD777BA";
shapes = (
{
closed = 1;
nodes = (
(444,148,ls),
(445,168,o),
(435,177,o),
(415,177,cs),
(261,177,ls),
(241,177,o),
(227,168,o),
(216,148,cs),
(164,40,ls),
(147,6,o),
(113,-10,o),
(74,-10,cs),
(34,-10,o),
(17,7,o),
(25,43,cs),
(28,56,o),
(34,72,o),
(43,90,cs),
(339,664,ls),
(366,715,o),
(404,740,o),
(457,740,cs),
(510,740,o),
(538,715,o),
(543,664,cs),
(596,96,ls),
(598,79,o),
(597,63,o),
(595,50,cs),
(586,10,o),
(557,-10,o),
(513,-10,cs),
(472,-10,o),
(445,8,o),
(444,44,cs)
);
},
{
closed = 1;
nodes = (
(412,295,ls),
(428,295,o),
(437,301,o),
(440,313,cs),
(440,316,o),
(440,320,o),
(440,324,cs),
(425,518,ls),
(424,528,o),
(419,532,o),
(413,532,cs),
(407,532,o),
(400,528,o),
(395,518,cs),
(299,324,ls),
(297,320,o),
(295,316,o),
(295,313,cs),
(292,301,o),
(299,295,o),
(315,295,cs)
);
},
{
closed = 1;
nodes = (
(642,905,o),
(637,926,o),
(687,971,cs),
(701,984,ls),
(728,1008,o),
(758,1020,o),
(790,1020,cs),
(855,1020,o),
(860,998,o),
(804,952,cs),
(786,937,ls),
(761,916,o),
(732,905,o),
(702,905,cs)
);
},
{
closed = 1;
nodes = (
(291,780,o),
(286,801,o),
(338,845,cs),
(366,870,ls),
(406,904,o),
(449,920,o),
(496,920,cs),
(543,920,o),
(578,904,o),
(604,870,cs),
(622,845,ls),
(654,801,o),
(641,780,o),
(580,780,cs),
(550,780,o),
(526,790,o),
(510,812,cs),
(508,814,ls),
(489,838,o),
(467,838,o),
(438,814,cs),
(436,812,ls),
(410,790,o),
(382,780,o),
(352,780,cs)
);
}
);
width = 600;
},
{
layerId = "61B1B659-4F4A-4AEF-9EF6-2030D7AB6825";
shapes = (
{
closed = 1;
nodes = (
(472,172,ls),
(470,185,o),
(464,191,o),
(451,191,cs),
(231,191,ls),
(218,191,o),
(208,185,o),
(202,172,cs),
(128,27,ls),
(115,2,o),
(97,-10,o),
(68,-10,cs),
(41,-10,o),
(25,4,o),
(31,33,cs),
(33,42,o),
(37,52,o),
(42,63,c),
(366,684,ls),
(386,722,o),
(417,741,o),
(457,741,cs),
(497,741,o),
(518,722,o),
(522,684,cs),
(584,63,l),
(585,52,o),
(585,42,o),
(583,33,cs),
(577,4,o),
(555,-10,o),
(528,-10,cs),
(499,-10,o),
(485,2,o),
(484,27,cs)
);
},
{
closed = 1;
nodes = (
(443,271,ls),
(453,271,o),
(459,275,o),
(461,283,cs),
(462,285,o),
(462,287,o),
(462,290,cs),
(441,598,ls),
(440,608,o),
(436,612,o),
(431,612,cs),
(425,612,o),
(419,608,o),
(414,598,cs),
(262,290,ls),
(260,287,o),
(259,284,o),
(259,282,cs),
(257,274,o),
(264,271,o),
(272,271,cs)
);
},
{
closed = 1;
nodes = (
(621,900,o),
(617,916,o),
(653,949,cs),
(702,994,ls),
(721,1011,o),
(741,1020,o),
(764,1020,cs),
(810,1020,o),
(813,1004,o),
(775,970,cs),
(723,924,ls),
(705,908,o),
(686,900,o),
(664,900,cs)
);
},
{
closed = 1;
nodes = (
(308,780,o),
(304,796,o),
(342,827,cs),
(418,890,ls),
(442,910,o),
(468,920,o),
(496,920,cs),
(524,920,o),
(545,910,o),
(561,890,cs),
(610,828,ls),
(635,796,o),
(625,780,o),
(580,780,cs),
(557,780,o),
(540,788,o),
(527,804,cs),
(505,830,ls),
(490,849,o),
(470,849,o),
(447,830,cs),
(414,803,ls),
(395,788,o),
(374,780,o),
(352,780,cs)
);
}
);
width = 600;
},
{
layerId = "F8E4993A-289F-423E-A261-7F0C3E35DC2E";
shapes = (
{
closed = 1;
nodes = (
(487,196,ls),
(486,202,o),
(481,206,o),
(474,206,cs),
(214,206,ls),
(207,206,o),
(199,202,o),
(196,196,cs),
(102,9,ls),
(95,-4,o),
(86,-10,o),
(73,-10,cs),
(56,-10,o),
(48,-2,o),
(51,13,cs),
(52,17,o),
(54,22,o),
(56,27,c),
(398,701,ls),
(412,727,o),
(430,740,o),
(457,740,cs),
(484,740,o),
(498,728,o),
(500,702,cs),
(557,28,l),
(558,22,o),
(558,17,o),
(557,12,cs),
(553,-3,o),
(542,-10,o),
(526,-10,cs),
(511,-10,o),
(502,-4,o),
(501,9,cs)
);
},
{
closed = 1;
nodes = (
(471,256,ls),
(477,256,o),
(480,258,o),
(481,262,cs),
(481,263,o),
(483,265,o),
(484,266,cs),
(453,653,ls),
(452,663,o),
(446,668,o),
(442,668,cs),
(438,668,o),
(430,663,o),
(425,653,cs),
(230,266,ls),
(229,265,o),
(231,263,o),
(231,262,cs),
(230,258,o),
(231,256,o),
(237,256,cs)
);
},
{
closed = 1;
nodes = (
(606,895,o),
(604,904,o),
(622,921,cs),
(711,1005,ls),
(722,1015,o),
(734,1020,o),
(747,1020,cs),
(774,1020,o),
(776,1011,o),
(754,991,cs),
(659,907,ls),
(649,899,o),
(639,895,o),
(628,895,cs)
);
},
{
closed = 1;
nodes = (
(327,780,o),
(325,789,o),
(343,806,cs),
(441,897,ls),
(457,912,o),
(476,920,o),
(496,920,cs),
(516,920,o),
(531,912,o),
(541,897,cs),
(600,805,ls),
(611,788,o),
(605,780,o),
(583,780,cs),
(572,780,o),
(564,784,o),
(558,792,cs),
(504,867,ls),
(494,882,o),
(482,882,o),
(464,867,cs),
(381,793,ls),
(371,785,o),
(361,780,o),
(350,780,cs)
);
}
);
width = 600;
}
);
unicode = 7844;
},
{
glyphname = Acircumflexdotbelow;
layers = (
{
layerId = "BA60169A-A75E-4ACC-B9C7-976B0FD777BA";
shapes = (
{
closed = 1;
nodes = (
(297,810,o),
(293,831,o),
(344,875,cs),
(372,900,ls),
(413,934,o),
(455,950,o),
(502,950,cs),
(549,950,o),
(585,934,o),
(610,900,cs),
(629,875,ls),
(662,832,o),
(647,810,o),
(587,810,cs),
(557,810,o),
(534,820,o),
(517,841,cs),
(514,845,ls),
(495,868,o),
(471,868,o),
(442,844,cs),
(441,843,ls),
(416,821,o),
(388,810,o),
(358,810,cs)
);
},
{
closed = 1;
nodes = (
(444,148,ls),
(445,168,o),
(435,177,o),
(415,177,cs),
(261,177,ls),
(241,177,o),
(227,168,o),
(216,148,cs),
(164,40,ls),
(147,6,o),
(113,-10,o),
(74,-10,cs),
(34,-10,o),
(17,7,o),
(25,43,cs),
(28,56,o),
(34,72,o),
(43,90,cs),
(339,664,ls),
(366,715,o),
(404,740,o),
(457,740,cs),
(510,740,o),
(538,715,o),
(543,664,cs),
(596,96,ls),
(598,79,o),
(597,63,o),
(595,50,cs),
(586,10,o),
(557,-10,o),
(513,-10,cs),
(472,-10,o),
(445,8,o),
(444,44,cs)
);
},
{
closed = 1;
nodes = (
(412,295,ls),
(428,295,o),
(437,301,o),
(440,313,cs),
(440,316,o),
(440,320,o),
(440,324,cs),
(425,518,ls),
(424,528,o),
(419,532,o),
(413,532,cs),
(407,532,o),
(400,528,o),
(395,518,cs),
(299,324,ls),
(297,320,o),
(295,316,o),
(295,313,cs),
(292,301,o),
(299,295,o),
(315,295,cs)
);
},
{
closed = 1;
nodes = (
(209,-233,o),
(169,-191,o),
(177,-155,qs),
(185,-119,o),
(243,-77,o),
(284,-77,qs),
(325,-77,o),
(365,-119,o),
(357,-155,qs),
(349,-191,o),
(291,-233,o),
(250,-233,qs)
);
}
);
width = 600;
},
{
layerId = "61B1B659-4F4A-4AEF-9EF6-2030D7AB6825";
shapes = (
{
closed = 1;
nodes = (
(314,810,o),
(311,826,o),
(349,858,cs),
(426,921,ls),
(450,941,o),
(474,950,o),
(502,950,cs),
(530,950,o),
(551,941,o),
(567,921,cs),
(617,857,ls),
(642,826,o),
(632,810,o),
(588,810,cs),
(566,810,o),
(549,818,o),
(536,833,cs),
(513,860,ls),
(498,878,o),
(478,879,o),
(455,860,cs),
(422,834,ls),
(403,818,o),
(382,810,o),
(359,810,cs)
);
},
{
closed = 1;
nodes = (
(472,172,ls),
(470,185,o),
(464,191,o),
(451,191,cs),
(231,191,ls),
(218,191,o),
(208,185,o),
(202,172,cs),
(128,27,ls),
(115,2,o),
(97,-10,o),
(68,-10,cs),
(41,-10,o),
(25,4,o),
(31,33,cs),
(33,42,o),
(37,52,o),
(42,63,c),
(366,684,ls),
(386,722,o),
(417,741,o),
(457,741,cs),
(497,741,o),
(518,722,o),
(522,684,cs),
(584,63,l),
(585,52,o),
(585,42,o),
(583,33,cs),
(577,4,o),
(555,-10,o),
(528,-10,cs),
(499,-10,o),
(485,2,o),
(484,27,cs)
);
},
{
closed = 1;
nodes = (
(443,271,ls),
(453,271,o),
(459,275,o),
(461,283,cs),
(462,285,o),
(462,287,o),
(462,290,cs),
(441,598,ls),
(440,608,o),
(436,612,o),
(431,612,cs),
(425,612,o),
(419,608,o),
(414,598,cs),
(262,290,ls),
(260,287,o),
(259,284,o),
(259,282,cs),
(257,274,o),
(264,271,o),
(272,271,cs)
);
},
{
closed = 1;
nodes = (
(222,-213,o),
(191,-179,o),
(197,-150,qs),
(203,-120,o),
(249,-85,o),
(282,-85,qs),
(315,-85,o),
(345,-120,o),
(339,-150,qs),
(333,-179,o),
(288,-213,o),
(255,-213,qs)
);
}
);
width = 600;
},
{
layerId = "F8E4993A-289F-423E-A261-7F0C3E35DC2E";
shapes = (
{
closed = 1;
nodes = (
(333,810,o),
(331,819,o),
(350,836,cs),
(447,927,ls),
(463,942,o),
(482,950,o),
(502,950,cs),
(522,950,o),
(537,942,o),
(547,927,cs),
(607,835,ls),
(617,818,o),
(611,810,o),
(589,810,cs),
(578,810,o),
(570,814,o),
(565,822,cs),
(511,897,ls),
(500,912,o),
(488,912,o),
(471,897,cs),
(387,823,ls),
(377,815,o),
(367,810,o),
(356,810,cs)
);
},
{
closed = 1;
nodes = (
(487,196,ls),
(486,202,o),
(481,206,o),
(474,206,cs),
(214,206,ls),
(207,206,o),
(199,202,o),
(196,196,cs),
(102,9,ls),
(95,-4,o),
(86,-10,o),
(73,-10,cs),
(56,-10,o),
(48,-2,o),
(51,13,cs),
(52,17,o),
(54,22,o),
(56,27,c),
(398,701,ls),
(412,727,o),
(430,740,o),
(457,740,cs),
(484,740,o),
(498,728,o),
(500,702,cs),
(557,28,l),
(558,22,o),
(558,17,o),
(557,12,cs),
(553,-3,o),
(542,-10,o),
(526,-10,cs),
(511,-10,o),
(502,-4,o),
(501,9,cs)
);
},
{
closed = 1;
nodes = (
(471,256,ls),
(477,256,o),
(480,258,o),
(481,262,cs),
(481,263,o),
(483,265,o),
(484,266,cs),
(453,653,ls),
(452,663,o),
(446,668,o),
(442,668,cs),
(438,668,o),
(430,663,o),
(425,653,cs),
(230,266,ls),
(229,265,o),
(231,263,o),
(231,262,cs),
(230,258,o),
(231,256,o),
(237,256,cs)
);
},
{
closed = 1;
nodes = (
(230,-205,o),
(205,-175,o),
(210,-150,qs),
(215,-125,o),
(254,-95,o),
(280,-95,qs),
(306,-95,o),
(331,-125,o),
(326,-150,qs),
(321,-175,o),
(282,-205,o),
(256,-205,qs)
);
}
);
width = 600;
}
);
unicode = 7852;
},
{
glyphname = Acircumflexgrave;
layers = (
{
layerId = "BA60169A-A75E-4ACC-B9C7-976B0FD777BA";
shapes = (
{
closed = 1;
nodes = (
(444,148,ls),
(445,168,o),
(435,177,o),
(415,177,cs),
(261,177,ls),
(241,177,o),
(227,168,o),
(216,148,cs),
(164,40,ls),
(147,6,o),
(113,-10,o),
(74,-10,cs),
(34,-10,o),
(17,7,o),
(25,43,cs),
(28,56,o),
(34,72,o),
(43,90,cs),
(339,664,ls),
(366,715,o),
(404,740,o),
(457,740,cs),
(510,740,o),
(538,715,o),
(543,664,cs),
(596,96,ls),
(598,79,o),
(597,63,o),
(595,50,cs),
(586,10,o),
(557,-10,o),
(513,-10,cs),
(472,-10,o),
(445,8,o),
(444,44,cs)
);
},
{
closed = 1;
nodes = (
(412,295,ls),
(428,295,o),
(437,301,o),
(440,313,cs),
(440,316,o),
(440,320,o),
(440,324,cs),
(425,518,ls),
(424,528,o),
(419,532,o),
(413,532,cs),
(407,532,o),
(400,528,o),
(395,518,cs),
(299,324,ls),
(297,320,o),
(295,316,o),
(295,313,cs),
(292,301,o),
(299,295,o),
(315,295,cs)
);
},
{
closed = 1;
nodes = (
(662,905,o),
(639,916,o),
(622,937,cs),
(610,952,ls),
(574,998,o),
(589,1020,o),
(654,1020,cs),
(686,1020,o),
(710,1008,o),
(727,984,cs),
(735,971,ls),
(767,926,o),
(752,905,o),
(692,905,cs)
);
},
{
closed = 1;
nodes = (
(291,780,o),
(286,801,o),
(338,845,cs),
(366,870,ls),
(406,904,o),
(449,920,o),
(496,920,cs),
(543,920,o),
(578,904,o),
(604,870,cs),
(622,845,ls),
(654,801,o),
(641,780,o),
(580,780,cs),
(550,780,o),
(526,790,o),
(510,812,cs),
(508,814,ls),
(489,838,o),
(467,838,o),
(438,814,cs),
(436,812,ls),
(410,790,o),
(382,780,o),
(352,780,cs)
);
}
);
width = 600;
},
{
layerId = "61B1B659-4F4A-4AEF-9EF6-2030D7AB6825";
shapes = (
{
closed = 1;
nodes = (
(472,172,ls),
(470,185,o),
(464,191,o),
(451,191,cs),
(231,191,ls),
(218,191,o),
(208,185,o),
(202,172,cs),
(128,27,ls),
(115,2,o),
(97,-10,o),
(68,-10,cs),
(41,-10,o),
(25,4,o),
(31,33,cs),
(33,42,o),
(37,52,o),
(42,63,c),
(366,684,ls),
(386,722,o),
(417,741,o),
(457,741,cs),
(497,741,o),
(518,722,o),
(522,684,cs),
(584,63,l),
(585,52,o),
(585,42,o),
(583,33,cs),
(577,4,o),
(555,-10,o),
(528,-10,cs),
(499,-10,o),
(485,2,o),
(484,27,cs)
);
},
{
closed = 1;
nodes = (
(443,271,ls),
(453,271,o),
(459,275,o),
(461,283,cs),
(462,285,o),
(462,287,o),
(462,290,cs),
(441,598,ls),
(440,608,o),
(436,612,o),
(431,612,cs),
(425,612,o),
(419,608,o),
(414,598,cs),
(262,290,ls),
(260,287,o),
(259,284,o),
(259,282,cs),
(257,274,o),
(264,271,o),
(272,271,cs)
);
},
{
closed = 1;
nodes = (
(647,900,o),
(631,907,o),
(619,922,cs),
(579,973,ls),
(554,1005,o),
(564,1020,o),
(609,1020,cs),
(631,1020,o),
(648,1012,o),
(660,996,cs),
(697,946,ls),
(720,915,o),
(710,900,o),
(668,900,cs)
);
},
{
closed = 1;
nodes = (
(308,780,o),
(304,796,o),
(342,827,cs),
(418,890,ls),
(442,910,o),
(468,920,o),
(496,920,cs),
(524,920,o),
(545,910,o),
(561,890,cs),
(610,828,ls),
(635,796,o),
(625,780,o),
(580,780,cs),
(557,780,o),
(540,788,o),
(527,804,cs),
(505,830,ls),
(490,849,o),
(470,849,o),
(447,830,cs),
(414,803,ls),
(395,788,o),
(374,780,o),
(352,780,cs)
);
}
);
width = 600;
},
{
layerId = "F8E4993A-289F-423E-A261-7F0C3E35DC2E";
shapes = (
{
closed = 1;
nodes = (
(487,196,ls),
(486,202,o),
(481,206,o),
(474,206,cs),
(214,206,ls),
(207,206,o),
(199,202,o),
(196,196,cs),
(102,9,ls),
(95,-4,o),
(86,-10,o),
(73,-10,cs),
(56,-10,o),
(48,-2,o),
(51,13,cs),
(52,17,o),
(54,22,o),
(56,27,c),
(398,701,ls),
(412,727,o),
(430,740,o),
(457,740,cs),
(484,740,o),
(498,728,o),
(500,702,cs),
(557,28,l),
(558,22,o),
(558,17,o),
(557,12,cs),
(553,-3,o),
(542,-10,o),
(526,-10,cs),
(511,-10,o),
(502,-4,o),
(501,9,cs)
);
},
{
closed = 1;
nodes = (
(471,256,ls),
(477,256,o),
(480,258,o),
(481,262,cs),
(481,263,o),
(483,265,o),
(484,266,cs),
(453,653,ls),
(452,663,o),
(446,668,o),
(442,668,cs),
(438,668,o),
(430,663,o),
(425,653,cs),
(230,266,ls),
(229,265,o),
(231,263,o),
(231,262,cs),
(230,258,o),
(231,256,o),
(237,256,cs)
);
},
{
closed = 1;
nodes = (
(641,895,o),
(633,899,o),
(627,907,cs),
(565,991,ls),
(551,1010,o),
(556,1020,o),
(583,1020,cs),
(596,1020,o),
(606,1015,o),
(613,1005,cs),
(669,920,ls),
(680,903,o),
(674,895,o),
(652,895,cs)
);
},
{
closed = 1;
nodes = (
(327,780,o),
(325,789,o),
(343,806,cs),
(441,897,ls),
(457,912,o),
(476,920,o),
(496,920,cs),
(516,920,o),
(531,912,o),
(541,897,cs),
(600,805,ls),
(611,788,o),
(605,780,o),
(583,780,cs),
(572,780,o),
(564,784,o),
(558,792,cs),
(504,867,ls),
(494,882,o),
(482,882,o),
(464,867,cs),
(381,793,ls),
(371,785,o),
(361,780,o),
(350,780,cs)
);
}
);
width = 600;
}
);
unicode = 7846;
},
{
glyphname = Acircumflexhookabove;
layers = (
{
layerId = "BA60169A-A75E-4ACC-B9C7-976B0FD777BA";
shapes = (
{
closed = 1;
nodes = (
(444,148,ls),
(445,168,o),
(435,177,o),
(415,177,cs),
(261,177,ls),
(241,177,o),
(227,168,o),
(216,148,cs),
(164,40,ls),
(147,6,o),
(113,-10,o),
(74,-10,cs),
(34,-10,o),
(17,7,o),
(25,43,cs),
(28,56,o),
(34,72,o),
(43,90,cs),
(339,664,ls),
(366,715,o),
(404,740,o),
(457,740,cs),
(510,740,o),
(538,715,o),
(543,664,cs),
(596,96,ls),
(598,79,o),
(597,63,o),
(595,50,cs),
(586,10,o),
(557,-10,o),
(513,-10,cs),
(472,-10,o),
(445,8,o),
(444,44,cs)
);
},
{
closed = 1;
nodes = (
(412,295,ls),
(428,295,o),
(437,301,o),
(440,313,cs),
(440,316,o),
(440,320,o),
(440,324,cs),
(425,518,ls),
(424,528,o),
(419,532,o),
(413,532,cs),
(407,532,o),
(400,528,o),
(395,518,cs),
(299,324,ls),
(297,320,o),
(295,316,o),
(295,313,cs),
(292,301,o),
(299,295,o),
(315,295,cs)
);
},
{
closed = 1;
nodes = (
(650,870,o),
(637,881,o),
(665,905,cs),
(667,906,ls),
(680,917,o),
(682,927,qs),
(686,944,o),
(661,944,qs),
(629,944,ls),
(604,944,o),
(593,957,o),
(599,982,cs),
(604,1007,o),
(620,1020,o),
(645,1020,cs),
(702,1020,ls),
(750,1020,o),
(799,978,o),
(790,938,qs),
(787,924,o),
(777,910,qs),
(773,904,ls),
(749,870,o),
(706,870,o),
(673,870,cs)
);
},
{
closed = 1;
nodes = (
(291,780,o),
(286,801,o),
(338,845,cs),
(366,870,ls),
(406,904,o),
(449,920,o),
(496,920,cs),
(543,920,o),
(578,904,o),
(604,870,cs),
(622,845,ls),
(654,801,o),
(641,780,o),
(580,780,cs),
(550,780,o),
(526,790,o),
(510,812,cs),
(508,814,ls),
(489,838,o),
(467,838,o),
(438,814,cs),
(436,812,ls),
(410,790,o),
(382,780,o),
(352,780,cs)
);
}
);
width = 600;
},
{
layerId = "61B1B659-4F4A-4AEF-9EF6-2030D7AB6825";
shapes = (
{
closed = 1;
nodes = (
(472,172,ls),
(470,185,o),
(464,191,o),
(451,191,cs),
(231,191,ls),
(218,191,o),
(208,185,o),
(202,172,cs),
(128,27,ls),
(115,2,o),
(97,-10,o),
(68,-10,cs),
(41,-10,o),
(25,4,o),
(31,33,cs),
(33,42,o),
(37,52,o),
(42,63,c),
(366,684,ls),
(386,722,o),
(417,741,o),
(457,741,cs),
(497,741,o),
(518,722,o),
(522,684,cs),
(584,63,l),
(585,52,o),
(585,42,o),
(583,33,cs),
(577,4,o),
(555,-10,o),
(528,-10,cs),
(499,-10,o),
(485,2,o),
(484,27,cs)
);
},
{
closed = 1;
nodes = (
(443,271,ls),
(453,271,o),
(459,275,o),
(461,283,cs),
(462,285,o),
(462,287,o),
(462,290,cs),
(441,598,ls),
(440,608,o),
(436,612,o),
(431,612,cs),
(425,612,o),
(419,608,o),
(414,598,cs),
(262,290,ls),
(260,287,o),
(259,284,o),
(259,282,cs),
(257,274,o),
(264,271,o),
(272,271,cs)
);
},
{
closed = 1;
nodes = (
(630,880,o),
(618,889,o),
(641,907,cs),
(665,927,ls),
(675,935,o),
(677,946,qs),
(681,962,o),
(666,962,qs),
(629,962,ls),
(610,962,o),
(602,972,o),
(606,991,cs),
(610,1010,o),
(622,1020,o),
(641,1020,cs),
(697,1020,ls),
(729,1020,o),
(760,986,o),
(754,958,qs),
(747,928,o),
(728,914,qs),
(719,907,ls),
(695,890,o),
(672,880,o),
(646,880,cs)
);
},
{
closed = 1;
nodes = (
(308,780,o),
(304,796,o),
(342,827,cs),
(418,890,ls),
(442,910,o),
(468,920,o),
(496,920,cs),
(524,920,o),
(545,910,o),
(561,890,cs),
(610,828,ls),
(635,796,o),
(625,780,o),
(580,780,cs),
(557,780,o),
(540,788,o),
(527,804,cs),
(505,830,ls),
(490,849,o),
(470,849,o),
(447,830,cs),
(414,803,ls),
(395,788,o),
(374,780,o),
(352,780,cs)
);
}
);
width = 600;
},
{
layerId = "F8E4993A-289F-423E-A261-7F0C3E35DC2E";
shapes = (
{
closed = 1;
nodes = (
(487,196,ls),
(486,202,o),
(481,206,o),
(474,206,cs),
(214,206,ls),
(207,206,o),
(199,202,o),
(196,196,cs),
(102,9,ls),
(95,-4,o),
(86,-10,o),
(73,-10,cs),
(56,-10,o),
(48,-2,o),
(51,13,cs),
(52,17,o),
(54,22,o),
(56,27,c),
(398,701,ls),
(412,727,o),
(430,740,o),
(457,740,cs),
(484,740,o),
(498,728,o),
(500,702,cs),
(557,28,l),
(558,22,o),
(558,17,o),
(557,12,cs),
(553,-3,o),
(542,-10,o),
(526,-10,cs),
(511,-10,o),
(502,-4,o),
(501,9,cs)
);
},
{
closed = 1;
nodes = (
(471,256,ls),
(477,256,o),
(480,258,o),
(481,262,cs),
(481,263,o),
(483,265,o),
(484,266,cs),
(453,653,ls),
(452,663,o),
(446,668,o),
(442,668,cs),
(438,668,o),
(430,663,o),
(425,653,cs),
(230,266,ls),
(229,265,o),
(231,263,o),
(231,262,cs),
(230,258,o),
(231,256,o),
(237,256,cs)
);
},
{
closed = 1;
nodes = (
(635,880,o),
(628,885,o),
(641,897,cs),
(679,933,ls),
(702,954,o),
(704,966,qs),
(708,985,o),
(682,985,qs),
(626,985,ls),
(614,985,o),
(610,991,o),
(612,1003,cs),
(615,1015,o),
(621,1020,o),
(633,1020,cs),
(687,1020,ls),
(719,1020,o),
(749,994,o),
(744,971,qs),
(739,946,o),
(707,915,qs),
(687,897,ls),
(674,885,o),
(660,880,o),
(645,880,cs)
);
},
{
closed = 1;
nodes = (
(327,780,o),
(325,789,o),
(343,806,cs),
(441,897,ls),
(457,912,o),
(476,920,o),
(496,920,cs),
(516,920,o),
(531,912,o),
(541,897,cs),
(600,805,ls),
(611,788,o),
(605,780,o),
(583,780,cs),
(572,780,o),
(564,784,o),
(558,792,cs),
(504,867,ls),
(494,882,o),
(482,882,o),
(464,867,cs),
(381,793,ls),
(371,785,o),
(361,780,o),
(350,780,cs)
);
}
);
width = 600;
}
);
unicode = 7848;
},
{
glyphname = Acircumflextilde;
layers = (
{
layerId = "BA60169A-A75E-4ACC-B9C7-976B0FD777BA";
shapes = (
{
closed = 1;
nodes = (
(444,148,ls),
(445,168,o),
(435,177,o),
(415,177,cs),
(261,177,ls),
(241,177,o),
(227,168,o),
(216,148,cs),
(164,40,ls),
(147,6,o),
(113,-10,o),
(74,-10,cs),
(34,-10,o),
(17,7,o),
(25,43,cs),
(28,56,o),
(34,72,o),
(43,90,cs),
(339,664,ls),
(366,715,o),
(404,740,o),
(457,740,cs),
(510,740,o),
(538,715,o),
(543,664,cs),
(596,96,ls),
(598,79,o),
(597,63,o),
(595,50,cs),
(586,10,o),
(557,-10,o),
(513,-10,cs),
(472,-10,o),
(445,8,o),
(444,44,cs)
);
},
{
closed = 1;
nodes = (
(412,295,ls),
(428,295,o),
(437,301,o),
(440,313,cs),
(440,316,o),
(440,320,o),
(440,324,cs),
(425,518,ls),
(424,528,o),
(419,532,o),
(413,532,cs),
(407,532,o),
(400,528,o),
(395,518,cs),
(299,324,ls),
(297,320,o),
(295,316,o),
(295,313,cs),
(292,301,o),
(299,295,o),
(315,295,cs)
);
},
{
closed = 1;
nodes = (
(328,780,ls),
(283,780,o),
(279,796,o),
(316,829,cs),
(316,829,ls),
(357,866,o),
(403,884,o),
(452,884,cs),
(528,884,ls),
(575,884,o),
(609,867,o),
(634,832,cs),
(634,832,ls),
(658,797,o),
(648,780,o),
(601,780,cs),
(585,780,ls),
(552,780,o),
(526,792,o),
(509,817,cs),
(508,818,ls),
(490,843,o),
(468,843,o),
(440,818,cs),
(435,813,ls),
(409,791,o),
(382,780,o),
(352,780,cs)
);
},
{
closed = 1;
nodes = (
(330,915,o),
(314,938,o),
(335,968,cs),
(345,982,o),
(358,993,qs),
(391,1020,o),
(437,1020,qs),
(465,1020,o),
(506,1009,o),
(537,996,o),
(564,985,o),
(579,985,qs),
(585,985,o),
(591,987,qs),
(610,993,o),
(621,1015,o),
(642,1015,cs),
(681,1015,o),
(696,992,o),
(676,962,cs),
(666,948,o),
(652,937,qs),
(619,910,o),
(573,910,qs),
(545,910,o),
(505,921,o),
(474,934,o),
(446,945,o),
(431,945,qs),
(425,945,o),
(419,943,qs),
(402,935,o),
(387,915,o),
(369,915,cs)
);
}
);
width = 600;
},
{
layerId = "61B1B659-4F4A-4AEF-9EF6-2030D7AB6825";
shapes = (
{
closed = 1;
nodes = (
(472,172,ls),
(470,185,o),
(464,191,o),
(451,191,cs),
(231,191,ls),
(218,191,o),
(208,185,o),
(202,172,cs),
(128,27,ls),
(115,2,o),
(97,-10,o),
(68,-10,cs),
(41,-10,o),
(25,4,o),
(31,33,cs),
(33,42,o),
(37,52,o),
(42,63,c),
(366,684,ls),
(386,722,o),
(417,741,o),
(457,741,cs),
(497,741,o),
(518,722,o),
(522,684,cs),
(584,63,l),
(585,52,o),
(585,42,o),
(583,33,cs),
(577,4,o),
(555,-10,o),
(528,-10,cs),
(499,-10,o),
(485,2,o),
(484,27,cs)
);
},
{
closed = 1;
nodes = (
(443,271,ls),
(453,271,o),
(459,275,o),
(461,283,cs),
(462,285,o),
(462,287,o),
(462,290,cs),
(441,598,ls),
(440,608,o),
(436,612,o),
(431,612,cs),
(425,612,o),
(419,608,o),
(414,598,cs),
(262,290,ls),
(260,287,o),
(259,284,o),
(259,282,cs),
(257,274,o),
(264,271,o),
(272,271,cs)
);
},
{
closed = 1;
nodes = (
(308,780,o),
(305,795,o),
(343,825,cs),
(370,846,ls),
(407,876,o),
(446,890,o),
(489,890,cs),
(489,890,ls),
(532,890,o),
(565,876,o),
(590,846,cs),
(607,826,ls),
(633,795,o),
(624,780,o),
(579,780,cs),
(579,780,ls),
(556,780,o),
(539,788,o),
(525,803,cs),
(505,826,ls),
(488,844,o),
(469,844,o),
(446,826,cs),
(415,802,ls),
(395,787,o),
(374,780,o),
(352,780,cs)
);
},
{
closed = 1;
nodes = (
(344,930,o),
(333,947,o),
(347,970,cs),
(357,986,o),
(371,998,qs),
(400,1021,o),
(442,1020,qs),
(474,1020,o),
(512,1006,o),
(537,987,o),
(560,973,o),
(577,973,qs),
(592,973,o),
(601,982,qs),
(612,992,o),
(624,1010,o),
(640,1010,cs),
(669,1010,o),
(680,993,o),
(666,970,cs),
(657,955,o),
(641,943,qs),
(613,921,o),
(573,920,qs),
(542,920,o),
(503,934,o),
(477,953,o),
(453,967,o),
(436,967,qs),
(421,968,o),
(412,959,qs),
(399,946,o),
(393,930,o),
(373,930,cs)
);
}
);
width = 600;
},
{
layerId = "F8E4993A-289F-423E-A261-7F0C3E35DC2E";
shapes = (
{
closed = 1;
nodes = (
(487,196,ls),
(486,202,o),
(481,206,o),
(474,206,cs),
(214,206,ls),
(207,206,o),
(199,202,o),
(196,196,cs),
(102,9,ls),
(95,-4,o),
(86,-10,o),
(73,-10,cs),
(56,-10,o),
(48,-2,o),
(51,13,cs),
(52,17,o),
(54,22,o),
(56,27,c),
(398,701,ls),
(412,727,o),
(430,740,o),
(457,740,cs),
(484,740,o),
(498,728,o),
(500,702,cs),
(557,28,l),
(558,22,o),
(558,17,o),
(557,12,cs),
(553,-3,o),
(542,-10,o),
(526,-10,cs),
(511,-10,o),
(502,-4,o),
(501,9,cs)
);
},
{
closed = 1;
nodes = (
(471,256,ls),
(477,256,o),
(480,258,o),
(481,262,cs),
(481,263,o),
(483,265,o),
(484,266,cs),
(453,653,ls),
(452,663,o),
(446,668,o),
(442,668,cs),
(438,668,o),
(430,663,o),
(425,653,cs),
(230,266,ls),
(229,265,o),
(231,263,o),
(231,262,cs),
(230,258,o),
(231,256,o),
(237,256,cs)
);
},
{
closed = 1;
nodes = (
(327,780,o),
(326,788,o),
(345,804,cs),
(436,880,ls),
(453,894,o),
(472,901,o),
(492,901,cs),
(492,901,ls),
(512,901,o),
(527,894,o),
(538,880,cs),
(598,803,ls),
(609,787,o),
(605,780,o),
(583,780,cs),
(583,780,ls),
(572,780,o),
(564,784,o),
(557,791,cs),
(503,852,ls),
(491,866,o),
(477,866,o),
(459,852,cs),
(381,792,ls),
(372,784,o),
(361,780,o),
(350,780,cs)
);
},
{
closed = 1;
nodes = (
(354,930,o),
(348,937,o),
(352,950,cs),
(360,981,o),
(384,1000,qs),
(409,1020,o),
(447,1020,qs),
(475,1020,o),
(510,1001,o),
(535,977,o),
(560,958,o),
(579,958,qs),
(609,958,o),
(620,990,qs),
(625,1003,o),
(632,1010,o),
(645,1010,cs),
(659,1010,o),
(664,1003,o),
(660,990,cs),
(653,960,o),
(630,941,qs),
(606,921,o),
(571,920,qs),
(543,920,o),
(508,939,o),
(483,963,o),
(458,982,o),
(439,982,qs),
(403,982,o),
(392,950,qs),
(387,937,o),
(381,930,o),
(368,930,cs)
);
}
);
width = 600;
}
);
unicode = 7850;
},
{
glyphname = Adieresis;
layers = (
{
layerId = "BA60169A-A75E-4ACC-B9C7-976B0FD777BA";
shapes = (
{
closed = 1;
nodes = (
(444,148,ls),
(445,168,o),
(435,177,o),
(415,177,cs),
(261,177,ls),
(241,177,o),
(227,168,o),
(216,148,cs),
(164,40,ls),
(147,6,o),
(113,-10,o),
(74,-10,cs),
(34,-10,o),
(17,7,o),
(25,43,cs),
(28,56,o),
(34,72,o),
(43,90,cs),
(339,664,ls),
(366,715,o),
(404,740,o),
(457,740,cs),
(510,740,o),
(538,715,o),
(543,664,cs),
(596,96,ls),
(598,79,o),
(597,63,o),
(595,50,cs),
(586,10,o),
(557,-10,o),
(513,-10,cs),
(472,-10,o),
(445,8,o),
(444,44,cs)
);
},
{
closed = 1;
nodes = (
(412,295,ls),
(428,295,o),
(437,301,o),
(440,313,cs),
(440,316,o),
(440,320,o),
(440,324,cs),
(425,518,ls),
(424,528,o),
(419,532,o),
(413,532,cs),
(407,532,o),
(400,528,o),
(395,518,cs),
(299,324,ls),
(297,320,o),
(295,316,o),
(295,313,cs),
(292,301,o),
(299,295,o),
(315,295,cs)
);
},
{
closed = 1;
nodes = (
(556,802,o),
(521,844,o),
(529,880,qs),
(537,916,o),
(589,958,o),
(626,958,qs),
(663,958,o),
(697,916,o),
(689,880,qs),
(681,844,o),
(630,802,o),
(593,802,qs)
);
},
{
closed = 1;
nodes = (
(312,802,o),
(277,844,o),
(285,880,qs),
(293,916,o),
(345,958,o),
(382,958,qs),
(419,958,o),
(453,916,o),
(445,880,qs),
(437,844,o),
(386,802,o),
(349,802,qs)
);
}
);
width = 600;
},
{
layerId = "61B1B659-4F4A-4AEF-9EF6-2030D7AB6825";
shapes = (
{
closed = 1;
nodes = (
(472,172,ls),
(470,185,o),
(464,191,o),
(451,191,cs),
(231,191,ls),
(218,191,o),
(208,185,o),
(202,172,cs),
(128,27,ls),
(115,2,o),
(97,-10,o),
(68,-10,cs),
(41,-10,o),
(25,4,o),
(31,33,cs),
(33,42,o),
(37,52,o),
(42,63,c),
(366,684,ls),
(386,722,o),
(417,741,o),
(457,741,cs),
(497,741,o),
(518,722,o),
(522,684,cs),
(584,63,l),
(585,52,o),
(585,42,o),
(583,33,cs),
(577,4,o),
(555,-10,o),
(528,-10,cs),
(499,-10,o),
(485,2,o),
(484,27,cs)
);
},
{
closed = 1;
nodes = (
(443,271,ls),
(453,271,o),
(459,275,o),
(461,283,cs),
(462,285,o),
(462,287,o),
(462,290,cs),
(441,598,ls),
(440,608,o),
(436,612,o),
(431,612,cs),
(425,612,o),
(419,608,o),
(414,598,cs),
(262,290,ls),
(260,287,o),
(259,284,o),
(259,282,cs),
(257,274,o),
(264,271,o),
(272,271,cs)
);
},
{
closed = 1;
nodes = (
(556,817,o),
(528,851,o),
(534,880,qs),
(540,910,o),
(583,945,o),
(612,945,qs),
(641,945,o),
(668,910,o),
(662,880,qs),
(656,851,o),
(614,817,o),
(585,817,qs)
);
},
{
closed = 1;
nodes = (
(334,817,o),
(306,851,o),
(312,880,qs),
(318,910,o),
(361,945,o),
(390,945,qs),
(419,945,o),
(446,910,o),
(440,880,qs),
(434,851,o),
(392,817,o),
(363,817,qs)
);
}
);
width = 600;
},
{
layerId = "F8E4993A-289F-423E-A261-7F0C3E35DC2E";
shapes = (
{
closed = 1;
nodes = (
(487,196,ls),
(486,202,o),
(481,206,o),
(474,206,cs),
(214,206,ls),
(207,206,o),
(199,202,o),
(196,196,cs),
(102,9,ls),
(95,-4,o),
(86,-10,o),
(73,-10,cs),
(56,-10,o),
(48,-2,o),
(51,13,cs),
(52,17,o),
(54,22,o),
(56,27,c),
(398,701,ls),
(412,727,o),
(430,740,o),
(457,740,cs),
(484,740,o),
(498,728,o),
(500,702,cs),
(557,28,l),
(558,22,o),
(558,17,o),
(557,12,cs),
(553,-3,o),
(542,-10,o),
(526,-10,cs),
(511,-10,o),
(502,-4,o),
(501,9,cs)
);
},
{
closed = 1;
nodes = (
(471,256,ls),
(477,256,o),
(480,258,o),
(481,262,cs),
(481,263,o),
(483,265,o),
(484,266,cs),
(453,653,ls),
(452,663,o),
(446,668,o),
(442,668,cs),
(438,668,o),
(430,663,o),
(425,653,cs),
(230,266,ls),
(229,265,o),
(231,263,o),
(231,262,cs),
(230,258,o),
(231,256,o),
(237,256,cs)
);
},
{
closed = 1;
nodes = (
(561,825,o),
(539,855,o),
(544,880,qs),
(549,905,o),
(585,935,o),
(609,935,qs),
(632,935,o),
(653,905,o),
(648,880,qs),
(643,855,o),
(608,825,o),
(585,825,qs)
);
},
{
closed = 1;
nodes = (
(347,825,o),
(325,855,o),
(330,880,qs),
(335,905,o),
(371,935,o),
(394,935,qs),
(417,935,o),
(439,905,o),
(434,880,qs),
(429,855,o),
(393,825,o),
(370,825,qs)
);
}
);
width = 600;
}
);
unicode = 196;
},
{
glyphname = Adotbelow;
layers = (
{
layerId = "BA60169A-A75E-4ACC-B9C7-976B0FD777BA";
shapes = (
{
closed = 1;
nodes = (
(444,148,ls),
(445,168,o),
(435,177,o),
(415,177,cs),
(261,177,ls),
(241,177,o),
(227,168,o),
(216,148,cs),
(164,40,ls),
(147,6,o),
(113,-10,o),
(74,-10,cs),
(34,-10,o),
(17,7,o),
(25,43,cs),
(28,56,o),
(34,72,o),
(43,90,cs),
(339,664,ls),
(366,715,o),
(404,740,o),
(457,740,cs),
(510,740,o),
(538,715,o),
(543,664,cs),
(596,96,ls),
(598,79,o),
(597,63,o),
(595,50,cs),
(586,10,o),
(557,-10,o),
(513,-10,cs),
(472,-10,o),
(445,8,o),
(444,44,cs)
);
},
{
closed = 1;
nodes = (
(412,295,ls),
(428,295,o),
(437,301,o),
(440,313,cs),
(440,316,o),
(440,320,o),
(440,324,cs),
(425,518,ls),
(424,528,o),
(419,532,o),
(413,532,cs),
(407,532,o),
(400,528,o),
(395,518,cs),
(299,324,ls),
(297,320,o),
(295,316,o),
(295,313,cs),
(292,301,o),
(299,295,o),
(315,295,cs)
);
},
{
closed = 1;
nodes = (
(209,-233,o),
(169,-191,o),
(177,-155,qs),
(185,-119,o),
(243,-77,o),
(284,-77,qs),
(325,-77,o),
(365,-119,o),
(357,-155,qs),
(349,-191,o),
(291,-233,o),
(250,-233,qs)
);
}
);
width = 600;
},
{
layerId = "61B1B659-4F4A-4AEF-9EF6-2030D7AB6825";
shapes = (
{
closed = 1;
nodes = (
(472,172,ls),
(470,185,o),
(464,191,o),
(451,191,cs),
(231,191,ls),
(218,191,o),
(208,185,o),
(202,172,cs),
(128,27,ls),
(115,2,o),
(97,-10,o),
(68,-10,cs),
(41,-10,o),
(25,4,o),
(31,33,cs),
(33,42,o),
(37,52,o),
(42,63,c),
(366,684,ls),
(386,722,o),
(417,741,o),
(457,741,cs),
(497,741,o),
(518,722,o),
(522,684,cs),
(584,63,l),
(585,52,o),
(585,42,o),
(583,33,cs),
(577,4,o),
(555,-10,o),
(528,-10,cs),
(499,-10,o),
(485,2,o),
(484,27,cs)
);
},
{
closed = 1;
nodes = (
(443,271,ls),
(453,271,o),
(459,275,o),
(461,283,cs),
(462,285,o),
(462,287,o),
(462,290,cs),
(441,598,ls),
(440,608,o),
(436,612,o),
(431,612,cs),
(425,612,o),
(419,608,o),
(414,598,cs),
(262,290,ls),
(260,287,o),
(259,284,o),
(259,282,cs),
(257,274,o),
(264,271,o),
(272,271,cs)
);
},
{
closed = 1;
nodes = (
(222,-213,o),
(191,-179,o),
(197,-150,qs),
(203,-120,o),
(249,-85,o),
(282,-85,qs),
(315,-85,o),
(345,-120,o),
(339,-150,qs),
(333,-179,o),
(288,-213,o),
(255,-213,qs)
);
}
);
width = 600;
},
{
layerId = "F8E4993A-289F-423E-A261-7F0C3E35DC2E";
shapes = (
{
closed = 1;
nodes = (
(487,196,ls),
(486,202,o),
(481,206,o),
(474,206,cs),
(214,206,ls),
(207,206,o),
(199,202,o),
(196,196,cs),
(102,9,ls),
(95,-4,o),
(86,-10,o),
(73,-10,cs),
(56,-10,o),
(48,-2,o),
(51,13,cs),
(52,17,o),
(54,22,o),
(56,27,c),
(398,701,ls),
(412,727,o),
(430,740,o),
(457,740,cs),
(484,740,o),
(498,728,o),
(500,702,cs),
(557,28,l),
(558,22,o),
(558,17,o),
(557,12,cs),
(553,-3,o),
(542,-10,o),
(526,-10,cs),
(511,-10,o),
(502,-4,o),
(501,9,cs)
);
},
{
closed = 1;
nodes = (
(471,256,ls),
(477,256,o),
(480,258,o),
(481,262,cs),
(481,263,o),
(483,265,o),
(484,266,cs),
(453,653,ls),
(452,663,o),
(446,668,o),
(442,668,cs),
(438,668,o),
(430,663,o),
(425,653,cs),
(230,266,ls),
(229,265,o),
(231,263,o),
(231,262,cs),
(230,258,o),
(231,256,o),
(237,256,cs)
);
},
{
closed = 1;
nodes = (
(230,-205,o),
(205,-175,o),
(210,-150,qs),
(215,-125,o),
(254,-95,o),
(280,-95,qs),
(306,-95,o),
(331,-125,o),
(326,-150,qs),
(321,-175,o),
(282,-205,o),
(256,-205,qs)
);
}
);
width = 600;
}
);
unicode = 7840;
},
{
glyphname = Agrave;
layers = (
{
layerId = "BA60169A-A75E-4ACC-B9C7-976B0FD777BA";
shapes = (
{
closed = 1;
nodes = (
(444,148,ls),
(445,168,o),
(435,177,o),
(415,177,cs),
(261,177,ls),
(241,177,o),
(227,168,o),
(216,148,cs),
(164,40,ls),
(147,6,o),
(113,-10,o),
(74,-10,cs),
(34,-10,o),
(17,7,o),
(25,43,cs),
(28,56,o),
(34,72,o),
(43,90,cs),
(339,664,ls),
(366,715,o),
(404,740,o),
(457,740,cs),
(510,740,o),
(538,715,o),
(543,664,cs),
(596,96,ls),
(598,79,o),
(597,63,o),
(595,50,cs),
(586,10,o),
(557,-10,o),
(513,-10,cs),
(472,-10,o),
(445,8,o),
(444,44,cs)
);
},
{
closed = 1;
nodes = (
(412,295,ls),
(428,295,o),
(437,301,o),
(440,313,cs),
(440,316,o),
(440,320,o),
(440,324,cs),
(425,518,ls),
(424,528,o),
(419,532,o),
(413,532,cs),
(407,532,o),
(400,528,o),
(395,518,cs),
(299,324,ls),
(297,320,o),
(295,316,o),
(295,313,cs),
(292,301,o),
(299,295,o),
(315,295,cs)
);
},
{
closed = 1;
nodes = (
(427,810,o),
(401,820,o),
(385,848,cs),
(370,873,ls),
(335,929,o),
(361,950,o),
(427,950,cs),
(471,950,o),
(494,937,o),
(508,910,cs),
(519,890,ls),
(548,836,o),
(529,810,o),
(462,810,cs)
);
}
);
width = 600;
},
{
layerId = "61B1B659-4F4A-4AEF-9EF6-2030D7AB6825";
shapes = (
{
closed = 1;
nodes = (
(472,172,ls),
(470,185,o),
(464,191,o),
(451,191,cs),
(231,191,ls),
(218,191,o),
(208,185,o),
(202,172,cs),
(128,27,ls),
(115,2,o),
(97,-10,o),
(68,-10,cs),
(41,-10,o),
(25,4,o),
(31,33,cs),
(33,42,o),
(37,52,o),
(42,63,c),
(366,684,ls),
(386,722,o),
(417,741,o),
(457,741,cs),
(497,741,o),
(518,722,o),
(522,684,cs),
(584,63,l),
(585,52,o),
(585,42,o),
(583,33,cs),
(577,4,o),
(555,-10,o),
(528,-10,cs),
(499,-10,o),
(485,2,o),
(484,27,cs)
);
},
{
closed = 1;
nodes = (
(443,271,ls),
(453,271,o),
(459,275,o),
(461,283,cs),
(462,285,o),
(462,287,o),
(462,290,cs),
(441,598,ls),
(440,608,o),
(436,612,o),
(431,612,cs),
(425,612,o),
(419,608,o),
(414,598,cs),
(262,290,ls),
(260,287,o),
(259,284,o),
(259,282,cs),
(257,274,o),
(264,271,o),
(272,271,cs)
);
},
{
closed = 1;
nodes = (
(450,810,o),
(434,818,o),
(424,834,cs),
(385,898,ls),
(364,933,o),
(376,950,o),
(421,950,cs),
(443,950,o),
(459,942,o),
(469,924,cs),
(506,860,ls),
(525,827,o),
(513,810,o),
(471,810,cs)
);
}
);
width = 600;
},
{
layerId = "F8E4993A-289F-423E-A261-7F0C3E35DC2E";
shapes = (
{
closed = 1;
nodes = (
(487,196,ls),
(486,202,o),
(481,206,o),
(474,206,cs),
(214,206,ls),
(207,206,o),
(199,202,o),
(196,196,cs),
(102,9,ls),
(95,-4,o),
(86,-10,o),
(73,-10,cs),
(56,-10,o),
(48,-2,o),
(51,13,cs),
(52,17,o),
(54,22,o),
(56,27,c),
(398,701,ls),
(412,727,o),
(430,740,o),
(457,740,cs),
(484,740,o),
(498,728,o),
(500,702,cs),
(557,28,l),
(558,22,o),
(558,17,o),
(557,12,cs),
(553,-3,o),
(542,-10,o),
(526,-10,cs),
(511,-10,o),
(502,-4,o),
(501,9,cs)
);
},
{
closed = 1;
nodes = (
(471,256,ls),
(477,256,o),
(480,258,o),
(481,262,cs),
(481,263,o),
(483,265,o),
(484,266,cs),
(453,653,ls),
(452,663,o),
(446,668,o),
(442,668,cs),
(438,668,o),
(430,663,o),
(425,653,cs),
(230,266,ls),
(229,265,o),
(231,263,o),
(231,262,cs),
(230,258,o),
(231,256,o),
(237,256,cs)
);
},
{
closed = 1;
nodes = (
(461,810,o),
(453,814,o),
(447,824,cs),
(391,918,ls),
(379,939,o),
(387,950,o),
(414,950,cs),
(428,950,o),
(437,945,o),
(443,934,cs),
(494,839,ls),
(505,819,o),
(498,810,o),
(473,810,cs)
);
}
);
width = 600;
}
);
unicode = 192;
},
{
glyphname = Ahookabove;
layers = (
{
layerId = "BA60169A-A75E-4ACC-B9C7-976B0FD777BA";
shapes = (
{
closed = 1;
nodes = (
(444,148,ls),
(445,168,o),
(435,177,o),
(415,177,cs),
(261,177,ls),
(241,177,o),
(227,168,o),
(216,148,cs),
(164,40,ls),
(147,6,o),
(113,-10,o),
(74,-10,cs),
(34,-10,o),
(17,7,o),
(25,43,cs),
(28,56,o),
(34,72,o),
(43,90,cs),
(339,664,ls),
(366,715,o),
(404,740,o),
(457,740,cs),
(510,740,o),
(538,715,o),
(543,664,cs),
(596,96,ls),
(598,79,o),
(597,63,o),
(595,50,cs),
(586,10,o),
(557,-10,o),
(513,-10,cs),
(472,-10,o),
(445,8,o),
(444,44,cs)
);
},
{
closed = 1;
nodes = (
(412,295,ls),
(428,295,o),
(437,301,o),
(440,313,cs),
(440,316,o),
(440,320,o),
(440,324,cs),
(425,518,ls),
(424,528,o),
(419,532,o),
(413,532,cs),
(407,532,o),
(400,528,o),
(395,518,cs),
(299,324,ls),
(297,320,o),
(295,316,o),
(295,313,cs),
(292,301,o),
(299,295,o),
(315,295,cs)
);
},
{
closed = 1;
nodes = (
(446,796,o),
(429,817,o),
(471,852,cs),
(474,854,ls),
(494,871,o),
(495,883,qs),
(496,900,o),
(471,900,qs),
(433,900,ls),
(405,900,o),
(395,915,o),
(400,943,cs),
(406,971,o),
(423,985,o),
(451,985,cs),
(514,985,ls),
(561,985,o),
(608,938,o),
(601,899,qs),
(594,864,o),
(566,838,qs),
(551,824,ls),
(531,805,o),
(510,796,o),
(485,796,cs)
);
}
);
width = 600;
},
{
layerId = "61B1B659-4F4A-4AEF-9EF6-2030D7AB6825";
shapes = (
{
closed = 1;
nodes = (
(472,172,ls),
(470,185,o),
(464,191,o),
(451,191,cs),
(231,191,ls),
(218,191,o),
(208,185,o),
(202,172,cs),
(128,27,ls),
(115,2,o),
(97,-10,o),
(68,-10,cs),
(41,-10,o),
(25,4,o),
(31,33,cs),
(33,42,o),
(37,52,o),
(42,63,c),
(366,684,ls),
(386,722,o),
(417,741,o),
(457,741,cs),
(497,741,o),
(518,722,o),
(522,684,cs),
(584,63,l),
(585,52,o),
(585,42,o),
(583,33,cs),
(577,4,o),
(555,-10,o),
(528,-10,cs),
(499,-10,o),
(485,2,o),
(484,27,cs)
);
},
{
closed = 1;
nodes = (
(443,271,ls),
(453,271,o),
(459,275,o),
(461,283,cs),
(462,285,o),
(462,287,o),
(462,290,cs),
(441,598,ls),
(440,608,o),
(436,612,o),
(431,612,cs),
(425,612,o),
(419,608,o),
(414,598,cs),
(262,290,ls),
(260,287,o),
(259,284,o),
(259,282,cs),
(257,274,o),
(264,271,o),
(272,271,cs)
);
},
{
closed = 1;
nodes = (
(457,800,o),
(442,814,o),
(472,844,cs),
(491,863,l),
(510,882,o),
(512,895,qs),
(517,915,o),
(485,915,qs),
(437,915,ls),
(415,915,o),
(407,926,o),
(412,948,cs),
(416,970,o),
(428,980,o),
(450,980,cs),
(523,980,ls),
(561,980,o),
(600,941,o),
(593,906,qs),
(586,874,o),
(564,852,qs),
(535,822,ls),
(520,807,o),
(504,800,o),
(485,800,cs)
);
}
);
width = 600;
},
{
layerId = "F8E4993A-289F-423E-A261-7F0C3E35DC2E";
shapes = (
{
closed = 1;
nodes = (
(487,196,ls),
(486,202,o),
(481,206,o),
(474,206,cs),
(214,206,ls),
(207,206,o),
(199,202,o),
(196,196,cs),
(102,9,ls),
(95,-4,o),
(86,-10,o),
(73,-10,cs),
(56,-10,o),
(48,-2,o),
(51,13,cs),
(52,17,o),
(54,22,o),
(56,27,c),
(398,701,ls),
(412,727,o),
(430,740,o),
(457,740,cs),
(484,740,o),
(498,728,o),
(500,702,cs),
(557,28,l),
(558,22,o),
(558,17,o),
(557,12,cs),
(553,-3,o),
(542,-10,o),
(526,-10,cs),
(511,-10,o),
(502,-4,o),
(501,9,cs)
);
},
{
closed = 1;
nodes = (
(471,256,ls),
(477,256,o),
(480,258,o),
(481,262,cs),
(481,263,o),
(483,265,o),
(484,266,cs),
(453,653,ls),
(452,663,o),
(446,668,o),
(442,668,cs),
(438,668,o),
(430,663,o),
(425,653,cs),
(230,266,ls),
(229,265,o),
(231,263,o),
(231,262,cs),
(230,258,o),
(231,256,o),
(237,256,cs)
);
},
{
closed = 1;
nodes = (
(460,800,o),
(452,808,o),
(469,826,cs),
(516,876,ls),
(538,900,o),
(541,912,qs),
(547,940,o),
(510,940,qs),
(439,940,ls),
(429,940,o),
(423,946,o),
(426,958,cs),
(428,970,o),
(436,975,o),
(446,975,cs),
(517,975,ls),
(552,975,o),
(587,943,o),
(582,916,qs),
(576,890,o),
(551,863,qs),
(505,813,ls),
(497,804,o),
(488,800,o),
(477,800,cs)
);
}
);
width = 600;
}
);
unicode = 7842;
},
{
glyphname = Amacron;
layers = (
{
layerId = "BA60169A-A75E-4ACC-B9C7-976B0FD777BA";
shapes = (
{
closed = 1;
nodes = (
(444,148,ls),
(445,168,o),
(435,177,o),
(415,177,cs),
(261,177,ls),
(241,177,o),
(227,168,o),
(216,148,cs),
(164,40,ls),
(147,6,o),
(113,-10,o),
(74,-10,cs),
(34,-10,o),
(17,7,o),
(25,43,cs),
(28,56,o),
(34,72,o),
(43,90,cs),
(339,664,ls),
(366,715,o),
(404,740,o),
(457,740,cs),
(510,740,o),
(538,715,o),
(543,664,cs),
(596,96,ls),
(598,79,o),
(597,63,o),
(595,50,cs),
(586,10,o),
(557,-10,o),
(513,-10,cs),
(472,-10,o),
(445,8,o),
(444,44,cs)
);
},
{
closed = 1;
nodes = (
(412,295,ls),
(428,295,o),
(437,301,o),
(440,313,cs),
(440,316,o),
(440,320,o),
(440,324,cs),
(425,518,ls),
(424,528,o),
(419,532,o),
(413,532,cs),
(407,532,o),
(400,528,o),
(395,518,cs),
(299,324,ls),
(297,320,o),
(295,316,o),
(295,313,cs),
(292,301,o),
(299,295,o),
(315,295,cs)
);
},
{
closed = 1;
nodes = (
(349,820,ls),
(312,820,o),
(298,838,o),
(306,875,cs),
(314,912,o),
(336,930,o),
(373,930,cs),
(623,930,ls),
(660,930,o),
(674,912,o),
(666,875,cs),
(658,838,o),
(636,820,o),
(599,820,cs)
);
}
);
width = 600;
},
{
layerId = "61B1B659-4F4A-4AEF-9EF6-2030D7AB6825";
shapes = (
{
closed = 1;
nodes = (
(472,172,ls),
(470,185,o),
(464,191,o),
(451,191,cs),
(231,191,ls),
(218,191,o),
(208,185,o),
(202,172,cs),
(128,27,ls),
(115,2,o),
(97,-10,o),
(68,-10,cs),
(41,-10,o),
(25,4,o),
(31,33,cs),
(33,42,o),
(37,52,o),
(42,63,c),
(366,684,ls),
(386,722,o),
(417,741,o),
(457,741,cs),
(497,741,o),
(518,722,o),
(522,684,cs),
(584,63,l),
(585,52,o),
(585,42,o),
(583,33,cs),
(577,4,o),
(555,-10,o),
(528,-10,cs),
(499,-10,o),
(485,2,o),
(484,27,cs)
);
},
{
closed = 1;
nodes = (
(443,271,ls),
(453,271,o),
(459,275,o),
(461,283,cs),
(462,285,o),
(462,287,o),
(462,290,cs),
(441,598,ls),
(440,608,o),
(436,612,o),
(431,612,cs),
(425,612,o),
(419,608,o),
(414,598,cs),
(262,290,ls),
(260,287,o),
(259,284,o),
(259,282,cs),
(257,274,o),
(264,271,o),
(272,271,cs)
);
},
{
closed = 1;
nodes = (
(356,840,ls),
(331,840,o),
(321,853,o),
(327,878,cs),
(332,903,o),
(347,915,o),
(372,915,cs),
(617,915,ls),
(642,915,o),
(652,903,o),
(647,878,cs),
(641,853,o),
(626,840,o),
(601,840,cs)
);
}
);
width = 600;
},
{
layerId = "F8E4993A-289F-423E-A261-7F0C3E35DC2E";
shapes = (
{
closed = 1;
nodes = (
(487,196,ls),
(486,202,o),
(481,206,o),
(474,206,cs),
(214,206,ls),
(207,206,o),
(199,202,o),
(196,196,cs),
(102,9,ls),
(95,-4,o),
(86,-10,o),
(73,-10,cs),
(56,-10,o),
(48,-2,o),
(51,13,cs),
(52,17,o),
(54,22,o),
(56,27,c),
(398,701,ls),
(412,727,o),
(430,740,o),
(457,740,cs),
(484,740,o),
(498,728,o),
(500,702,cs),
(557,28,l),
(558,22,o),
(558,17,o),
(557,12,cs),
(553,-3,o),
(542,-10,o),
(526,-10,cs),
(511,-10,o),
(502,-4,o),
(501,9,cs)
);
},
{
closed = 1;
nodes = (
(471,256,ls),
(477,256,o),
(480,258,o),
(481,262,cs),
(481,263,o),
(483,265,o),
(484,266,cs),
(453,653,ls),
(452,663,o),
(446,668,o),
(442,668,cs),
(438,668,o),
(430,663,o),
(425,653,cs),
(230,266,ls),
(229,265,o),
(231,263,o),
(231,262,cs),
(230,258,o),
(231,256,o),
(237,256,cs)
);
},
{
closed = 1;
nodes = (
(363,854,ls),
(349,854,o),
(343,862,o),
(346,876,cs),
(349,890,o),
(358,897,o),
(372,897,cs),
(610,897,ls),
(624,897,o),
(629,890,o),
(626,876,cs),
(623,862,o),
(615,854,o),
(601,854,cs)
);
}
);
width = 600;
}
);
unicode = 256;
},
{
glyphname = Aogonek;
layers = (
{
layerId = "BA60169A-A75E-4ACC-B9C7-976B0FD777BA";
shapes = (
{
closed = 1;
nodes = (
(444,148,ls),
(445,168,o),
(435,177,o),
(415,177,cs),
(261,177,ls),
(241,177,o),
(227,168,o),
(216,148,cs),
(164,40,ls),
(147,6,o),
(113,-10,o),
(74,-10,cs),
(34,-10,o),
(17,7,o),
(25,43,cs),
(28,56,o),
(34,72,o),
(43,90,cs),
(339,664,ls),
(366,715,o),
(404,740,o),
(457,740,cs),
(510,740,o),
(538,715,o),
(543,664,cs),
(596,96,ls),
(598,79,o),
(597,63,o),
(595,50,cs),
(586,10,o),
(557,-10,o),
(513,-10,cs),
(472,-10,o),
(445,8,o),
(444,44,cs)
);
},
{
closed = 1;
nodes = (
(412,295,ls),
(428,295,o),
(437,301,o),
(440,313,cs),
(440,316,o),
(440,320,o),
(440,324,cs),
(425,518,ls),
(424,528,o),
(419,532,o),
(413,532,cs),
(407,532,o),
(400,528,o),
(395,518,cs),
(299,324,ls),
(297,320,o),
(295,316,o),
(295,313,cs),
(292,301,o),
(299,295,o),
(315,295,cs)
);
},
{
closed = 1;
nodes = (
(535,-120,ls),
(570,-120,o),
(584,-138,o),
(576,-173,cs),
(569,-208,o),
(547,-225,o),
(512,-225,cs),
(457,-225,ls),
(396,-225,o),
(339,-164,o),
(350,-115,qs),
(357,-80,o),
(432,-11,o),
(487,11,q),
(573,11,l),
(535,-18,ls),
(512,-36,o),
(483,-70,o),
(480,-83,qs),
(477,-98,o),
(496,-120,o),
(518,-120,qs)
);
}
);
width = 600;
},
{
layerId = "61B1B659-4F4A-4AEF-9EF6-2030D7AB6825";
shapes = (
{
closed = 1;
nodes = (
(472,172,ls),
(470,185,o),
(464,191,o),
(451,191,cs),
(231,191,ls),
(218,191,o),
(208,185,o),
(202,172,cs),
(128,27,ls),
(115,2,o),
(97,-10,o),
(68,-10,cs),
(41,-10,o),
(25,4,o),
(31,33,cs),
(33,42,o),
(37,52,o),
(42,63,c),
(366,684,ls),
(386,722,o),
(417,741,o),
(457,741,cs),
(497,741,o),
(518,722,o),
(522,684,cs),
(584,63,l),
(585,52,o),
(585,42,o),
(583,33,cs),
(577,4,o),
(555,-10,o),
(528,-10,cs),
(499,-10,o),
(485,2,o),
(484,27,cs)
);
},
{
closed = 1;
nodes = (
(443,271,ls),
(453,271,o),
(459,275,o),
(461,283,cs),
(462,285,o),
(462,287,o),
(462,290,cs),
(441,598,ls),
(440,608,o),
(436,612,o),
(431,612,cs),
(425,612,o),
(419,608,o),
(414,598,cs),
(262,290,ls),
(260,287,o),
(259,284,o),
(259,282,cs),
(257,274,o),
(264,271,o),
(272,271,cs)
);
},
{
closed = 1;
nodes = (
(549,-143,ls),
(569,-143,o),
(576,-153,o),
(572,-173,cs),
(568,-193,o),
(556,-203,o),
(536,-203,cs),
(488,-203,ls),
(433,-203,o),
(377,-150,o),
(386,-110,qs),
(392,-81,o),
(442,-23,o),
(496,10,q),
(571,10,l),
(558,1,ls),
(518,-27,o),
(479,-72,o),
(474,-93,qs),
(470,-115,o),
(494,-143,o),
(519,-143,qs)
);
}
);
width = 600;
},
{
layerId = "F8E4993A-289F-423E-A261-7F0C3E35DC2E";
shapes = (
{
closed = 1;
nodes = (
(487,196,ls),
(486,202,o),
(481,206,o),
(474,206,cs),
(214,206,ls),
(207,206,o),
(199,202,o),
(196,196,cs),
(102,9,ls),
(95,-4,o),
(86,-10,o),
(73,-10,cs),
(56,-10,o),
(48,-2,o),
(51,13,cs),
(52,17,o),
(54,22,o),
(56,27,c),
(398,701,ls),
(412,727,o),
(430,740,o),
(457,740,cs),
(484,740,o),
(498,728,o),
(500,702,cs),
(557,28,l),
(558,22,o),
(558,17,o),
(557,12,cs),
(553,-3,o),
(542,-10,o),
(526,-10,cs),
(511,-10,o),
(502,-4,o),
(501,9,cs)
);
},
{
closed = 1;
nodes = (
(471,256,ls),
(477,256,o),
(480,258,o),
(481,262,cs),
(481,263,o),
(483,265,o),
(484,266,cs),
(453,653,ls),
(452,663,o),
(446,668,o),
(442,668,cs),
(438,668,o),
(430,663,o),
(425,653,cs),
(230,266,ls),
(229,265,o),
(231,263,o),
(231,262,cs),
(230,258,o),
(231,256,o),
(237,256,cs)
);
},
{
closed = 1;
nodes = (
(542,-153,ls),
(556,-153,o),
(562,-160,o),
(559,-174,cs),
(556,-188,o),
(548,-195,o),
(534,-195,cs),
(482,-195,ls),
(441,-195,o),
(402,-152,o),
(410,-115,qs),
(416,-84,o),
(474,-18,o),
(518,10,q),
(555,10,l),
(542,0,l),
(508,-27,o),
(464,-82,o),
(459,-103,qs),
(454,-126,o),
(475,-153,o),
(499,-153,qs)
);
}
);
width = 600;
}
);
unicode = 260;
},
{
glyphname = Aring;
layers = (
{
layerId = "BA60169A-A75E-4ACC-B9C7-976B0FD777BA";
shapes = (
{
closed = 1;
nodes = (
(444,148,ls),
(445,168,o),
(435,177,o),
(415,177,cs),
(261,177,ls),
(241,177,o),
(227,168,o),
(216,148,cs),
(164,40,ls),
(147,6,o),
(113,-10,o),
(74,-10,cs),
(34,-10,o),
(17,7,o),
(25,43,cs),
(28,56,o),
(34,72,o),
(43,90,cs),
(339,664,ls),
(366,715,o),
(404,740,o),
(457,740,cs),
(510,740,o),
(538,715,o),
(543,664,cs),
(596,96,ls),
(598,79,o),
(597,63,o),
(595,50,cs),
(586,10,o),
(557,-10,o),
(513,-10,cs),
(472,-10,o),
(445,8,o),
(444,44,cs)
);
},
{
closed = 1;
nodes = (
(412,295,ls),
(428,295,o),
(437,301,o),
(440,313,cs),
(440,316,o),
(440,320,o),
(440,324,cs),
(425,518,ls),
(424,528,o),
(419,532,o),
(413,532,cs),
(407,532,o),
(400,528,o),
(395,518,cs),
(299,324,ls),
(297,320,o),
(295,316,o),
(295,313,cs),
(292,301,o),
(299,295,o),
(315,295,cs)
);
},
{
closed = 1;
nodes = (
(397,753,o),
(335,823,o),
(347,880,qs),
(359,937,o),
(451,1007,o),
(514,1007,qs),
(577,1007,o),
(639,937,o),
(627,880,qs),
(615,823,o),
(523,753,o),
(460,753,qs)
);
},
{
closed = 1;
nodes = (
(502,823,o),
(542,855,o),
(547,881,qs),
(553,906,o),
(526,937,o),
(499,937,qs),
(472,937,o),
(433,906,o),
(427,880,qs),
(422,855,o),
(448,823,o),
(475,823,qs)
);
}
);
width = 600;
},
{
layerId = "61B1B659-4F4A-4AEF-9EF6-2030D7AB6825";
shapes = (
{
closed = 1;
nodes = (
(472,172,ls),
(470,185,o),
(464,191,o),
(451,191,cs),
(231,191,ls),
(218,191,o),
(208,185,o),
(202,172,cs),
(128,27,ls),
(115,2,o),
(97,-10,o),
(68,-10,cs),
(41,-10,o),
(25,4,o),
(31,33,cs),
(33,42,o),
(37,52,o),
(42,63,c),
(366,684,ls),
(386,722,o),
(417,741,o),
(457,741,cs),
(497,741,o),
(518,722,o),
(522,684,cs),
(584,63,l),
(585,52,o),
(585,42,o),
(583,33,cs),
(577,4,o),
(555,-10,o),
(528,-10,cs),
(499,-10,o),
(485,2,o),
(484,27,cs)
);
},
{
closed = 1;
nodes = (
(443,271,ls),
(453,271,o),
(459,275,o),
(461,283,cs),
(462,285,o),
(462,287,o),
(462,290,cs),
(441,598,ls),
(440,608,o),
(436,612,o),
(431,612,cs),
(425,612,o),
(419,608,o),
(414,598,cs),
(262,290,ls),
(260,287,o),
(259,284,o),
(259,282,cs),
(257,274,o),
(264,271,o),
(272,271,cs)
);
},
{
closed = 1;
nodes = (
(409,766,o),
(356,829,o),
(367,880,qs),
(378,931,o),
(457,994,o),
(511,994,qs),
(565,994,o),
(618,931,o),
(607,880,qs),
(596,829,o),
(517,766,o),
(463,766,qs)
);
},
{
closed = 1;
nodes = (
(501,819,o),
(541,852,o),
(547,880,qs),
(553,908,o),
(527,942,o),
(500,942,qs),
(473,942,o),
(433,908,o),
(427,880,qs),
(421,852,o),
(447,819,o),
(474,819,qs)
);
}
);
width = 600;
},
{
layerId = "F8E4993A-289F-423E-A261-7F0C3E35DC2E";
shapes = (
{
closed = 1;
nodes = (
(487,196,ls),
(486,202,o),
(481,206,o),
(474,206,cs),
(214,206,ls),
(207,206,o),
(199,202,o),
(196,196,cs),
(102,9,ls),
(95,-4,o),
(86,-10,o),
(73,-10,cs),
(56,-10,o),
(48,-2,o),
(51,13,cs),
(52,17,o),
(54,22,o),
(56,27,c),
(398,701,ls),
(412,727,o),
(430,740,o),
(457,740,cs),
(484,740,o),
(498,728,o),
(500,702,cs),
(557,28,l),
(558,22,o),
(558,17,o),
(557,12,cs),
(553,-3,o),
(542,-10,o),
(526,-10,cs),
(511,-10,o),
(502,-4,o),
(501,9,cs)
);
},
{
closed = 1;
nodes = (
(471,256,ls),
(477,256,o),
(480,258,o),
(481,262,cs),
(481,263,o),
(483,265,o),
(484,266,cs),
(453,653,ls),
(452,663,o),
(446,668,o),
(442,668,cs),
(438,668,o),
(430,663,o),
(425,653,cs),
(230,266,ls),
(229,265,o),
(231,263,o),
(231,262,cs),
(230,258,o),
(231,256,o),
(237,256,cs)
);
},
{
closed = 1;
nodes = (
(420,780,o),
(373,835,o),
(382,880,qs),
(392,925,o),
(462,980,o),
(509,980,qs),
(556,980,o),
(602,925,o),
(592,880,qs),
(583,835,o),
(514,780,o),
(467,780,qs)
);
},
{
closed = 1;
nodes = (
(502,815,o),
(546,851,o),
(552,880,qs),
(558,909,o),
(530,945,o),
(501,945,qs),
(472,945,o),
(428,909,o),
(422,880,qs),
(416,851,o),
(444,815,o),
(473,815,qs)
);
}
);
width = 600;
}
);
unicode = 197;
},
{
glyphname = Atilde;
layers = (
{
layerId = "BA60169A-A75E-4ACC-B9C7-976B0FD777BA";
shapes = (
{
closed = 1;
nodes = (
(444,148,ls),
(445,168,o),
(435,177,o),
(415,177,cs),
(261,177,ls),
(241,177,o),
(227,168,o),
(216,148,cs),
(164,40,ls),
(147,6,o),
(113,-10,o),
(74,-10,cs),
(34,-10,o),
(17,7,o),
(25,43,cs),
(28,56,o),
(34,72,o),
(43,90,cs),
(339,664,ls),
(366,715,o),
(404,740,o),
(457,740,cs),
(510,740,o),
(538,715,o),
(543,664,cs),
(596,96,ls),
(598,79,o),
(597,63,o),
(595,50,cs),
(586,10,o),
(557,-10,o),
(513,-10,cs),
(472,-10,o),
(445,8,o),
(444,44,cs)
);
},
{
closed = 1;
nodes = (
(412,295,ls),
(428,295,o),
(437,301,o),
(440,313,cs),
(440,316,o),
(440,320,o),
(440,324,cs),
(425,518,ls),
(424,528,o),
(419,532,o),
(413,532,cs),
(407,532,o),
(400,528,o),
(395,518,cs),
(299,324,ls),
(297,320,o),
(295,316,o),
(295,313,cs),
(292,301,o),
(299,295,o),
(315,295,cs)
);
},
{
closed = 1;
nodes = (
(368,817,o),
(350,805,o),
(333,805,cs),
(304,805,o),
(293,819,o),
(300,847,cs),
(316,910,o),
(368,960,o),
(434,960,cs),
(520,960,o),
(514,900,o),
(556,900,cs),
(570,900,o),
(579,905,o),
(585,913,cs),
(607,943,o),
(623,955,o),
(640,955,cs),
(669,955,o),
(681,941,o),
(674,913,cs),
(658,850,o),
(607,800,o),
(540,800,cs),
(454,800,o),
(460,860,o),
(418,860,cs),
(405,860,o),
(396,855,o),
(390,847,cs)
);
}
);
width = 600;
},
{
layerId = "61B1B659-4F4A-4AEF-9EF6-2030D7AB6825";
shapes = (
{
closed = 1;
nodes = (
(472,172,ls),
(470,185,o),
(464,191,o),
(451,191,cs),
(231,191,ls),
(218,191,o),
(208,185,o),
(202,172,cs),
(128,27,ls),
(115,2,o),
(97,-10,o),
(68,-10,cs),
(41,-10,o),
(25,4,o),
(31,33,cs),
(33,42,o),
(37,52,o),
(42,63,c),
(366,684,ls),
(386,722,o),
(417,741,o),
(457,741,cs),
(497,741,o),
(518,722,o),
(522,684,cs),
(584,63,l),
(585,52,o),
(585,42,o),
(583,33,cs),
(577,4,o),
(555,-10,o),
(528,-10,cs),
(499,-10,o),
(485,2,o),
(484,27,cs)
);
},
{
closed = 1;
nodes = (
(443,271,ls),
(453,271,o),
(459,275,o),
(461,283,cs),
(462,285,o),
(462,287,o),
(462,290,cs),
(441,598,ls),
(440,608,o),
(436,612,o),
(431,612,cs),
(425,612,o),
(419,608,o),
(414,598,cs),
(262,290,ls),
(260,287,o),
(259,284,o),
(259,282,cs),
(257,274,o),
(264,271,o),
(272,271,cs)
);
},
{
closed = 1;
nodes = (
(379,829,o),
(367,820,o),
(346,820,cs),
(324,820,o),
(317,831,o),
(321,853,cs),
(334,908,o),
(374,945,o),
(431,945,cs),
(514,945,o),
(504,875,o),
(551,875,cs),
(574,875,o),
(583,891,o),
(588,908,cs),
(595,931,o),
(606,940,o),
(627,940,cs),
(649,940,o),
(658,929,o),
(653,907,cs),
(640,852,o),
(600,815,o),
(543,815,cs),
(460,815,o),
(470,885,o),
(423,885,cs),
(401,885,o),
(392,869,o),
(386,852,cs)
);
}
);
width = 600;
},
{
layerId = "F8E4993A-289F-423E-A261-7F0C3E35DC2E";
shapes = (
{
closed = 1;
nodes = (
(487,196,ls),
(486,202,o),
(481,206,o),
(474,206,cs),
(214,206,ls),
(207,206,o),
(199,202,o),
(196,196,cs),
(102,9,ls),
(95,-4,o),
(86,-10,o),
(73,-10,cs),
(56,-10,o),
(48,-2,o),
(51,13,cs),
(52,17,o),
(54,22,o),
(56,27,c),
(398,701,ls),
(412,727,o),
(430,740,o),
(457,740,cs),
(484,740,o),
(498,728,o),
(500,702,cs),
(557,28,l),
(558,22,o),
(558,17,o),
(557,12,cs),
(553,-3,o),
(542,-10,o),
(526,-10,cs),
(511,-10,o),
(502,-4,o),
(501,9,cs)
);
},
{
closed = 1;
nodes = (
(471,256,ls),
(477,256,o),
(480,258,o),
(481,262,cs),
(481,263,o),
(483,265,o),
(484,266,cs),
(453,653,ls),
(452,663,o),
(446,668,o),
(442,668,cs),
(438,668,o),
(430,663,o),
(425,653,cs),
(230,266,ls),
(229,265,o),
(231,263,o),
(231,262,cs),
(230,258,o),
(231,256,o),
(237,256,cs)
);
},
{
closed = 1;
nodes = (
(356,827,o),
(347,820,o),
(334,820,cs),
(321,820,o),
(316,827,o),
(319,840,cs),
(333,907,o),
(362,945,o),
(431,945,cs),
(510,945,o),
(504,854,o),
(557,854,cs),
(598,854,o),
(609,888,o),
(616,920,cs),
(618,933,o),
(627,940,o),
(640,940,cs),
(653,940,o),
(658,933,o),
(656,920,cs),
(642,857,o),
(616,815,o),
(548,815,cs),
(469,815,o),
(476,906,o),
(423,906,cs),
(378,906,o),
(366,873,o),
(359,840,cs)
);
}
);
width = 600;
}
);
unicode = 195;
},
{
color = (153, 254, 255, 255);
glyphname = AE;
layers = (
{
layerId = "BA60169A-A75E-4ACC-B9C7-976B0FD777BA";
shapes = (
{
closed = 1;
nodes = (
(24,0,o),
(9,23,o),
(28,70,cs),
(253,632,ls),
(279,698,o),
(325,730,o),
(392,730,cs),
(673,730,ls),
(715,730,o),
(731,710,o),
(722,668,cs),
(713,626,o),
(689,605,o),
(647,605,cs),
(570,605,ls),
(553,605,o),
(543,597,o),
(539,580,cs),
(514,461,ls),
(510,444,o),
(517,436,o),
(534,436,cs),
(582,436,ls),
(626,436,o),
(643,415,o),
(634,371,cs),
(625,327,o),
(598,305,o),
(554,305,cs),
(506,305,ls),
(489,305,o),
(479,297,o),
(476,280,cs),
(453,176,ls),
(446,142,o),
(460,126,o),
(493,126,cs),
(544,126,ls),
(586,126,o),
(602,105,o),
(593,63,cs),
(584,21,o),
(559,0,o),
(517,0,cs),
(391,0,ls),
(324,0,o),
(298,33,o),
(312,100,cs),
(321,140,ls),
(324,157,o),
(318,165,o),
(301,165,cs),
(229,165,ls),
(212,165,o),
(201,157,o),
(195,140,cs),
(169,71,ls),
(152,24,o),
(120,0,o),
(72,0,cs)
);
},
{
closed = 1;
nodes = (
(253,295,ls),
(246,278,o),
(251,270,o),
(268,270,cs),
(323,270,ls),
(340,270,o),
(350,278,o),
(354,295,cs),
(415,581,ls),
(418,597,o),
(412,605,o),
(396,605,cs),
(380,605,o),
(368,597,o),
(362,581,cs)
);
}
);
width = 600;
},
{
anchors = (
{
name = m.uni0308;
position = "{455, 730}";
},
{
name = m.uni0325_2;
position = "{300, 0}";
}
);
layerId = "61B1B659-4F4A-4AEF-9EF6-2030D7AB6825";
shapes = (
{
closed = 1;
nodes = (
(46,0,o),
(36,15,o),
(49,45,cs),
(298,652,ls),
(319,705,o),
(356,730,o),
(410,730,cs),
(685,730,ls),
(712,730,o),
(722,717,o),
(717,690,cs),
(711,663,o),
(695,648,o),
(668,648,cs),
(546,648,ls),
(533,648,o),
(524,641,o),
(522,628,cs),
(482,440,ls),
(479,427,o),
(484,420,o),
(497,420,cs),
(594,420,ls),
(621,420,o),
(632,407,o),
(626,380,cs),
(620,353,o),
(604,338,o),
(577,338,cs),
(480,338,ls),
(467,338,o),
(458,331,o),
(456,318,cs),
(414,122,ls),
(408,95,o),
(418,82,o),
(445,82,cs),
(547,82,ls),
(574,82,o),
(585,69,o),
(579,42,cs),
(573,15,o),
(557,0,o),
(530,0,cs),
(382,0,ls),
(328,0,o),
(308,26,o),
(319,80,cs),
(341,183,ls),
(344,196,o),
(338,203,o),
(325,203,cs),
(224,203,ls),
(211,203,o),
(202,196,o),
(196,183,cs),
(140,45,ls),
(127,15,o),
(106,0,o),
(76,0,c)
);
},
{
closed = 1;
nodes = (
(242,298,ls),
(237,285,o),
(241,278,o),
(254,278,cs),
(341,278,ls),
(354,278,o),
(363,285,o),
(365,298,cs),
(434,620,ls),
(438,639,o),
(431,648,o),
(412,648,c),
(393,648,o),
(381,639,o),
(373,621,cs)
);
}
);
width = 600;
},
{
layerId = "F8E4993A-289F-423E-A261-7F0C3E35DC2E";
shapes = (
{
closed = 1;
nodes = (
(42,0,o),
(38,8,o),
(45,24,cs),
(350,672,ls),
(368,711,o),
(397,730,o),
(437,730,cs),
(701,730,ls),
(716,730,o),
(723,723,o),
(720,708,cs),
(716,693,o),
(708,685,o),
(693,685,cs),
(521,685,ls),
(511,685,o),
(505,680,o),
(502,670,cs),
(449,417,ls),
(447,407,o),
(450,402,o),
(460,402,cs),
(596,402,ls),
(611,402,o),
(617,395,o),
(614,380,cs),
(611,365,o),
(602,357,o),
(587,357,cs),
(451,357,ls),
(441,357,o),
(435,352,o),
(433,342,cs),
(376,75,ls),
(372,55,o),
(380,45,o),
(400,45,cs),
(557,45,ls),
(572,45,o),
(577,38,o),
(574,23,cs),
(571,8,o),
(561,0,o),
(546,0,cs),
(370,0,ls),
(330,0,o),
(314,20,o),
(323,60,cs),
(353,200,ls),
(355,210,o),
(351,215,o),
(341,215,cs),
(201,215,ls),
(191,215,o),
(184,210,o),
(179,200,cs),
(95,24,ls),
(88,8,o),
(76,0,o),
(59,0,cs)
);
},
{
closed = 1;
nodes = (
(215,275,ls),
(211,265,o),
(213,260,o),
(223,260,cs),
(350,260,ls),
(360,260,o),
(366,265,o),
(368,275,cs),
(450,659,ls),
(454,676,o),
(448,685,o),
(431,685,cs),
(414,685,o),
(401,677,o),
(393,660,cs)
);
}
);
width = 600;
}
);
unicode = 198;
},
{
glyphname = AEacute;
layers = (
{
layerId = "BA60169A-A75E-4ACC-B9C7-976B0FD777BA";
shapes = (
{
closed = 1;
nodes = (
(24,0,o),
(9,23,o),
(28,70,cs),
(253,632,ls),
(279,698,o),
(325,730,o),
(392,730,cs),
(673,730,ls),
(715,730,o),
(731,710,o),
(722,668,cs),
(713,626,o),
(689,605,o),
(647,605,cs),
(570,605,ls),
(553,605,o),
(543,597,o),
(539,580,cs),
(514,461,ls),
(510,444,o),
(517,436,o),
(534,436,cs),
(582,436,ls),
(626,436,o),
(643,415,o),
(634,371,cs),
(625,327,o),
(598,305,o),
(554,305,cs),
(506,305,ls),
(489,305,o),
(479,297,o),
(476,280,cs),
(453,176,ls),
(446,142,o),
(460,126,o),
(493,126,cs),
(544,126,ls),
(586,126,o),
(602,105,o),
(593,63,cs),
(584,21,o),
(559,0,o),
(517,0,cs),
(391,0,ls),
(324,0,o),
(298,33,o),
(312,100,cs),
(321,140,ls),
(324,157,o),
(318,165,o),
(301,165,cs),
(229,165,ls),
(212,165,o),
(201,157,o),
(195,140,cs),
(169,71,ls),
(152,24,o),
(120,0,o),
(72,0,cs)
);
},
{
closed = 1;
nodes = (
(253,295,ls),
(246,278,o),
(251,270,o),
(268,270,cs),
(323,270,ls),
(340,270,o),
(350,278,o),
(354,295,cs),
(415,581,ls),
(418,597,o),
(412,605,o),
(396,605,cs),
(380,605,o),
(368,597,o),
(362,581,cs)
);
},
{
closed = 1;
nodes = (
(416,810,o),
(411,835,o),
(461,889,cs),
(480,910,ls),
(511,943,o),
(541,950,o),
(580,950,cs),
(647,950,o),
(653,924,o),
(600,873,cs),
(573,848,ls),
(547,822,o),
(516,810,o),
(483,810,cs)
);
}
);
width = 600;
},
{
layerId = "61B1B659-4F4A-4AEF-9EF6-2030D7AB6825";
shapes = (
{
closed = 1;
nodes = (
(46,0,o),
(36,15,o),
(49,45,cs),
(298,652,ls),
(319,705,o),
(356,730,o),
(410,730,cs),
(685,730,ls),
(712,730,o),
(722,717,o),
(717,690,cs),
(711,663,o),
(695,648,o),
(668,648,cs),
(546,648,ls),
(533,648,o),
(524,641,o),
(522,628,cs),
(482,440,ls),
(479,427,o),
(484,420,o),
(497,420,cs),
(594,420,ls),
(621,420,o),
(632,407,o),
(626,380,cs),
(620,353,o),
(604,338,o),
(577,338,cs),
(480,338,ls),
(467,338,o),
(458,331,o),
(456,318,cs),
(414,122,ls),
(408,95,o),
(418,82,o),
(445,82,cs),
(547,82,ls),
(574,82,o),
(585,69,o),
(579,42,cs),
(573,15,o),
(557,0,o),
(530,0,cs),
(382,0,ls),
(328,0,o),
(308,26,o),
(319,80,cs),
(341,183,ls),
(344,196,o),
(338,203,o),
(325,203,cs),
(224,203,ls),
(211,203,o),
(202,196,o),
(196,183,cs),
(140,45,ls),
(127,15,o),
(106,0,o),
(76,0,c)
);
},
{
closed = 1;
nodes = (
(242,298,ls),
(237,285,o),
(241,278,o),
(254,278,cs),
(341,278,ls),
(354,278,o),
(363,285,o),
(365,298,cs),
(434,620,ls),
(438,639,o),
(431,648,o),
(412,648,c),
(393,648,o),
(381,639,o),
(373,621,cs)
);
},
{
closed = 1;
nodes = (
(434,810,o),
(430,826,o),
(462,859,cs),
(524,924,ls),
(541,941,o),
(560,950,o),
(582,950,cs),
(625,950,o),
(630,933,o),
(596,899,cs),
(530,834,ls),
(514,818,o),
(496,810,o),
(475,810,cs)
);
}
);
width = 600;
},
{
layerId = "F8E4993A-289F-423E-A261-7F0C3E35DC2E";
shapes = (
{
closed = 1;
nodes = (
(42,0,o),
(38,8,o),
(45,24,cs),
(350,672,ls),
(368,711,o),
(397,730,o),
(437,730,cs),
(701,730,ls),
(716,730,o),
(723,723,o),
(720,708,cs),
(716,693,o),
(708,685,o),
(693,685,cs),
(521,685,ls),
(511,685,o),
(505,680,o),
(502,670,cs),
(449,417,ls),
(447,407,o),
(450,402,o),
(460,402,cs),
(596,402,ls),
(611,402,o),
(617,395,o),
(614,380,cs),
(611,365,o),
(602,357,o),
(587,357,cs),
(451,357,ls),
(441,357,o),
(435,352,o),
(433,342,cs),
(376,75,ls),
(372,55,o),
(380,45,o),
(400,45,cs),
(557,45,ls),
(572,45,o),
(577,38,o),
(574,23,cs),
(571,8,o),
(561,0,o),
(546,0,cs),
(370,0,ls),
(330,0,o),
(314,20,o),
(323,60,cs),
(353,200,ls),
(355,210,o),
(351,215,o),
(341,215,cs),
(201,215,ls),
(191,215,o),
(184,210,o),
(179,200,cs),
(95,24,ls),
(88,8,o),
(76,0,o),
(59,0,cs)
);
},
{
closed = 1;
nodes = (
(215,275,ls),
(211,265,o),
(213,260,o),
(223,260,cs),
(350,260,ls),
(360,260,o),
(366,265,o),
(368,275,cs),
(450,659,ls),
(454,676,o),
(448,685,o),
(431,685,cs),
(414,685,o),
(401,677,o),
(393,660,cs)
);
},
{
closed = 1;
nodes = (
(447,810,o),
(445,819,o),
(463,838,cs),
(557,934,ls),
(567,945,o),
(579,950,o),
(592,950,cs),
(618,950,o),
(620,940,o),
(599,919,cs),
(503,824,ls),
(494,815,o),
(483,810,o),
(471,810,cs)
);
}
);
width = 600;
}
);
unicode = 508;
},
{
color = (153, 254, 255, 255);
glyphname = B;
layers = (
{
layerId = "BA60169A-A75E-4ACC-B9C7-976B0FD777BA";
shapes = (
{
closed = 1;
nodes = (
(522,390,o),
(521,385,o),
(532,381,cs),
(555,374,o),
(571,359,qs),
(598,335,o),
(616,258,o),
(606,211,qs),
(592,148,o),
(509,53,o),
(385,0,o),
(310,0,qs),
(156,0,ls),
(106,0,o),
(75,40,o),
(85,90,cs),
(200,630,ls),
(215,700,o),
(251,730,o),
(321,730,cs),
(456,730,ls),
(529,730,o),
(628,683,o),
(671,599,o),
(659,542,qs),
(651,501,o),
(607,436,o),
(574,415,qs),
(555,402,o),
(535,395,qs)
);
},
{
closed = 1;
nodes = (
(309,318,ls),
(294,318,o),
(281,308,o),
(278,293,cs),
(250,160,ls),
(245,135,o),
(257,120,o),
(282,120,cs),
(331,120,ls),
(380,120,o),
(448,172,o),
(458,219,qs),
(467,265,o),
(422,318,o),
(373,318,qs)
);
},
{
closed = 1;
nodes = (
(314,463,ls),
(311,448,o),
(319,438,o),
(334,438,cs),
(392,438,ls),
(436,438,o),
(497,483,o),
(505,523,qs),
(514,564,o),
(473,610,o),
(429,610,qs),
(386,610,ls),
(361,610,o),
(342,595,o),
(337,570,cs)
);
}
);
width = 600;
},
{
layerId = "61B1B659-4F4A-4AEF-9EF6-2030D7AB6825";
shapes = (
{
closed = 1;
nodes = (
(480,381,o),
(480,378,o),
(489,375,cs),
(519,366,o),
(540,348,qs),
(569,324,o),
(585,259,o),
(575,213,qs),
(562,151,o),
(488,49,o),
(382,0,o),
(315,0,qs),
(172,0,ls),
(116,0,o),
(98,23,o),
(110,80,cs),
(231,650,ls),
(243,707,o),
(271,730,o),
(327,730,cs),
(454,730,ls),
(522,730,o),
(608,685,o),
(641,600,o),
(628,541,qs),
(620,504,o),
(581,441,o),
(553,418,qs),
(527,397,o),
(490,384,qs)
);
},
{
closed = 1;
nodes = (
(277,329,ls),
(260,329,o),
(250,321,o),
(247,304,cs),
(210,130,ls),
(204,102,o),
(213,90,o),
(241,90,cs),
(324,90,ls),
(387,90,o),
(475,158,o),
(487,216,qs),
(500,278,o),
(441,329,o),
(375,329,qs)
);
},
{
closed = 1;
nodes = (
(276,444,ls),
(273,427,o),
(279,419,o),
(296,419,cs),
(387,419,ls),
(456,419,o),
(526,481,o),
(538,534,qs),
(549,587,o),
(494,640,o),
(435,640,qs),
(358,640,ls),
(329,640,o),
(316,628,o),
(310,600,cs)
);
}
);
width = 600;
},
{
layerId = "F8E4993A-289F-423E-A261-7F0C3E35DC2E";
shapes = (
{
closed = 1;
nodes = (
(469,376,o),
(470,373,o),
(474,372,cs),
(509,362,o),
(526,341,qs),
(551,313,o),
(567,245,o),
(558,200,qs),
(545,139,o),
(472,49,o),
(367,0,o),
(301,0,qs),
(180,0,ls),
(136,0,o),
(116,26,o),
(125,70,cs),
(250,660,ls),
(260,704,o),
(291,730,o),
(335,730,cs),
(453,730,ls),
(514,730,o),
(593,684,o),
(625,599,o),
(613,542,qs),
(605,505,o),
(574,443,o),
(544,416,qs),
(521,394,o),
(474,378,qs)
);
},
{
closed = 1;
nodes = (
(249,348,ls),
(240,348,o),
(233,342,o),
(231,333,cs),
(178,85,ls),
(173,63,o),
(184,50,o),
(206,50,cs),
(312,50,ls),
(389,50,o),
(492,128,o),
(507,199,qs),
(522,270,o),
(448,348,o),
(375,348,qs)
);
},
{
closed = 1;
nodes = (
(248,413,ls),
(246,404,o),
(251,398,o),
(260,398,cs),
(383,398,ls),
(447,398,o),
(549,474,o),
(563,541,qs),
(577,608,o),
(513,680,o),
(443,680,qs),
(340,680,ls),
(318,680,o),
(302,667,o),
(297,645,cs)
);
}
);
width = 600;
}
);
unicode = 66;
},
{
color = (153, 254, 255, 255);
glyphname = C;
layers = (
{
layerId = "BA60169A-A75E-4ACC-B9C7-976B0FD777BA";
shapes = (
{
closed = 1;
nodes = (
(171,567,o),
(291,740,o),
(520,740,cs),
(572,740,o),
(683,736,o),
(687,670,cs),
(688,660,o),
(687,650,o),
(685,640,cs),
(680,616,o),
(668,602,o),
(642,588,cs),
(632,583,o),
(624,583,o),
(616,583,cs),
(605,583,o),
(594,586,o),
(583,591,cs),
(559,603,o),
(533,608,o),
(498,608,cs),
(362,608,o),
(301,476,o),
(277,364,cs),
(255,260,o),
(251,122,o),
(381,122,cs),
(414,122,o),
(442,126,o),
(476,137,cs),
(490,141,o),
(503,143,o),
(516,143,cs),
(523,143,o),
(530,143,o),
(537,140,cs),
(560,131,o),
(566,110,o),
(561,85,cs),
(559,76,o),
(556,67,o),
(551,57,cs),
(518,-10,o),
(403,-10,o),
(347,-10,cs),
(131,-10,o),
(86,169,o),
(127,361,cs)
);
}
);
width = 600;
},
{
layerId = "61B1B659-4F4A-4AEF-9EF6-2030D7AB6825";
shapes = (
{
closed = 1;
nodes = (
(181,569,o),
(300,740,o),
(526,740,cs),
(574,740,o),
(679,733,o),
(680,686,cs),
(680,682,o),
(679,678,o),
(678,674,cs),
(675,657,o),
(663,639,o),
(648,633,cs),
(642,631,o),
(638,630,o),
(633,630,cs),
(626,630,o),
(619,632,o),
(615,634,cs),
(583,645,o),
(543,650,o),
(507,650,cs),
(354,650,o),
(255,496,o),
(227,362,cs),
(201,238,o),
(207,80,o),
(371,80,cs),
(410,80,o),
(440,82,o),
(477,94,cs),
(487,97,o),
(497,99,o),
(507,99,cs),
(514,99,o),
(522,98,o),
(527,95,cs),
(541,88,o),
(547,74,o),
(543,58,cs),
(542,50,o),
(538,42,o),
(531,34,cs),
(497,-10,o),
(404,-10,o),
(352,-10,cs),
(139,-10,o),
(96,168,o),
(137,362,cs)
);
}
);
width = 600;
},
{
layerId = "F8E4993A-289F-423E-A261-7F0C3E35DC2E";
shapes = (
{
closed = 1;
nodes = (
(191,569,o),
(308,740,o),
(531,740,cs),
(574,740,o),
(659,736,o),
(675,705,cs),
(676,702,o),
(676,698,o),
(676,694,cs),
(674,685,o),
(669,674,o),
(657,669,cs),
(652,667,o),
(648,667,o),
(646,667,cs),
(639,667,o),
(634,669,o),
(628,673,cs),
(611,683,o),
(572,690,o),
(521,690,cs),
(334,690,o),
(231,522,o),
(198,365,cs),
(167,220,o),
(188,40,o),
(367,40,cs),
(400,40,o),
(460,40,o),
(503,54,cs),
(509,56,o),
(513,57,o),
(518,57,cs),
(521,57,o),
(525,56,o),
(527,54,cs),
(534,48,o),
(536,39,o),
(535,31,cs),
(534,26,o),
(532,22,o),
(529,18,cs),
(508,-8,o),
(403,-10,o),
(356,-10,cs),
(147,-10,o),
(106,168,o),
(147,362,cs)
);
}
);
width = 600;
}
);
unicode = 67;
},
{
glyphname = Cacute;
layers = (
{
layerId = "BA60169A-A75E-4ACC-B9C7-976B0FD777BA";
shapes = (
{
closed = 1;
nodes = (
(171,567,o),
(291,740,o),
(520,740,cs),
(572,740,o),
(683,736,o),
(687,670,cs),
(688,660,o),
(687,650,o),
(685,640,cs),
(680,616,o),
(668,602,o),
(642,588,cs),
(632,583,o),
(624,583,o),
(616,583,cs),
(605,583,o),
(594,586,o),
(583,591,cs),
(559,603,o),
(533,608,o),
(498,608,cs),
(362,608,o),
(301,476,o),
(277,364,cs),
(255,260,o),
(251,122,o),
(381,122,cs),
(414,122,o),
(442,126,o),
(476,137,cs),
(490,141,o),
(503,143,o),
(516,143,cs),
(523,143,o),
(530,143,o),
(537,140,cs),
(560,131,o),
(566,110,o),
(561,85,cs),
(559,76,o),
(556,67,o),
(551,57,cs),
(518,-10,o),
(403,-10,o),
(347,-10,cs),
(131,-10,o),
(86,169,o),
(127,361,cs)
);
},
{
closed = 1;
nodes = (
(421,810,o),
(416,835,o),
(466,889,cs),
(485,910,ls),
(516,943,o),
(546,950,o),
(585,950,cs),
(652,950,o),
(658,924,o),
(605,873,cs),
(578,848,ls),
(552,822,o),
(521,810,o),
(488,810,cs)
);
}
);
width = 600;
},
{
layerId = "61B1B659-4F4A-4AEF-9EF6-2030D7AB6825";
shapes = (
{
closed = 1;
nodes = (
(181,569,o),
(300,740,o),
(526,740,cs),
(574,740,o),
(679,733,o),
(680,686,cs),
(680,682,o),
(679,678,o),
(678,674,cs),
(675,657,o),
(663,639,o),
(648,633,cs),
(642,631,o),
(638,630,o),
(633,630,cs),
(626,630,o),
(619,632,o),
(615,634,cs),
(583,645,o),
(543,650,o),
(507,650,cs),
(354,650,o),
(255,496,o),
(227,362,cs),
(201,238,o),
(207,80,o),
(371,80,cs),
(410,80,o),
(440,82,o),
(477,94,cs),
(487,97,o),
(497,99,o),
(507,99,cs),
(514,99,o),
(522,98,o),
(527,95,cs),
(541,88,o),
(547,74,o),
(543,58,cs),
(542,50,o),
(538,42,o),
(531,34,cs),
(497,-10,o),
(404,-10,o),
(352,-10,cs),
(139,-10,o),
(96,168,o),
(137,362,cs)
);
},
{
closed = 1;
nodes = (
(439,810,o),
(435,826,o),
(467,859,cs),
(529,924,ls),
(546,941,o),
(565,950,o),
(587,950,cs),
(630,950,o),
(635,933,o),
(601,899,cs),
(535,834,ls),
(519,818,o),
(501,810,o),
(480,810,cs)
);
}
);
width = 600;
},
{
layerId = "F8E4993A-289F-423E-A261-7F0C3E35DC2E";
shapes = (
{
closed = 1;
nodes = (
(191,569,o),
(308,740,o),
(531,740,cs),
(574,740,o),
(659,736,o),
(675,705,cs),
(676,702,o),
(676,698,o),
(676,694,cs),
(674,685,o),
(669,674,o),
(657,669,cs),
(652,667,o),
(648,667,o),
(646,667,cs),
(639,667,o),
(634,669,o),
(628,673,cs),
(611,683,o),
(572,690,o),
(521,690,cs),
(334,690,o),
(231,522,o),
(198,365,cs),
(167,220,o),
(188,40,o),
(367,40,cs),
(400,40,o),
(460,40,o),
(503,54,cs),
(509,56,o),
(513,57,o),
(518,57,cs),
(521,57,o),
(525,56,o),
(527,54,cs),
(534,48,o),
(536,39,o),
(535,31,cs),
(534,26,o),
(532,22,o),
(529,18,cs),
(508,-8,o),
(403,-10,o),
(356,-10,cs),
(147,-10,o),
(106,168,o),
(147,362,cs)
);
},
{
closed = 1;
nodes = (
(452,810,o),
(450,819,o),
(468,838,cs),
(562,934,ls),
(572,945,o),
(584,950,o),
(597,950,cs),
(623,950,o),
(625,940,o),
(604,919,cs),
(508,824,ls),
(499,815,o),
(488,810,o),
(476,810,cs)
);
}
);
width = 600;
}
);
unicode = 262;
},
{
glyphname = Ccaron;
layers = (
{
layerId = "BA60169A-A75E-4ACC-B9C7-976B0FD777BA";
shapes = (
{
closed = 1;
nodes = (
(171,567,o),
(291,740,o),
(520,740,cs),
(572,740,o),
(683,736,o),
(687,670,cs),
(688,660,o),
(687,650,o),
(685,640,cs),
(680,616,o),
(668,602,o),
(642,588,cs),
(632,583,o),
(624,583,o),
(616,583,cs),
(605,583,o),
(594,586,o),
(583,591,cs),
(559,603,o),
(533,608,o),
(498,608,cs),
(362,608,o),
(301,476,o),
(277,364,cs),
(255,260,o),
(251,122,o),
(381,122,cs),
(414,122,o),
(442,126,o),
(476,137,cs),
(490,141,o),
(503,143,o),
(516,143,cs),
(523,143,o),
(530,143,o),
(537,140,cs),
(560,131,o),
(566,110,o),
(561,85,cs),
(559,76,o),
(556,67,o),
(551,57,cs),
(518,-10,o),
(403,-10,o),
(347,-10,cs),
(131,-10,o),
(86,169,o),
(127,361,cs)
);
},
{
closed = 1;
nodes = (
(423,950,o),
(445,939,o),
(462,917,cs),
(463,916,ls),
(482,892,o),
(504,891,o),
(534,915,cs),
(538,919,ls),
(565,941,o),
(592,950,o),
(622,950,cs),
(682,950,o),
(687,928,o),
(636,885,cs),
(607,860,ls),
(567,826,o),
(514,810,o),
(477,810,cs),
(440,810,o),
(393,825,o),
(369,860,cs),
(351,885,ls),
(320,930,o),
(332,950,o),
(393,950,cs)
);
}
);
width = 600;
},
{
layerId = "61B1B659-4F4A-4AEF-9EF6-2030D7AB6825";
shapes = (
{
closed = 1;
nodes = (
(181,569,o),
(300,740,o),
(526,740,cs),
(574,740,o),
(679,733,o),
(680,686,cs),
(680,682,o),
(679,678,o),
(678,674,cs),
(675,657,o),
(663,639,o),
(648,633,cs),
(642,631,o),
(638,630,o),
(633,630,cs),
(626,630,o),
(619,632,o),
(615,634,cs),
(583,645,o),
(543,650,o),
(507,650,cs),
(354,650,o),
(255,496,o),
(227,362,cs),
(201,238,o),
(207,80,o),
(371,80,cs),
(410,80,o),
(440,82,o),
(477,94,cs),
(487,97,o),
(497,99,o),
(507,99,cs),
(514,99,o),
(522,98,o),
(527,95,cs),
(541,88,o),
(547,74,o),
(543,58,cs),
(542,50,o),
(538,42,o),
(531,34,cs),
(497,-10,o),
(404,-10,o),
(352,-10,cs),
(139,-10,o),
(96,168,o),
(137,362,cs)
);
},
{
closed = 1;
nodes = (
(417,950,o),
(434,942,o),
(447,926,cs),
(468,900,ls),
(483,881,o),
(504,882,o),
(526,900,cs),
(561,927,ls),
(580,942,o),
(601,950,o),
(623,950,cs),
(667,950,o),
(670,934,o),
(632,903,cs),
(554,839,ls),
(530,819,o),
(500,810,o),
(477,810,cs),
(454,810,o),
(429,819,o),
(413,839,cs),
(364,902,ls),
(339,934,o),
(349,950,o),
(394,950,cs)
);
}
);
width = 600;
},
{
layerId = "F8E4993A-289F-423E-A261-7F0C3E35DC2E";
shapes = (
{
closed = 1;
nodes = (
(191,569,o),
(308,740,o),
(531,740,cs),
(574,740,o),
(659,736,o),
(675,705,cs),
(676,702,o),
(676,698,o),
(676,694,cs),
(674,685,o),
(669,674,o),
(657,669,cs),
(652,667,o),
(648,667,o),
(646,667,cs),
(639,667,o),
(634,669,o),
(628,673,cs),
(611,683,o),
(572,690,o),
(521,690,cs),
(334,690,o),
(231,522,o),
(198,365,cs),
(167,220,o),
(188,40,o),
(367,40,cs),
(400,40,o),
(460,40,o),
(503,54,cs),
(509,56,o),
(513,57,o),
(518,57,cs),
(521,57,o),
(525,56,o),
(527,54,cs),
(534,48,o),
(536,39,o),
(535,31,cs),
(534,26,o),
(532,22,o),
(529,18,cs),
(508,-8,o),
(403,-10,o),
(356,-10,cs),
(147,-10,o),
(106,168,o),
(147,362,cs)
);
},
{
closed = 1;
nodes = (
(402,950,o),
(410,945,o),
(416,937,cs),
(468,863,ls),
(479,848,o),
(491,848,o),
(508,863,cs),
(594,938,ls),
(603,946,o),
(613,950,o),
(624,950,cs),
(646,950,o),
(648,942,o),
(631,925,cs),
(532,833,ls),
(516,818,o),
(492,810,o),
(477,810,cs),
(462,810,o),
(442,818,o),
(432,833,cs),
(373,924,ls),
(362,941,o),
(368,950,o),
(391,950,cs)
);
}
);
width = 600;
}
);
unicode = 268;
},
{
glyphname = Ccedilla;
layers = (
{
anchors = (
{
name = _bottom;
position = "{305, 0}";
}
);
layerId = "BA60169A-A75E-4ACC-B9C7-976B0FD777BA";
shapes = (
{
closed = 1;
nodes = (
(171,567,o),
(291,740,o),
(520,740,cs),
(572,740,o),
(683,736,o),
(687,670,cs),
(688,660,o),
(687,650,o),
(685,640,cs),
(680,616,o),
(668,602,o),
(642,588,cs),
(632,583,o),
(624,583,o),
(616,583,cs),
(605,583,o),
(594,586,o),
(583,591,cs),
(559,603,o),
(533,608,o),
(498,608,cs),
(362,608,o),
(301,476,o),
(277,364,cs),
(255,260,o),
(251,122,o),
(381,122,cs),
(414,122,o),
(442,126,o),
(476,137,cs),
(490,141,o),
(503,143,o),
(516,143,cs),
(523,143,o),
(530,143,o),
(537,140,cs),
(560,131,o),
(566,110,o),
(561,85,cs),
(559,76,o),
(556,67,o),
(551,57,cs),
(518,-10,o),
(403,-10,o),
(347,-10,cs),
(131,-10,o),
(86,169,o),
(127,361,cs)
);
},
{
closed = 1;
nodes = (
(187,-225,ls),
(164,-225,o),
(155,-213,o),
(160,-190,cs),
(164,-167,o),
(179,-155,o),
(202,-155,cs),
(247,-155,ls),
(272,-155,o),
(307,-131,o),
(310,-119,qs),
(313,-97,o),
(286,-83,qs),
(273,-77,o),
(253,-73,qs),
(221,-67,o),
(215,-53,o),
(233,-23,cs),
(257,16,l),
(330,16,l),
(313,-15,ls),
(305,-30,o),
(308,-39,o),
(324,-42,cs),
(342,-46,o),
(360,-52,qs),
(390,-63,o),
(428,-102,o),
(422,-133,qs),
(414,-170,o),
(325,-225,o),
(262,-225,qs)
);
}
);
width = 600;
},
{
anchors = (
{
name = _bottom;
position = "{305, 0}";
}
);
layerId = "61B1B659-4F4A-4AEF-9EF6-2030D7AB6825";
shapes = (
{
closed = 1;
nodes = (
(181,569,o),
(300,740,o),
(526,740,cs),
(574,740,o),
(679,733,o),
(680,686,cs),
(680,682,o),
(679,678,o),
(678,674,cs),
(675,657,o),
(663,639,o),
(648,633,cs),
(642,631,o),
(638,630,o),
(633,630,cs),
(626,630,o),
(619,632,o),
(615,634,cs),
(583,645,o),
(543,650,o),
(507,650,cs),
(354,650,o),
(255,496,o),
(227,362,cs),
(201,238,o),
(207,80,o),
(371,80,cs),
(410,80,o),
(440,82,o),
(477,94,cs),
(487,97,o),
(497,99,o),
(507,99,cs),
(514,99,o),
(522,98,o),
(527,95,cs),
(541,88,o),
(547,74,o),
(543,58,cs),
(542,50,o),
(538,42,o),
(531,34,cs),
(497,-10,o),
(404,-10,o),
(352,-10,cs),
(139,-10,o),
(96,168,o),
(137,362,cs)
);
},
{
closed = 1;
nodes = (
(195,-203,ls),
(177,-203,o),
(169,-194,o),
(173,-176,cs),
(176,-158,o),
(189,-148,o),
(207,-148,cs),
(249,-148,ls),
(271,-148,o),
(302,-125,o),
(305,-112,qs),
(308,-95,o),
(284,-82,qs),
(270,-75,o),
(249,-72,qs),
(223,-68,o),
(217,-55,o),
(231,-31,cs),
(265,26,l),
(322,26,l),
(299,-16,ls),
(292,-28,o),
(295,-35,o),
(307,-38,cs),
(323,-42,o),
(339,-48,qs),
(365,-58,o),
(395,-94,o),
(389,-120,qs),
(382,-154,o),
(306,-203,o),
(252,-203,qs)
);
}
);
width = 600;
},
{
anchors = (
{
name = _bottom;
position = "{305, 0}";
}
);
layerId = "F8E4993A-289F-423E-A261-7F0C3E35DC2E";
shapes = (
{
closed = 1;
nodes = (
(191,569,o),
(308,740,o),
(531,740,cs),
(574,740,o),
(659,736,o),
(675,705,cs),
(676,702,o),
(676,698,o),
(676,694,cs),
(674,685,o),
(669,674,o),
(657,669,cs),
(652,667,o),
(648,667,o),
(646,667,cs),
(639,667,o),
(634,669,o),
(628,673,cs),
(611,683,o),
(572,690,o),
(521,690,cs),
(334,690,o),
(231,522,o),
(198,365,cs),
(167,220,o),
(188,40,o),
(367,40,cs),
(400,40,o),
(460,40,o),
(503,54,cs),
(509,56,o),
(513,57,o),
(518,57,cs),
(521,57,o),
(525,56,o),
(527,54,cs),
(534,48,o),
(536,39,o),
(535,31,cs),
(534,26,o),
(532,22,o),
(529,18,cs),
(508,-8,o),
(403,-10,o),
(356,-10,cs),
(147,-10,o),
(106,168,o),
(147,362,cs)
);
},
{
closed = 1;
nodes = (
(216,-195,ls),
(204,-195,o),
(200,-190,o),
(202,-178,cs),
(205,-166,o),
(211,-160,o),
(223,-160,cs),
(286,-160,ls),
(310,-160,o),
(346,-134,o),
(349,-118,qs),
(353,-94,o),
(324,-79,qs),
(304,-68,o),
(272,-65,qs),
(253,-63,o),
(249,-54,o),
(259,-36,cs),
(297,26,l),
(339,26,l),
(311,-20,ls),
(305,-29,o),
(308,-34,o),
(318,-35,cs),
(333,-37,o),
(350,-44,qs),
(373,-53,o),
(401,-89,o),
(395,-118,qs),
(388,-150,o),
(324,-195,o),
(279,-195,qs)
);
}
);
width = 600;
}
);
unicode = 199;
},
{
glyphname = Ccircumflex;
layers = (
{
layerId = "BA60169A-A75E-4ACC-B9C7-976B0FD777BA";
shapes = (
{
closed = 1;
nodes = (
(171,567,o),
(291,740,o),
(520,740,cs),
(572,740,o),
(683,736,o),
(687,670,cs),
(688,660,o),
(687,650,o),
(685,640,cs),
(680,616,o),
(668,602,o),
(642,588,cs),
(632,583,o),
(624,583,o),
(616,583,cs),
(605,583,o),
(594,586,o),
(583,591,cs),
(559,603,o),
(533,608,o),
(498,608,cs),
(362,608,o),
(301,476,o),
(277,364,cs),
(255,260,o),
(251,122,o),
(381,122,cs),
(414,122,o),
(442,126,o),
(476,137,cs),
(490,141,o),
(503,143,o),
(516,143,cs),
(523,143,o),
(530,143,o),
(537,140,cs),
(560,131,o),
(566,110,o),
(561,85,cs),
(559,76,o),
(556,67,o),
(551,57,cs),
(518,-10,o),
(403,-10,o),
(347,-10,cs),
(131,-10,o),
(86,169,o),
(127,361,cs)
);
},
{
closed = 1;
nodes = (
(302,810,o),
(298,831,o),
(349,875,cs),
(377,900,ls),
(418,934,o),
(460,950,o),
(507,950,cs),
(554,950,o),
(590,934,o),
(615,900,cs),
(634,875,ls),
(667,832,o),
(652,810,o),
(592,810,cs),
(562,810,o),
(539,820,o),
(522,841,cs),
(519,845,ls),
(500,868,o),
(476,868,o),
(447,844,cs),
(446,843,ls),
(421,821,o),
(393,810,o),
(363,810,cs)
);
}
);
width = 600;
},
{
layerId = "61B1B659-4F4A-4AEF-9EF6-2030D7AB6825";
shapes = (
{
closed = 1;
nodes = (
(181,569,o),
(300,740,o),
(526,740,cs),
(574,740,o),
(679,733,o),
(680,686,cs),
(680,682,o),
(679,678,o),
(678,674,cs),
(675,657,o),
(663,639,o),
(648,633,cs),
(642,631,o),
(638,630,o),
(633,630,cs),
(626,630,o),
(619,632,o),
(615,634,cs),
(583,645,o),
(543,650,o),
(507,650,cs),
(354,650,o),
(255,496,o),
(227,362,cs),
(201,238,o),
(207,80,o),
(371,80,cs),
(410,80,o),
(440,82,o),
(477,94,cs),
(487,97,o),
(497,99,o),
(507,99,cs),
(514,99,o),
(522,98,o),
(527,95,cs),
(541,88,o),
(547,74,o),
(543,58,cs),
(542,50,o),
(538,42,o),
(531,34,cs),
(497,-10,o),
(404,-10,o),
(352,-10,cs),
(139,-10,o),
(96,168,o),
(137,362,cs)
);
},
{
closed = 1;
nodes = (
(319,810,o),
(316,826,o),
(354,858,cs),
(431,921,ls),
(455,941,o),
(479,950,o),
(507,950,cs),
(535,950,o),
(556,941,o),
(572,921,cs),
(622,857,ls),
(647,826,o),
(637,810,o),
(593,810,cs),
(571,810,o),
(554,818,o),
(541,833,cs),
(518,860,ls),
(503,878,o),
(483,879,o),
(460,860,cs),
(427,834,ls),
(408,818,o),
(387,810,o),
(364,810,cs)
);
}
);
width = 600;
},
{
layerId = "F8E4993A-289F-423E-A261-7F0C3E35DC2E";
shapes = (
{
closed = 1;
nodes = (
(191,569,o),
(308,740,o),
(531,740,cs),
(574,740,o),
(659,736,o),
(675,705,cs),
(676,702,o),
(676,698,o),
(676,694,cs),
(674,685,o),
(669,674,o),
(657,669,cs),
(652,667,o),
(648,667,o),
(646,667,cs),
(639,667,o),
(634,669,o),
(628,673,cs),
(611,683,o),
(572,690,o),
(521,690,cs),
(334,690,o),
(231,522,o),
(198,365,cs),
(167,220,o),
(188,40,o),
(367,40,cs),
(400,40,o),
(460,40,o),
(503,54,cs),
(509,56,o),
(513,57,o),
(518,57,cs),
(521,57,o),
(525,56,o),
(527,54,cs),
(534,48,o),
(536,39,o),
(535,31,cs),
(534,26,o),
(532,22,o),
(529,18,cs),
(508,-8,o),
(403,-10,o),
(356,-10,cs),
(147,-10,o),
(106,168,o),
(147,362,cs)
);
},
{
closed = 1;
nodes = (
(338,810,o),
(336,819,o),
(355,836,cs),
(452,927,ls),
(468,942,o),
(487,950,o),
(507,950,cs),
(527,950,o),
(542,942,o),
(552,927,cs),
(612,835,ls),
(622,818,o),
(616,810,o),
(594,810,cs),
(583,810,o),
(575,814,o),
(570,822,cs),
(516,897,ls),
(505,912,o),
(493,912,o),
(476,897,cs),
(392,823,ls),
(382,815,o),
(372,810,o),
(361,810,cs)
);
}
);
width = 600;
}
);
unicode = 264;
},
{
glyphname = Cdotaccent;
layers = (
{
layerId = "BA60169A-A75E-4ACC-B9C7-976B0FD777BA";
shapes = (
{
closed = 1;
nodes = (
(171,567,o),
(291,740,o),
(520,740,cs),
(572,740,o),
(683,736,o),
(687,670,cs),
(688,660,o),
(687,650,o),
(685,640,cs),
(680,616,o),
(668,602,o),
(642,588,cs),
(632,583,o),
(624,583,o),
(616,583,cs),
(605,583,o),
(594,586,o),
(583,591,cs),
(559,603,o),
(533,608,o),
(498,608,cs),
(362,608,o),
(301,476,o),
(277,364,cs),
(255,260,o),
(251,122,o),
(381,122,cs),
(414,122,o),
(442,126,o),
(476,137,cs),
(490,141,o),
(503,143,o),
(516,143,cs),
(523,143,o),
(530,143,o),
(537,140,cs),
(560,131,o),
(566,110,o),
(561,85,cs),
(559,76,o),
(556,67,o),
(551,57,cs),
(518,-10,o),
(403,-10,o),
(347,-10,cs),
(131,-10,o),
(86,169,o),
(127,361,cs)
);
},
{
closed = 1;
nodes = (
(435,802,o),
(394,844,o),
(402,880,qs),
(410,916,o),
(468,958,o),
(509,958,qs),
(550,958,o),
(590,916,o),
(582,880,qs),
(574,844,o),
(517,802,o),
(476,802,qs)
);
}
);
width = 600;
},
{
layerId = "61B1B659-4F4A-4AEF-9EF6-2030D7AB6825";
shapes = (
{
closed = 1;
nodes = (
(181,569,o),
(300,740,o),
(526,740,cs),
(574,740,o),
(679,733,o),
(680,686,cs),
(680,682,o),
(679,678,o),
(678,674,cs),
(675,657,o),
(663,639,o),
(648,633,cs),
(642,631,o),
(638,630,o),
(633,630,cs),
(626,630,o),
(619,632,o),
(615,634,cs),
(583,645,o),
(543,650,o),
(507,650,cs),
(354,650,o),
(255,496,o),
(227,362,cs),
(201,238,o),
(207,80,o),
(371,80,cs),
(410,80,o),
(440,82,o),
(477,94,cs),
(487,97,o),
(497,99,o),
(507,99,cs),
(514,99,o),
(522,98,o),
(527,95,cs),
(541,88,o),
(547,74,o),
(543,58,cs),
(542,50,o),
(538,42,o),
(531,34,cs),
(497,-10,o),
(404,-10,o),
(352,-10,cs),
(139,-10,o),
(96,168,o),
(137,362,cs)
);
},
{
closed = 1;
nodes = (
(445,816,o),
(415,851,o),
(421,880,qs),
(427,909,o),
(473,944,o),
(506,944,qs),
(539,944,o),
(569,909,o),
(563,880,qs),
(557,851,o),
(511,816,o),
(478,816,qs)
);
}
);
width = 600;
},
{
layerId = "F8E4993A-289F-423E-A261-7F0C3E35DC2E";
shapes = (
{
closed = 1;
nodes = (
(191,569,o),
(308,740,o),
(531,740,cs),
(574,740,o),
(659,736,o),
(675,705,cs),
(676,702,o),
(676,698,o),
(676,694,cs),
(674,685,o),
(669,674,o),
(657,669,cs),
(652,667,o),
(648,667,o),
(646,667,cs),
(639,667,o),
(634,669,o),
(628,673,cs),
(611,683,o),
(572,690,o),
(521,690,cs),
(334,690,o),
(231,522,o),
(198,365,cs),
(167,220,o),
(188,40,o),
(367,40,cs),
(400,40,o),
(460,40,o),
(503,54,cs),
(509,56,o),
(513,57,o),
(518,57,cs),
(521,57,o),
(525,56,o),
(527,54,cs),
(534,48,o),
(536,39,o),
(535,31,cs),
(534,26,o),
(532,22,o),
(529,18,cs),
(508,-8,o),
(403,-10,o),
(356,-10,cs),
(147,-10,o),
(106,168,o),
(147,362,cs)
);
},
{
closed = 1;
nodes = (
(454,825,o),
(429,855,o),
(434,880,qs),
(439,905,o),
(478,935,o),
(504,935,qs),
(530,935,o),
(555,905,o),
(550,880,qs),
(545,855,o),
(506,825,o),
(480,825,qs)
);
}
);
width = 600;
}
);
unicode = 266;
},
{
color = (153, 254, 255, 255);
glyphname = D;
layers = (
{
layerId = "BA60169A-A75E-4ACC-B9C7-976B0FD777BA";
shapes = (
{
closed = 1;
nodes = (
(153,0,ls),
(93,0,o),
(69,30,o),
(82,90,cs),
(199,640,ls),
(212,700,o),
(248,730,o),
(308,730,cs),
(425,730,ls),
(524,730,o),
(623,672,o),
(657,551,o),
(655,485,qs),
(654,442,o),
(650,405,o),
(642,367,cs),
(634,328,o),
(621,289,o),
(604,245,cs),
(577,175,o),
(493,59,o),
(369,0,o),
(270,0,qs)
);
},
{
closed = 1;
nodes = (
(250,175,ls),
(244,148,o),
(255,135,o),
(282,135,cs),
(299,135,ls),
(368,135,o),
(441,206,o),
(458,245,qs),
(477,289,o),
(491,327,o),
(499,365,cs),
(507,403,o),
(510,442,o),
(509,485,cs),
(508,528,o),
(464,595,o),
(396,595,qs),
(379,595,ls),
(352,595,o),
(337,582,o),
(331,555,cs)
);
}
);
width = 600;
},
{
layerId = "61B1B659-4F4A-4AEF-9EF6-2030D7AB6825";
shapes = (
{
closed = 1;
nodes = (
(172,0,ls),
(118,0,o),
(98,26,o),
(109,80,cs),
(230,650,ls),
(242,704,o),
(273,730,o),
(327,730,cs),
(416,730,ls),
(487,730,o),
(588,680,o),
(619,577,o),
(621,511,qs),
(622,466,o),
(617,417,o),
(606,369,cs),
(596,318,o),
(579,268,o),
(559,220,cs),
(531,154,o),
(454,50,o),
(332,0,o),
(261,0,qs)
);
},
{
closed = 1;
nodes = (
(210,130,ls),
(204,103,o),
(214,90,o),
(241,90,cs),
(280,90,ls),
(350,90,o),
(448,165,o),
(478,230,qs),
(499,277,o),
(514,322,o),
(524,366,cs),
(533,411,o),
(537,455,o),
(536,501,cs),
(533,565,o),
(467,640,o),
(397,640,qs),
(358,640,ls),
(331,640,o),
(315,627,o),
(310,600,cs)
);
}
);
width = 600;
},
{
layerId = "F8E4993A-289F-423E-A261-7F0C3E35DC2E";
shapes = (
{
closed = 1;
nodes = (
(181,0,ls),
(133,0,o),
(115,23,o),
(125,70,cs),
(250,660,ls),
(260,707,o),
(288,730,o),
(336,730,cs),
(386,730,ls),
(473,730,o),
(581,665,o),
(607,566,o),
(601,500,qs),
(596,449,o),
(591,407,o),
(582,365,cs),
(573,323,o),
(561,282,o),
(544,230,cs),
(522,164,o),
(454,65,o),
(318,0,o),
(231,0,qs)
);
},
{
closed = 1;
nodes = (
(179,85,ls),
(174,62,o),
(184,50,o),
(207,50,cs),
(242,50,ls),
(350,50,o),
(468,151,o),
(494,230,qs),
(510,282,o),
(522,323,o),
(531,365,cs),
(540,407,o),
(545,449,o),
(551,500,cs),
(559,578,o),
(483,680,o),
(376,680,qs),
(341,680,ls),
(318,680,o),
(303,668,o),
(298,645,cs)
);
}
);
width = 600;
}
);
unicode = 68;
},
{
glyphname = Eth;
layers = (
{
layerId = "BA60169A-A75E-4ACC-B9C7-976B0FD777BA";
shapes = (
{
closed = 1;
nodes = (
(153,0,ls),
(93,0,o),
(69,30,o),
(82,90,cs),
(199,640,ls),
(212,700,o),
(248,730,o),
(308,730,cs),
(425,730,ls),
(524,730,o),
(623,672,o),
(657,551,o),
(655,485,qs),
(654,442,o),
(650,405,o),
(642,367,cs),
(634,328,o),
(621,289,o),
(604,245,cs),
(577,175,o),
(493,59,o),
(369,0,o),
(270,0,qs)
);
},
{
closed = 1;
nodes = (
(250,175,ls),
(244,148,o),
(255,135,o),
(282,135,cs),
(299,135,ls),
(368,135,o),
(441,206,o),
(458,245,qs),
(477,289,o),
(491,327,o),
(499,365,cs),
(507,403,o),
(510,442,o),
(509,485,cs),
(508,528,o),
(464,595,o),
(396,595,qs),
(379,595,ls),
(352,595,o),
(337,582,o),
(331,555,cs)
);
},
{
closed = 1;
nodes = (
(132,315,ls),
(92,315,o),
(70,330,o),
(81,380,cs),
(91,430,o),
(120,445,o),
(160,445,cs),
(330,445,ls),
(370,445,o),
(391,430,o),
(381,380,cs),
(370,330,o),
(342,315,o),
(302,315,cs)
);
}
);
width = 600;
},
{
layerId = "61B1B659-4F4A-4AEF-9EF6-2030D7AB6825";
shapes = (
{
closed = 1;
nodes = (
(172,0,ls),
(118,0,o),
(98,26,o),
(109,80,cs),
(230,650,ls),
(242,704,o),
(273,730,o),
(327,730,cs),
(416,730,ls),
(487,730,o),
(588,680,o),
(619,577,o),
(621,511,qs),
(622,466,o),
(617,417,o),
(606,369,cs),
(596,318,o),
(579,268,o),
(559,220,cs),
(531,154,o),
(454,50,o),
(332,0,o),
(261,0,qs)
);
},
{
closed = 1;
nodes = (
(210,130,ls),
(204,103,o),
(214,90,o),
(241,90,cs),
(280,90,ls),
(350,90,o),
(448,165,o),
(478,230,qs),
(499,277,o),
(514,322,o),
(524,366,cs),
(533,411,o),
(537,455,o),
(536,501,cs),
(533,565,o),
(467,640,o),
(397,640,qs),
(358,640,ls),
(331,640,o),
(315,627,o),
(310,600,cs)
);
},
{
closed = 1;
nodes = (
(108,345,ls),
(93,345,o),
(74,350,o),
(81,380,cs),
(87,410,o),
(108,415,o),
(123,415,cs),
(353,415,ls),
(368,415,o),
(387,410,o),
(381,380,cs),
(374,350,o),
(353,345,o),
(338,345,cs)
);
}
);
width = 600;
},
{
layerId = "F8E4993A-289F-423E-A261-7F0C3E35DC2E";
shapes = (
{
closed = 1;
nodes = (
(181,0,ls),
(133,0,o),
(115,23,o),
(125,70,cs),
(250,660,ls),
(260,707,o),
(288,730,o),
(336,730,cs),
(386,730,ls),
(473,730,o),
(581,665,o),
(607,566,o),
(601,500,qs),
(596,449,o),
(591,407,o),
(582,365,cs),
(573,323,o),
(561,282,o),
(544,230,cs),
(522,164,o),
(454,65,o),
(318,0,o),
(231,0,qs)
);
},
{
closed = 1;
nodes = (
(179,85,ls),
(174,62,o),
(184,50,o),
(207,50,cs),
(242,50,ls),
(350,50,o),
(468,151,o),
(494,230,qs),
(510,282,o),
(522,323,o),
(531,365,cs),
(540,407,o),
(545,449,o),
(551,500,cs),
(559,578,o),
(483,680,o),
(376,680,qs),
(341,680,ls),
(318,680,o),
(303,668,o),
(298,645,cs)
);
},
{
closed = 1;
nodes = (
(101,357,ls),
(84,357,o),
(78,365,o),
(81,382,cs),
(85,399,o),
(95,407,o),
(112,407,cs),
(362,407,ls),
(379,407,o),
(385,399,o),
(381,382,cs),
(378,365,o),
(368,357,o),
(351,357,cs)
);
}
);
width = 600;
}
);
unicode = 208;
},
{
glyphname = Dcaron;
layers = (
{
layerId = "BA60169A-A75E-4ACC-B9C7-976B0FD777BA";
shapes = (
{
closed = 1;
nodes = (
(153,0,ls),
(93,0,o),
(69,30,o),
(82,90,cs),
(199,640,ls),
(212,700,o),
(248,730,o),
(308,730,cs),
(425,730,ls),
(524,730,o),
(623,672,o),
(657,551,o),
(655,485,qs),
(654,442,o),
(650,405,o),
(642,367,cs),
(634,328,o),
(621,289,o),
(604,245,cs),
(577,175,o),
(493,59,o),
(369,0,o),
(270,0,qs)
);
},
{
closed = 1;
nodes = (
(250,175,ls),
(244,148,o),
(255,135,o),
(282,135,cs),
(299,135,ls),
(368,135,o),
(441,206,o),
(458,245,qs),
(477,289,o),
(491,327,o),
(499,365,cs),
(507,403,o),
(510,442,o),
(509,485,cs),
(508,528,o),
(464,595,o),
(396,595,qs),
(379,595,ls),
(352,595,o),
(337,582,o),
(331,555,cs)
);
},
{
closed = 1;
nodes = (
(418,950,o),
(440,939,o),
(457,917,cs),
(458,916,ls),
(477,892,o),
(499,891,o),
(529,915,cs),
(533,919,ls),
(560,941,o),
(587,950,o),
(617,950,cs),
(677,950,o),
(682,928,o),
(631,885,cs),
(602,860,ls),
(562,826,o),
(509,810,o),
(472,810,cs),
(435,810,o),
(388,825,o),
(364,860,cs),
(346,885,ls),
(315,930,o),
(327,950,o),
(388,950,cs)
);
}
);
width = 600;
},
{
layerId = "61B1B659-4F4A-4AEF-9EF6-2030D7AB6825";
shapes = (
{
closed = 1;
nodes = (
(172,0,ls),
(118,0,o),
(98,26,o),
(109,80,cs),
(230,650,ls),
(242,704,o),
(273,730,o),
(327,730,cs),
(416,730,ls),
(487,730,o),
(588,680,o),
(619,577,o),
(621,511,qs),
(622,466,o),
(617,417,o),
(606,369,cs),
(596,318,o),
(579,268,o),
(559,220,cs),
(531,154,o),
(454,50,o),
(332,0,o),
(261,0,qs)
);
},
{
closed = 1;
nodes = (
(210,130,ls),
(204,103,o),
(214,90,o),
(241,90,cs),
(280,90,ls),
(350,90,o),
(448,165,o),
(478,230,qs),
(499,277,o),
(514,322,o),
(524,366,cs),
(533,411,o),
(537,455,o),
(536,501,cs),
(533,565,o),
(467,640,o),
(397,640,qs),
(358,640,ls),
(331,640,o),
(315,627,o),
(310,600,cs)
);
},
{
closed = 1;
nodes = (
(412,950,o),
(429,942,o),
(442,926,cs),
(463,900,ls),
(478,881,o),
(499,882,o),
(521,900,cs),
(556,927,ls),
(575,942,o),
(596,950,o),
(618,950,cs),
(662,950,o),
(665,934,o),
(627,903,cs),
(549,839,ls),
(525,819,o),
(495,810,o),
(472,810,cs),
(449,810,o),
(424,819,o),
(408,839,cs),
(359,902,ls),
(334,934,o),
(344,950,o),
(389,950,cs)
);
}
);
width = 600;
},
{
layerId = "F8E4993A-289F-423E-A261-7F0C3E35DC2E";
shapes = (
{
closed = 1;
nodes = (
(181,0,ls),
(133,0,o),
(115,23,o),
(125,70,cs),
(250,660,ls),
(260,707,o),
(288,730,o),
(336,730,cs),
(386,730,ls),
(473,730,o),
(581,665,o),
(607,566,o),
(601,500,qs),
(596,449,o),
(591,407,o),
(582,365,cs),
(573,323,o),
(561,282,o),
(544,230,cs),
(522,164,o),
(454,65,o),
(318,0,o),
(231,0,qs)
);
},
{
closed = 1;
nodes = (
(179,85,ls),
(174,62,o),
(184,50,o),
(207,50,cs),
(242,50,ls),
(350,50,o),
(468,151,o),
(494,230,qs),
(510,282,o),
(522,323,o),
(531,365,cs),
(540,407,o),
(545,449,o),
(551,500,cs),
(559,578,o),
(483,680,o),
(376,680,qs),
(341,680,ls),
(318,680,o),
(303,668,o),
(298,645,cs)
);
},
{
closed = 1;
nodes = (
(397,950,o),
(405,945,o),
(411,937,cs),
(463,863,ls),
(474,848,o),
(486,848,o),
(503,863,cs),
(589,938,ls),
(598,946,o),
(608,950,o),
(619,950,cs),
(641,950,o),
(643,942,o),
(626,925,cs),
(527,833,ls),
(511,818,o),
(487,810,o),
(472,810,cs),
(457,810,o),
(437,818,o),
(427,833,cs),
(368,924,ls),
(357,941,o),
(363,950,o),
(386,950,cs)
);
}
);
width = 600;
}
);
unicode = 270;
},
{
glyphname = Dcroat;
layers = (
{
layerId = "BA60169A-A75E-4ACC-B9C7-976B0FD777BA";
shapes = (
{
closed = 1;
nodes = (
(153,0,ls),
(93,0,o),
(69,30,o),
(82,90,cs),
(199,640,ls),
(212,700,o),
(248,730,o),
(308,730,cs),
(425,730,ls),
(524,730,o),
(623,672,o),
(657,551,o),
(655,485,qs),
(654,442,o),
(650,405,o),
(642,367,cs),
(634,328,o),
(621,289,o),
(604,245,cs),
(577,175,o),
(493,59,o),
(369,0,o),
(270,0,qs)
);
},
{
closed = 1;
nodes = (
(250,175,ls),
(244,148,o),
(255,135,o),
(282,135,cs),
(299,135,ls),
(368,135,o),
(441,206,o),
(458,245,qs),
(477,289,o),
(491,327,o),
(499,365,cs),
(507,403,o),
(510,442,o),
(509,485,cs),
(508,528,o),
(464,595,o),
(396,595,qs),
(379,595,ls),
(352,595,o),
(337,582,o),
(331,555,cs)
);
},
{
closed = 1;
nodes = (
(132,315,ls),
(92,315,o),
(70,330,o),
(81,380,cs),
(91,430,o),
(120,445,o),
(160,445,cs),
(330,445,ls),
(370,445,o),
(391,430,o),
(381,380,cs),
(370,330,o),
(342,315,o),
(302,315,cs)
);
}
);
width = 600;
},
{
layerId = "61B1B659-4F4A-4AEF-9EF6-2030D7AB6825";
shapes = (
{
closed = 1;
nodes = (
(172,0,ls),
(118,0,o),
(98,26,o),
(109,80,cs),
(230,650,ls),
(242,704,o),
(273,730,o),
(327,730,cs),
(416,730,ls),
(487,730,o),
(588,680,o),
(619,577,o),
(621,511,qs),
(622,466,o),
(617,417,o),
(606,369,cs),
(596,318,o),
(579,268,o),
(559,220,cs),
(531,154,o),
(454,50,o),
(332,0,o),
(261,0,qs)
);
},
{
closed = 1;
nodes = (
(210,130,ls),
(204,103,o),
(214,90,o),
(241,90,cs),
(280,90,ls),
(350,90,o),
(448,165,o),
(478,230,qs),
(499,277,o),
(514,322,o),
(524,366,cs),
(533,411,o),
(537,455,o),
(536,501,cs),
(533,565,o),
(467,640,o),
(397,640,qs),
(358,640,ls),
(331,640,o),
(315,627,o),
(310,600,cs)
);
},
{
closed = 1;
nodes = (
(108,345,ls),
(93,345,o),
(74,350,o),
(81,380,cs),
(87,410,o),
(108,415,o),
(123,415,cs),
(353,415,ls),
(368,415,o),
(387,410,o),
(381,380,cs),
(374,350,o),
(353,345,o),
(338,345,cs)
);
}
);
width = 600;
},
{
layerId = "F8E4993A-289F-423E-A261-7F0C3E35DC2E";
shapes = (
{
closed = 1;
nodes = (
(181,0,ls),
(133,0,o),
(115,23,o),
(125,70,cs),
(250,660,ls),
(260,707,o),
(288,730,o),
(336,730,cs),
(386,730,ls),
(473,730,o),
(581,665,o),
(607,566,o),
(601,500,qs),
(596,449,o),
(591,407,o),
(582,365,cs),
(573,323,o),
(561,282,o),
(544,230,cs),
(522,164,o),
(454,65,o),
(318,0,o),
(231,0,qs)
);
},
{
closed = 1;
nodes = (
(179,85,ls),
(174,62,o),
(184,50,o),
(207,50,cs),
(242,50,ls),
(350,50,o),
(468,151,o),
(494,230,qs),
(510,282,o),
(522,323,o),
(531,365,cs),
(540,407,o),
(545,449,o),
(551,500,cs),
(559,578,o),
(483,680,o),
(376,680,qs),
(341,680,ls),
(318,680,o),
(303,668,o),
(298,645,cs)
);
},
{
closed = 1;
nodes = (
(101,357,ls),
(84,357,o),
(78,365,o),
(81,382,cs),
(85,399,o),
(95,407,o),
(112,407,cs),
(362,407,ls),
(379,407,o),
(385,399,o),
(381,382,cs),
(378,365,o),
(368,357,o),
(351,357,cs)
);
}
);
width = 600;
}
);
unicode = 272;
},
{
color = (153, 254, 255, 255);
glyphname = E;
layers = (
{
layerId = "BA60169A-A75E-4ACC-B9C7-976B0FD777BA";
shapes = (
{
closed = 1;
nodes = (
(398,600,ls),
(369,600,o),
(355,588,o),
(349,560,cs),
(330,470,ls),
(325,448,o),
(332,440,o),
(354,440,cs),
(527,440,ls),
(569,440,o),
(588,417,o),
(579,375,cs),
(570,333,o),
(540,308,o),
(498,308,cs),
(325,308,ls),
(305,308,o),
(293,298,o),
(289,278,cs),
(266,170,ls),
(260,143,o),
(271,130,o),
(298,130,cs),
(493,130,ls),
(537,130,o),
(553,109,o),
(544,65,cs),
(534,21,o),
(509,0,o),
(465,0,cs),
(180,0,ls),
(113,0,o),
(87,33,o),
(101,100,cs),
(214,630,ls),
(228,697,o),
(268,730,o),
(335,730,cs),
(620,730,ls),
(664,730,o),
(681,709,o),
(671,665,cs),
(662,621,o),
(637,600,o),
(593,600,cs)
);
}
);
width = 600;
},
{
layerId = "61B1B659-4F4A-4AEF-9EF6-2030D7AB6825";
shapes = (
{
closed = 1;
nodes = (
(366,640,ls),
(339,640,o),
(323,627,o),
(318,600,cs),
(286,452,ls),
(282,435,o),
(289,427,o),
(306,427,cs),
(536,427,ls),
(563,427,o),
(577,409,o),
(571,382,cs),
(565,355,o),
(544,337,o),
(517,337,cs),
(287,337,ls),
(270,337,o),
(260,329,o),
(256,312,cs),
(218,130,ls),
(212,103,o),
(222,90,o),
(249,90,cs),
(498,90,ls),
(525,90,o),
(535,72,o),
(530,45,cs),
(524,18,o),
(506,0,o),
(479,0,cs),
(180,0,ls),
(126,0,o),
(106,26,o),
(117,80,cs),
(238,650,ls),
(250,704,o),
(281,730,o),
(335,730,cs),
(634,730,ls),
(661,730,o),
(671,712,o),
(666,685,cs),
(660,658,o),
(642,640,o),
(615,640,cs)
);
}
);
width = 600;
},
{
layerId = "F8E4993A-289F-423E-A261-7F0C3E35DC2E";
shapes = (
{
closed = 1;
nodes = (
(350,680,ls),
(327,680,o),
(312,668,o),
(307,645,cs),
(261,426,ls),
(258,413,o),
(263,406,o),
(276,406,cs),
(539,406,ls),
(554,406,o),
(559,396,o),
(556,381,cs),
(553,366,o),
(544,356,o),
(529,356,cs),
(266,356,ls),
(253,356,o),
(244,349,o),
(241,336,cs),
(188,85,ls),
(183,62,o),
(193,50,o),
(216,50,cs),
(498,50,ls),
(513,50,o),
(519,40,o),
(515,25,cs),
(512,10,o),
(502,0,o),
(487,0,cs),
(190,0,ls),
(143,0,o),
(125,23,o),
(135,70,cs),
(260,660,ls),
(270,707,o),
(298,730,o),
(345,730,cs),
(642,730,ls),
(657,730,o),
(663,720,o),
(660,705,cs),
(657,690,o),
(647,680,o),
(632,680,cs)
);
}
);
width = 600;
}
);
unicode = 69;
},
{
glyphname = Eacute;
layers = (
{
layerId = "BA60169A-A75E-4ACC-B9C7-976B0FD777BA";
shapes = (
{
closed = 1;
nodes = (
(398,600,ls),
(369,600,o),
(355,588,o),
(349,560,cs),
(330,470,ls),
(325,448,o),
(332,440,o),
(354,440,cs),
(527,440,ls),
(569,440,o),
(588,417,o),
(579,375,cs),
(570,333,o),
(540,308,o),
(498,308,cs),
(325,308,ls),
(305,308,o),
(293,298,o),
(289,278,cs),
(266,170,ls),
(260,143,o),
(271,130,o),
(298,130,cs),
(493,130,ls),
(537,130,o),
(553,109,o),
(544,65,cs),
(534,21,o),
(509,0,o),
(465,0,cs),
(180,0,ls),
(113,0,o),
(87,33,o),
(101,100,cs),
(214,630,ls),
(228,697,o),
(268,730,o),
(335,730,cs),
(620,730,ls),
(664,730,o),
(681,709,o),
(671,665,cs),
(662,621,o),
(637,600,o),
(593,600,cs)
);
},
{
closed = 1;
nodes = (
(421,810,o),
(416,835,o),
(466,889,cs),
(485,910,ls),
(516,943,o),
(546,950,o),
(585,950,cs),
(652,950,o),
(658,924,o),
(605,873,cs),
(578,848,ls),
(552,822,o),
(521,810,o),
(488,810,cs)
);
}
);
width = 600;
},
{
layerId = "61B1B659-4F4A-4AEF-9EF6-2030D7AB6825";
shapes = (
{
closed = 1;
nodes = (
(366,640,ls),
(339,640,o),
(323,627,o),
(318,600,cs),
(286,452,ls),
(282,435,o),
(289,427,o),
(306,427,cs),
(536,427,ls),
(563,427,o),
(577,409,o),
(571,382,cs),
(565,355,o),
(544,337,o),
(517,337,cs),
(287,337,ls),
(270,337,o),
(260,329,o),
(256,312,cs),
(218,130,ls),
(212,103,o),
(222,90,o),
(249,90,cs),
(498,90,ls),
(525,90,o),
(535,72,o),
(530,45,cs),
(524,18,o),
(506,0,o),
(479,0,cs),
(180,0,ls),
(126,0,o),
(106,26,o),
(117,80,cs),
(238,650,ls),
(250,704,o),
(281,730,o),
(335,730,cs),
(634,730,ls),
(661,730,o),
(671,712,o),
(666,685,cs),
(660,658,o),
(642,640,o),
(615,640,cs)
);
},
{
closed = 1;
nodes = (
(444,810,o),
(440,826,o),
(472,859,cs),
(534,924,ls),
(551,941,o),
(570,950,o),
(592,950,cs),
(635,950,o),
(640,933,o),
(606,899,cs),
(540,834,ls),
(524,818,o),
(506,810,o),
(485,810,cs)
);
}
);
width = 600;
},
{
layerId = "F8E4993A-289F-423E-A261-7F0C3E35DC2E";
shapes = (
{
closed = 1;
nodes = (
(350,680,ls),
(327,680,o),
(312,668,o),
(307,645,cs),
(261,426,ls),
(258,413,o),
(263,406,o),
(276,406,cs),
(539,406,ls),
(554,406,o),
(559,396,o),
(556,381,cs),
(553,366,o),
(544,356,o),
(529,356,cs),
(266,356,ls),
(253,356,o),
(244,349,o),
(241,336,cs),
(188,85,ls),
(183,62,o),
(193,50,o),
(216,50,cs),
(498,50,ls),
(513,50,o),
(519,40,o),
(515,25,cs),
(512,10,o),
(502,0,o),
(487,0,cs),
(190,0,ls),
(143,0,o),
(125,23,o),
(135,70,cs),
(260,660,ls),
(270,707,o),
(298,730,o),
(345,730,cs),
(642,730,ls),
(657,730,o),
(663,720,o),
(660,705,cs),
(657,690,o),
(647,680,o),
(632,680,cs)
);
},
{
closed = 1;
nodes = (
(462,810,o),
(460,819,o),
(478,838,cs),
(572,934,ls),
(582,945,o),
(594,950,o),
(607,950,cs),
(633,950,o),
(635,940,o),
(614,919,cs),
(518,824,ls),
(509,815,o),
(498,810,o),
(486,810,cs)
);
}
);
width = 600;
}
);
unicode = 201;
},
{
glyphname = Ebreve;
layers = (
{
layerId = "BA60169A-A75E-4ACC-B9C7-976B0FD777BA";
shapes = (
{
closed = 1;
nodes = (
(398,600,ls),
(369,600,o),
(355,588,o),
(349,560,cs),
(330,470,ls),
(325,448,o),
(332,440,o),
(354,440,cs),
(527,440,ls),
(569,440,o),
(588,417,o),
(579,375,cs),
(570,333,o),
(540,308,o),
(498,308,cs),
(325,308,ls),
(305,308,o),
(293,298,o),
(289,278,cs),
(266,170,ls),
(260,143,o),
(271,130,o),
(298,130,cs),
(493,130,ls),
(537,130,o),
(553,109,o),
(544,65,cs),
(534,21,o),
(509,0,o),
(465,0,cs),
(180,0,ls),
(113,0,o),
(87,33,o),
(101,100,cs),
(214,630,ls),
(228,697,o),
(268,730,o),
(335,730,cs),
(620,730,ls),
(664,730,o),
(681,709,o),
(671,665,cs),
(662,621,o),
(637,600,o),
(593,600,cs)
);
},
{
closed = 1;
nodes = (
(314,927,o),
(338,950,o),
(379,950,cs),
(392,950,o),
(401,947,o),
(408,942,cs),
(424,931,o),
(432,912,o),
(451,898,cs),
(467,887,o),
(494,887,qs),
(521,887,o),
(541,898,qs),
(565,911,o),
(581,929,o),
(599,940,cs),
(609,946,o),
(620,950,o),
(634,950,cs),
(675,950,o),
(690,927,o),
(669,894,cs),
(650,864,o),
(618,842,qs),
(558,800,o),
(475,800,qs),
(392,801,o),
(350,842,qs),
(327,865,o),
(321,894,qs)
);
}
);
width = 600;
},
{
layerId = "61B1B659-4F4A-4AEF-9EF6-2030D7AB6825";
shapes = (
{
closed = 1;
nodes = (
(366,640,ls),
(339,640,o),
(323,627,o),
(318,600,cs),
(286,452,ls),
(282,435,o),
(289,427,o),
(306,427,cs),
(536,427,ls),
(563,427,o),
(577,409,o),
(571,382,cs),
(565,355,o),
(544,337,o),
(517,337,cs),
(287,337,ls),
(270,337,o),
(260,329,o),
(256,312,cs),
(218,130,ls),
(212,103,o),
(222,90,o),
(249,90,cs),
(498,90,ls),
(525,90,o),
(535,72,o),
(530,45,cs),
(524,18,o),
(506,0,o),
(479,0,cs),
(180,0,ls),
(126,0,o),
(106,26,o),
(117,80,cs),
(238,650,ls),
(250,704,o),
(281,730,o),
(335,730,cs),
(634,730,ls),
(661,730,o),
(671,712,o),
(666,685,cs),
(660,658,o),
(642,640,o),
(615,640,cs)
);
},
{
closed = 1;
nodes = (
(348,937,o),
(362,950,o),
(387,950,cs),
(402,950,o),
(411,946,o),
(417,939,cs),
(427,927,o),
(428,909,o),
(435,895,cs),
(451,863,o),
(492,863,qs),
(533,863,o),
(564,895,qs),
(577,908,o),
(587,925,o),
(600,937,cs),
(610,945,o),
(620,950,o),
(636,950,cs),
(661,950,o),
(670,937,o),
(661,915,cs),
(643,874,o),
(606,845,qs),
(553,805,o),
(481,805,qs),
(409,805,o),
(374,845,qs),
(349,874,o),
(349,915,qs)
);
}
);
width = 600;
},
{
layerId = "F8E4993A-289F-423E-A261-7F0C3E35DC2E";
shapes = (
{
closed = 1;
nodes = (
(350,680,ls),
(327,680,o),
(312,668,o),
(307,645,cs),
(261,426,ls),
(258,413,o),
(263,406,o),
(276,406,cs),
(539,406,ls),
(554,406,o),
(559,396,o),
(556,381,cs),
(553,366,o),
(544,356,o),
(529,356,cs),
(266,356,ls),
(253,356,o),
(244,349,o),
(241,336,cs),
(188,85,ls),
(183,62,o),
(193,50,o),
(216,50,cs),
(498,50,ls),
(513,50,o),
(519,40,o),
(515,25,cs),
(512,10,o),
(502,0,o),
(487,0,cs),
(190,0,ls),
(143,0,o),
(125,23,o),
(135,70,cs),
(260,660,ls),
(270,707,o),
(298,730,o),
(345,730,cs),
(642,730,ls),
(657,730,o),
(663,720,o),
(660,705,cs),
(657,690,o),
(647,680,o),
(632,680,cs)
);
},
{
closed = 1;
nodes = (
(369,943,o),
(379,950,o),
(394,950,cs),
(403,950,o),
(408,946,o),
(411,939,cs),
(416,924,o),
(413,896,o),
(427,876,cs),
(446,848,o),
(494,848,qs),
(541,848,o),
(574,876,qs),
(601,898,o),
(609,925,o),
(620,939,cs),
(625,946,o),
(630,950,o),
(639,950,cs),
(654,950,o),
(661,943,o),
(656,928,cs),
(640,879,o),
(601,847,qs),
(554,808,o),
(487,808,qs),
(420,808,o),
(389,847,qs),
(364,879,o),
(368,928,qs)
);
}
);
width = 600;
}
);
unicode = 276;
},
{
glyphname = Ecaron;
layers = (
{
layerId = "BA60169A-A75E-4ACC-B9C7-976B0FD777BA";
shapes = (
{
closed = 1;
nodes = (
(398,600,ls),
(369,600,o),
(355,588,o),
(349,560,cs),
(330,470,ls),
(325,448,o),
(332,440,o),
(354,440,cs),
(527,440,ls),
(569,440,o),
(588,417,o),
(579,375,cs),
(570,333,o),
(540,308,o),
(498,308,cs),
(325,308,ls),
(305,308,o),
(293,298,o),
(289,278,cs),
(266,170,ls),
(260,143,o),
(271,130,o),
(298,130,cs),
(493,130,ls),
(537,130,o),
(553,109,o),
(544,65,cs),
(534,21,o),
(509,0,o),
(465,0,cs),
(180,0,ls),
(113,0,o),
(87,33,o),
(101,100,cs),
(214,630,ls),
(228,697,o),
(268,730,o),
(335,730,cs),
(620,730,ls),
(664,730,o),
(681,709,o),
(671,665,cs),
(662,621,o),
(637,600,o),
(593,600,cs)
);
},
{
closed = 1;
nodes = (
(423,950,o),
(445,939,o),
(462,917,cs),
(463,916,ls),
(482,892,o),
(504,891,o),
(534,915,cs),
(538,919,ls),
(565,941,o),
(592,950,o),
(622,950,cs),
(682,950,o),
(687,928,o),
(636,885,cs),
(607,860,ls),
(567,826,o),
(514,810,o),
(477,810,cs),
(440,810,o),
(393,825,o),
(369,860,cs),
(351,885,ls),
(320,930,o),
(332,950,o),
(393,950,cs)
);
}
);
width = 600;
},
{
layerId = "61B1B659-4F4A-4AEF-9EF6-2030D7AB6825";
shapes = (
{
closed = 1;
nodes = (
(366,640,ls),
(339,640,o),
(323,627,o),
(318,600,cs),
(286,452,ls),
(282,435,o),
(289,427,o),
(306,427,cs),
(536,427,ls),
(563,427,o),
(577,409,o),
(571,382,cs),
(565,355,o),
(544,337,o),
(517,337,cs),
(287,337,ls),
(270,337,o),
(260,329,o),
(256,312,cs),
(218,130,ls),
(212,103,o),
(222,90,o),
(249,90,cs),
(498,90,ls),
(525,90,o),
(535,72,o),
(530,45,cs),
(524,18,o),
(506,0,o),
(479,0,cs),
(180,0,ls),
(126,0,o),
(106,26,o),
(117,80,cs),
(238,650,ls),
(250,704,o),
(281,730,o),
(335,730,cs),
(634,730,ls),
(661,730,o),
(671,712,o),
(666,685,cs),
(660,658,o),
(642,640,o),
(615,640,cs)
);
},
{
closed = 1;
nodes = (
(422,950,o),
(439,942,o),
(452,926,cs),
(473,900,ls),
(488,881,o),
(509,882,o),
(531,900,cs),
(566,927,ls),
(585,942,o),
(606,950,o),
(628,950,cs),
(672,950,o),
(675,934,o),
(637,903,cs),
(559,839,ls),
(535,819,o),
(505,810,o),
(482,810,cs),
(459,810,o),
(434,819,o),
(418,839,cs),
(369,902,ls),
(344,934,o),
(354,950,o),
(399,950,cs)
);
}
);
width = 600;
},
{
layerId = "F8E4993A-289F-423E-A261-7F0C3E35DC2E";
shapes = (
{
closed = 1;
nodes = (
(350,680,ls),
(327,680,o),
(312,668,o),
(307,645,cs),
(261,426,ls),
(258,413,o),
(263,406,o),
(276,406,cs),
(539,406,ls),
(554,406,o),
(559,396,o),
(556,381,cs),
(553,366,o),
(544,356,o),
(529,356,cs),
(266,356,ls),
(253,356,o),
(244,349,o),
(241,336,cs),
(188,85,ls),
(183,62,o),
(193,50,o),
(216,50,cs),
(498,50,ls),
(513,50,o),
(519,40,o),
(515,25,cs),
(512,10,o),
(502,0,o),
(487,0,cs),
(190,0,ls),
(143,0,o),
(125,23,o),
(135,70,cs),
(260,660,ls),
(270,707,o),
(298,730,o),
(345,730,cs),
(642,730,ls),
(657,730,o),
(663,720,o),
(660,705,cs),
(657,690,o),
(647,680,o),
(632,680,cs)
);
},
{
closed = 1;
nodes = (
(412,950,o),
(420,945,o),
(426,937,cs),
(478,863,ls),
(489,848,o),
(501,848,o),
(518,863,cs),
(604,938,ls),
(613,946,o),
(623,950,o),
(634,950,cs),
(656,950,o),
(658,942,o),
(641,925,cs),
(542,833,ls),
(526,818,o),
(502,810,o),
(487,810,cs),
(472,810,o),
(452,818,o),
(442,833,cs),
(383,924,ls),
(372,941,o),
(378,950,o),
(401,950,cs)
);
}
);
width = 600;
}
);
unicode = 282;
},
{
glyphname = Ecircumflex;
layers = (
{
layerId = "BA60169A-A75E-4ACC-B9C7-976B0FD777BA";
shapes = (
{
closed = 1;
nodes = (
(398,600,ls),
(369,600,o),
(355,588,o),
(349,560,cs),
(330,470,ls),
(325,448,o),
(332,440,o),
(354,440,cs),
(527,440,ls),
(569,440,o),
(588,417,o),
(579,375,cs),
(570,333,o),
(540,308,o),
(498,308,cs),
(325,308,ls),
(305,308,o),
(293,298,o),
(289,278,cs),
(266,170,ls),
(260,143,o),
(271,130,o),
(298,130,cs),
(493,130,ls),
(537,130,o),
(553,109,o),
(544,65,cs),
(534,21,o),
(509,0,o),
(465,0,cs),
(180,0,ls),
(113,0,o),
(87,33,o),
(101,100,cs),
(214,630,ls),
(228,697,o),
(268,730,o),
(335,730,cs),
(620,730,ls),
(664,730,o),
(681,709,o),
(671,665,cs),
(662,621,o),
(637,600,o),
(593,600,cs)
);
},
{
closed = 1;
nodes = (
(302,810,o),
(298,831,o),
(349,875,cs),
(377,900,ls),
(418,934,o),
(460,950,o),
(507,950,cs),
(554,950,o),
(590,934,o),
(615,900,cs),
(634,875,ls),
(667,832,o),
(652,810,o),
(592,810,cs),
(562,810,o),
(539,820,o),
(522,841,cs),
(519,845,ls),
(500,868,o),
(476,868,o),
(447,844,cs),
(446,843,ls),
(421,821,o),
(393,810,o),
(363,810,cs)
);
}
);
width = 600;
},
{
layerId = "61B1B659-4F4A-4AEF-9EF6-2030D7AB6825";
shapes = (
{
closed = 1;
nodes = (
(366,640,ls),
(339,640,o),
(323,627,o),
(318,600,cs),
(286,452,ls),
(282,435,o),
(289,427,o),
(306,427,cs),
(536,427,ls),
(563,427,o),
(577,409,o),
(571,382,cs),
(565,355,o),
(544,337,o),
(517,337,cs),
(287,337,ls),
(270,337,o),
(260,329,o),
(256,312,cs),
(218,130,ls),
(212,103,o),
(222,90,o),
(249,90,cs),
(498,90,ls),
(525,90,o),
(535,72,o),
(530,45,cs),
(524,18,o),
(506,0,o),
(479,0,cs),
(180,0,ls),
(126,0,o),
(106,26,o),
(117,80,cs),
(238,650,ls),
(250,704,o),
(281,730,o),
(335,730,cs),
(634,730,ls),
(661,730,o),
(671,712,o),
(666,685,cs),
(660,658,o),
(642,640,o),
(615,640,cs)
);
},
{
closed = 1;
nodes = (
(324,810,o),
(321,826,o),
(359,858,cs),
(436,921,ls),
(460,941,o),
(484,950,o),
(512,950,cs),
(540,950,o),
(561,941,o),
(577,921,cs),
(627,857,ls),
(652,826,o),
(642,810,o),
(598,810,cs),
(576,810,o),
(559,818,o),
(546,833,cs),
(523,860,ls),
(508,878,o),
(488,879,o),
(465,860,cs),
(432,834,ls),
(413,818,o),
(392,810,o),
(369,810,cs)
);
}
);
width = 600;
},
{
layerId = "F8E4993A-289F-423E-A261-7F0C3E35DC2E";
shapes = (
{
closed = 1;
nodes = (
(350,680,ls),
(327,680,o),
(312,668,o),
(307,645,cs),
(261,426,ls),
(258,413,o),
(263,406,o),
(276,406,cs),
(539,406,ls),
(554,406,o),
(559,396,o),
(556,381,cs),
(553,366,o),
(544,356,o),
(529,356,cs),
(266,356,ls),
(253,356,o),
(244,349,o),
(241,336,cs),
(188,85,ls),
(183,62,o),
(193,50,o),
(216,50,cs),
(498,50,ls),
(513,50,o),
(519,40,o),
(515,25,cs),
(512,10,o),
(502,0,o),
(487,0,cs),
(190,0,ls),
(143,0,o),
(125,23,o),
(135,70,cs),
(260,660,ls),
(270,707,o),
(298,730,o),
(345,730,cs),
(642,730,ls),
(657,730,o),
(663,720,o),
(660,705,cs),
(657,690,o),
(647,680,o),
(632,680,cs)
);
},
{
closed = 1;
nodes = (
(348,810,o),
(346,819,o),
(365,836,cs),
(462,927,ls),
(478,942,o),
(497,950,o),
(517,950,cs),
(537,950,o),
(552,942,o),
(562,927,cs),
(622,835,ls),
(632,818,o),
(626,810,o),
(604,810,cs),
(593,810,o),
(585,814,o),
(580,822,cs),
(526,897,ls),
(515,912,o),
(503,912,o),
(486,897,cs),
(402,823,ls),
(392,815,o),
(382,810,o),
(371,810,cs)
);
}
);
width = 600;
}
);
unicode = 202;
},
{
glyphname = Ecircumflexacute;
layers = (
{
layerId = "BA60169A-A75E-4ACC-B9C7-976B0FD777BA";
shapes = (
{
closed = 1;
nodes = (
(398,600,ls),
(369,600,o),
(355,588,o),
(349,560,cs),
(330,470,ls),
(325,448,o),
(332,440,o),
(354,440,cs),
(527,440,ls),
(569,440,o),
(588,417,o),
(579,375,cs),
(570,333,o),
(540,308,o),
(498,308,cs),
(325,308,ls),
(305,308,o),
(293,298,o),
(289,278,cs),
(266,170,ls),
(260,143,o),
(271,130,o),
(298,130,cs),
(493,130,ls),
(537,130,o),
(553,109,o),
(544,65,cs),
(534,21,o),
(509,0,o),
(465,0,cs),
(180,0,ls),
(113,0,o),
(87,33,o),
(101,100,cs),
(214,630,ls),
(228,697,o),
(268,730,o),
(335,730,cs),
(620,730,ls),
(664,730,o),
(681,709,o),
(671,665,cs),
(662,621,o),
(637,600,o),
(593,600,cs)
);
},
{
closed = 1;
nodes = (
(647,905,o),
(642,926,o),
(692,971,cs),
(706,984,ls),
(733,1008,o),
(763,1020,o),
(795,1020,cs),
(860,1020,o),
(865,998,o),
(809,952,cs),
(791,937,ls),
(766,916,o),
(737,905,o),
(707,905,cs)
);
},
{
closed = 1;
nodes = (
(296,780,o),
(291,801,o),
(343,845,cs),
(371,870,ls),
(411,904,o),
(454,920,o),
(501,920,cs),
(548,920,o),
(583,904,o),
(609,870,cs),
(627,845,ls),
(659,801,o),
(646,780,o),
(585,780,cs),
(555,780,o),
(531,790,o),
(515,812,cs),
(513,814,ls),
(494,838,o),
(472,838,o),
(443,814,cs),
(441,812,ls),
(415,790,o),
(387,780,o),
(357,780,cs)
);
}
);
width = 600;
},
{
layerId = "61B1B659-4F4A-4AEF-9EF6-2030D7AB6825";
shapes = (
{
closed = 1;
nodes = (
(366,640,ls),
(339,640,o),
(323,627,o),
(318,600,cs),
(286,452,ls),
(282,435,o),
(289,427,o),
(306,427,cs),
(536,427,ls),
(563,427,o),
(577,409,o),
(571,382,cs),
(565,355,o),
(544,337,o),
(517,337,cs),
(287,337,ls),
(270,337,o),
(260,329,o),
(256,312,cs),
(218,130,ls),
(212,103,o),
(222,90,o),
(249,90,cs),
(498,90,ls),
(525,90,o),
(535,72,o),
(530,45,cs),
(524,18,o),
(506,0,o),
(479,0,cs),
(180,0,ls),
(126,0,o),
(106,26,o),
(117,80,cs),
(238,650,ls),
(250,704,o),
(281,730,o),
(335,730,cs),
(634,730,ls),
(661,730,o),
(671,712,o),
(666,685,cs),
(660,658,o),
(642,640,o),
(615,640,cs)
);
},
{
closed = 1;
nodes = (
(631,900,o),
(627,916,o),
(663,949,cs),
(712,994,ls),
(731,1011,o),
(751,1020,o),
(774,1020,cs),
(820,1020,o),
(823,1004,o),
(785,970,cs),
(733,924,ls),
(715,908,o),
(696,900,o),
(674,900,cs)
);
},
{
closed = 1;
nodes = (
(318,780,o),
(314,796,o),
(352,827,cs),
(428,890,ls),
(452,910,o),
(478,920,o),
(506,920,cs),
(534,920,o),
(555,910,o),
(571,890,cs),
(620,828,ls),
(645,796,o),
(635,780,o),
(590,780,cs),
(567,780,o),
(550,788,o),
(537,804,cs),
(515,830,ls),
(500,849,o),
(480,849,o),
(457,830,cs),
(424,803,ls),
(405,788,o),
(384,780,o),
(362,780,cs)
);
}
);
width = 600;
},
{
layerId = "F8E4993A-289F-423E-A261-7F0C3E35DC2E";
shapes = (
{
closed = 1;
nodes = (
(350,680,ls),
(327,680,o),
(312,668,o),
(307,645,cs),
(261,426,ls),
(258,413,o),
(263,406,o),
(276,406,cs),
(539,406,ls),
(554,406,o),
(559,396,o),
(556,381,cs),
(553,366,o),
(544,356,o),
(529,356,cs),
(266,356,ls),
(253,356,o),
(244,349,o),
(241,336,cs),
(188,85,ls),
(183,62,o),
(193,50,o),
(216,50,cs),
(498,50,ls),
(513,50,o),
(519,40,o),
(515,25,cs),
(512,10,o),
(502,0,o),
(487,0,cs),
(190,0,ls),
(143,0,o),
(125,23,o),
(135,70,cs),
(260,660,ls),
(270,707,o),
(298,730,o),
(345,730,cs),
(642,730,ls),
(657,730,o),
(663,720,o),
(660,705,cs),
(657,690,o),
(647,680,o),
(632,680,cs)
);
},
{
closed = 1;
nodes = (
(621,895,o),
(619,904,o),
(637,921,cs),
(726,1005,ls),
(737,1015,o),
(749,1020,o),
(762,1020,cs),
(789,1020,o),
(791,1011,o),
(769,991,cs),
(674,907,ls),
(664,899,o),
(654,895,o),
(643,895,cs)
);
},
{
closed = 1;
nodes = (
(342,780,o),
(340,789,o),
(358,806,cs),
(456,897,ls),
(472,912,o),
(491,920,o),
(511,920,cs),
(531,920,o),
(546,912,o),
(556,897,cs),
(615,805,ls),
(626,788,o),
(620,780,o),
(598,780,cs),
(587,780,o),
(579,784,o),
(573,792,cs),
(519,867,ls),
(509,882,o),
(497,882,o),
(479,867,cs),
(396,793,ls),
(386,785,o),
(376,780,o),
(365,780,cs)
);
}
);
width = 600;
}
);
unicode = 7870;
},
{
glyphname = Ecircumflexdotbelow;
layers = (
{
layerId = "BA60169A-A75E-4ACC-B9C7-976B0FD777BA";
shapes = (
{
closed = 1;
nodes = (
(398,600,ls),
(369,600,o),
(355,588,o),
(349,560,cs),
(330,470,ls),
(325,448,o),
(332,440,o),
(354,440,cs),
(527,440,ls),
(569,440,o),
(588,417,o),
(579,375,cs),
(570,333,o),
(540,308,o),
(498,308,cs),
(325,308,ls),
(305,308,o),
(293,298,o),
(289,278,cs),
(266,170,ls),
(260,143,o),
(271,130,o),
(298,130,cs),
(493,130,ls),
(537,130,o),
(553,109,o),
(544,65,cs),
(534,21,o),
(509,0,o),
(465,0,cs),
(180,0,ls),
(113,0,o),
(87,33,o),
(101,100,cs),
(214,630,ls),
(228,697,o),
(268,730,o),
(335,730,cs),
(620,730,ls),
(664,730,o),
(681,709,o),
(671,665,cs),
(662,621,o),
(637,600,o),
(593,600,cs)
);
},
{
closed = 1;
nodes = (
(214,-233,o),
(174,-191,o),
(182,-155,qs),
(190,-119,o),
(248,-77,o),
(289,-77,qs),
(330,-77,o),
(370,-119,o),
(362,-155,qs),
(354,-191,o),
(296,-233,o),
(255,-233,qs)
);
},
{
closed = 1;
nodes = (
(302,810,o),
(298,831,o),
(349,875,cs),
(377,900,ls),
(418,934,o),
(460,950,o),
(507,950,cs),
(554,950,o),
(590,934,o),
(615,900,cs),
(634,875,ls),
(667,832,o),
(652,810,o),
(592,810,cs),
(562,810,o),
(539,820,o),
(522,841,cs),
(519,845,ls),
(500,868,o),
(476,868,o),
(447,844,cs),
(446,843,ls),
(421,821,o),
(393,810,o),
(363,810,cs)
);
}
);
width = 600;
},
{
layerId = "61B1B659-4F4A-4AEF-9EF6-2030D7AB6825";
shapes = (
{
closed = 1;
nodes = (
(366,640,ls),
(339,640,o),
(323,627,o),
(318,600,cs),
(286,452,ls),
(282,435,o),
(289,427,o),
(306,427,cs),
(536,427,ls),
(563,427,o),
(577,409,o),
(571,382,cs),
(565,355,o),
(544,337,o),
(517,337,cs),
(287,337,ls),
(270,337,o),
(260,329,o),
(256,312,cs),
(218,130,ls),
(212,103,o),
(222,90,o),
(249,90,cs),
(498,90,ls),
(525,90,o),
(535,72,o),
(530,45,cs),
(524,18,o),
(506,0,o),
(479,0,cs),
(180,0,ls),
(126,0,o),
(106,26,o),
(117,80,cs),
(238,650,ls),
(250,704,o),
(281,730,o),
(335,730,cs),
(634,730,ls),
(661,730,o),
(671,712,o),
(666,685,cs),
(660,658,o),
(642,640,o),
(615,640,cs)
);
},
{
closed = 1;
nodes = (
(232,-213,o),
(201,-179,o),
(207,-150,qs),
(213,-120,o),
(259,-85,o),
(292,-85,qs),
(325,-85,o),
(355,-120,o),
(349,-150,qs),
(343,-179,o),
(298,-213,o),
(265,-213,qs)
);
},
{
closed = 1;
nodes = (
(324,810,o),
(321,826,o),
(359,858,cs),
(436,921,ls),
(460,941,o),
(484,950,o),
(512,950,cs),
(540,950,o),
(561,941,o),
(577,921,cs),
(627,857,ls),
(652,826,o),
(642,810,o),
(598,810,cs),
(576,810,o),
(559,818,o),
(546,833,cs),
(523,860,ls),
(508,878,o),
(488,879,o),
(465,860,cs),
(432,834,ls),
(413,818,o),
(392,810,o),
(369,810,cs)
);
}
);
width = 600;
},
{
layerId = "F8E4993A-289F-423E-A261-7F0C3E35DC2E";
shapes = (
{
closed = 1;
nodes = (
(350,680,ls),
(327,680,o),
(312,668,o),
(307,645,cs),
(261,426,ls),
(258,413,o),
(263,406,o),
(276,406,cs),
(539,406,ls),
(554,406,o),
(559,396,o),
(556,381,cs),
(553,366,o),
(544,356,o),
(529,356,cs),
(266,356,ls),
(253,356,o),
(244,349,o),
(241,336,cs),
(188,85,ls),
(183,62,o),
(193,50,o),
(216,50,cs),
(498,50,ls),
(513,50,o),
(519,40,o),
(515,25,cs),
(512,10,o),
(502,0,o),
(487,0,cs),
(190,0,ls),
(143,0,o),
(125,23,o),
(135,70,cs),
(260,660,ls),
(270,707,o),
(298,730,o),
(345,730,cs),
(642,730,ls),
(657,730,o),
(663,720,o),
(660,705,cs),
(657,690,o),
(647,680,o),
(632,680,cs)
);
},
{
closed = 1;
nodes = (
(245,-205,o),
(220,-175,o),
(225,-150,qs),
(230,-125,o),
(269,-95,o),
(295,-95,qs),
(321,-95,o),
(346,-125,o),
(341,-150,qs),
(336,-175,o),
(297,-205,o),
(271,-205,qs)
);
},
{
closed = 1;
nodes = (
(348,810,o),
(346,819,o),
(365,836,cs),
(462,927,ls),
(478,942,o),
(497,950,o),
(517,950,cs),
(537,950,o),
(552,942,o),
(562,927,cs),
(622,835,ls),
(632,818,o),
(626,810,o),
(604,810,cs),
(593,810,o),
(585,814,o),
(580,822,cs),
(526,897,ls),
(515,912,o),
(503,912,o),
(486,897,cs),
(402,823,ls),
(392,815,o),
(382,810,o),
(371,810,cs)
);
}
);
width = 600;
}
);
unicode = 7878;
},
{
glyphname = Ecircumflexgrave;
layers = (
{
layerId = "BA60169A-A75E-4ACC-B9C7-976B0FD777BA";
shapes = (
{
closed = 1;
nodes = (
(398,600,ls),
(369,600,o),
(355,588,o),
(349,560,cs),
(330,470,ls),
(325,448,o),
(332,440,o),
(354,440,cs),
(527,440,ls),
(569,440,o),
(588,417,o),
(579,375,cs),
(570,333,o),
(540,308,o),
(498,308,cs),
(325,308,ls),
(305,308,o),
(293,298,o),
(289,278,cs),
(266,170,ls),
(260,143,o),
(271,130,o),
(298,130,cs),
(493,130,ls),
(537,130,o),
(553,109,o),
(544,65,cs),
(534,21,o),
(509,0,o),
(465,0,cs),
(180,0,ls),
(113,0,o),
(87,33,o),
(101,100,cs),
(214,630,ls),
(228,697,o),
(268,730,o),
(335,730,cs),
(620,730,ls),
(664,730,o),
(681,709,o),
(671,665,cs),
(662,621,o),
(637,600,o),
(593,600,cs)
);
},
{
closed = 1;
nodes = (
(667,905,o),
(644,916,o),
(627,937,cs),
(615,952,ls),
(579,998,o),
(594,1020,o),
(659,1020,cs),
(691,1020,o),
(715,1008,o),
(732,984,cs),
(740,971,ls),
(772,926,o),
(757,905,o),
(697,905,cs)
);
},
{
closed = 1;
nodes = (
(296,780,o),
(291,801,o),
(343,845,cs),
(371,870,ls),
(411,904,o),
(454,920,o),
(501,920,cs),
(548,920,o),
(583,904,o),
(609,870,cs),
(627,845,ls),
(659,801,o),
(646,780,o),
(585,780,cs),
(555,780,o),
(531,790,o),
(515,812,cs),
(513,814,ls),
(494,838,o),
(472,838,o),
(443,814,cs),
(441,812,ls),
(415,790,o),
(387,780,o),
(357,780,cs)
);
}
);
width = 600;
},
{
layerId = "61B1B659-4F4A-4AEF-9EF6-2030D7AB6825";
shapes = (
{
closed = 1;
nodes = (
(366,640,ls),
(339,640,o),
(323,627,o),
(318,600,cs),
(286,452,ls),
(282,435,o),
(289,427,o),
(306,427,cs),
(536,427,ls),
(563,427,o),
(577,409,o),
(571,382,cs),
(565,355,o),
(544,337,o),
(517,337,cs),
(287,337,ls),
(270,337,o),
(260,329,o),
(256,312,cs),
(218,130,ls),
(212,103,o),
(222,90,o),
(249,90,cs),
(498,90,ls),
(525,90,o),
(535,72,o),
(530,45,cs),
(524,18,o),
(506,0,o),
(479,0,cs),
(180,0,ls),
(126,0,o),
(106,26,o),
(117,80,cs),
(238,650,ls),
(250,704,o),
(281,730,o),
(335,730,cs),
(634,730,ls),
(661,730,o),
(671,712,o),
(666,685,cs),
(660,658,o),
(642,640,o),
(615,640,cs)
);
},
{
closed = 1;
nodes = (
(657,900,o),
(641,907,o),
(629,922,cs),
(589,973,ls),
(564,1005,o),
(574,1020,o),
(619,1020,cs),
(641,1020,o),
(658,1012,o),
(670,996,cs),
(707,946,ls),
(730,915,o),
(720,900,o),
(678,900,cs)
);
},
{
closed = 1;
nodes = (
(318,780,o),
(314,796,o),
(352,827,cs),
(428,890,ls),
(452,910,o),
(478,920,o),
(506,920,cs),
(534,920,o),
(555,910,o),
(571,890,cs),
(620,828,ls),
(645,796,o),
(635,780,o),
(590,780,cs),
(567,780,o),
(550,788,o),
(537,804,cs),
(515,830,ls),
(500,849,o),
(480,849,o),
(457,830,cs),
(424,803,ls),
(405,788,o),
(384,780,o),
(362,780,cs)
);
}
);
width = 600;
},
{
layerId = "F8E4993A-289F-423E-A261-7F0C3E35DC2E";
shapes = (
{
closed = 1;
nodes = (
(350,680,ls),
(327,680,o),
(312,668,o),
(307,645,cs),
(261,426,ls),
(258,413,o),
(263,406,o),
(276,406,cs),
(539,406,ls),
(554,406,o),
(559,396,o),
(556,381,cs),
(553,366,o),
(544,356,o),
(529,356,cs),
(266,356,ls),
(253,356,o),
(244,349,o),
(241,336,cs),
(188,85,ls),
(183,62,o),
(193,50,o),
(216,50,cs),
(498,50,ls),
(513,50,o),
(519,40,o),
(515,25,cs),
(512,10,o),
(502,0,o),
(487,0,cs),
(190,0,ls),
(143,0,o),
(125,23,o),
(135,70,cs),
(260,660,ls),
(270,707,o),
(298,730,o),
(345,730,cs),
(642,730,ls),
(657,730,o),
(663,720,o),
(660,705,cs),
(657,690,o),
(647,680,o),
(632,680,cs)
);
},
{
closed = 1;
nodes = (
(656,895,o),
(648,899,o),
(642,907,cs),
(580,991,ls),
(566,1010,o),
(571,1020,o),
(598,1020,cs),
(611,1020,o),
(621,1015,o),
(628,1005,cs),
(684,920,ls),
(695,903,o),
(689,895,o),
(667,895,cs)
);
},
{
closed = 1;
nodes = (
(342,780,o),
(340,789,o),
(358,806,cs),
(456,897,ls),
(472,912,o),
(491,920,o),
(511,920,cs),
(531,920,o),
(546,912,o),
(556,897,cs),
(615,805,ls),
(626,788,o),
(620,780,o),
(598,780,cs),
(587,780,o),
(579,784,o),
(573,792,cs),
(519,867,ls),
(509,882,o),
(497,882,o),
(479,867,cs),
(396,793,ls),
(386,785,o),
(376,780,o),
(365,780,cs)
);
}
);
width = 600;
}
);
unicode = 7872;
},
{
glyphname = Ecircumflexhookabove;
layers = (
{
layerId = "BA60169A-A75E-4ACC-B9C7-976B0FD777BA";
shapes = (
{
closed = 1;
nodes = (
(398,600,ls),
(369,600,o),
(355,588,o),
(349,560,cs),
(330,470,ls),
(325,448,o),
(332,440,o),
(354,440,cs),
(527,440,ls),
(569,440,o),
(588,417,o),
(579,375,cs),
(570,333,o),
(540,308,o),
(498,308,cs),
(325,308,ls),
(305,308,o),
(293,298,o),
(289,278,cs),
(266,170,ls),
(260,143,o),
(271,130,o),
(298,130,cs),
(493,130,ls),
(537,130,o),
(553,109,o),
(544,65,cs),
(534,21,o),
(509,0,o),
(465,0,cs),
(180,0,ls),
(113,0,o),
(87,33,o),
(101,100,cs),
(214,630,ls),
(228,697,o),
(268,730,o),
(335,730,cs),
(620,730,ls),
(664,730,o),
(681,709,o),
(671,665,cs),
(662,621,o),
(637,600,o),
(593,600,cs)
);
},
{
closed = 1;
nodes = (
(655,870,o),
(642,881,o),
(670,905,cs),
(672,906,ls),
(685,917,o),
(687,927,qs),
(691,944,o),
(666,944,qs),
(634,944,ls),
(609,944,o),
(598,957,o),
(604,982,cs),
(609,1007,o),
(625,1020,o),
(650,1020,cs),
(707,1020,ls),
(755,1020,o),
(804,978,o),
(795,938,qs),
(792,924,o),
(782,910,qs),
(778,904,ls),
(754,870,o),
(711,870,o),
(678,870,cs)
);
},
{
closed = 1;
nodes = (
(296,780,o),
(291,801,o),
(343,845,cs),
(371,870,ls),
(411,904,o),
(454,920,o),
(501,920,cs),
(548,920,o),
(583,904,o),
(609,870,cs),
(627,845,ls),
(659,801,o),
(646,780,o),
(585,780,cs),
(555,780,o),
(531,790,o),
(515,812,cs),
(513,814,ls),
(494,838,o),
(472,838,o),
(443,814,cs),
(441,812,ls),
(415,790,o),
(387,780,o),
(357,780,cs)
);
}
);
width = 600;
},
{
layerId = "61B1B659-4F4A-4AEF-9EF6-2030D7AB6825";
shapes = (
{
closed = 1;
nodes = (
(366,640,ls),
(339,640,o),
(323,627,o),
(318,600,cs),
(286,452,ls),
(282,435,o),
(289,427,o),
(306,427,cs),
(536,427,ls),
(563,427,o),
(577,409,o),
(571,382,cs),
(565,355,o),
(544,337,o),
(517,337,cs),
(287,337,ls),
(270,337,o),
(260,329,o),
(256,312,cs),
(218,130,ls),
(212,103,o),
(222,90,o),
(249,90,cs),
(498,90,ls),
(525,90,o),
(535,72,o),
(530,45,cs),
(524,18,o),
(506,0,o),
(479,0,cs),
(180,0,ls),
(126,0,o),
(106,26,o),
(117,80,cs),
(238,650,ls),
(250,704,o),
(281,730,o),
(335,730,cs),
(634,730,ls),
(661,730,o),
(671,712,o),
(666,685,cs),
(660,658,o),
(642,640,o),
(615,640,cs)
);
},
{
closed = 1;
nodes = (
(640,880,o),
(628,889,o),
(651,907,cs),
(675,927,ls),
(685,935,o),
(687,946,qs),
(691,962,o),
(676,962,qs),
(639,962,ls),
(620,962,o),
(612,972,o),
(616,991,cs),
(620,1010,o),
(632,1020,o),
(651,1020,cs),
(707,1020,ls),
(739,1020,o),
(770,986,o),
(764,958,qs),
(757,928,o),
(738,914,qs),
(729,907,ls),
(705,890,o),
(682,880,o),
(656,880,cs)
);
},
{
closed = 1;
nodes = (
(318,780,o),
(314,796,o),
(352,827,cs),
(428,890,ls),
(452,910,o),
(478,920,o),
(506,920,cs),
(534,920,o),
(555,910,o),
(571,890,cs),
(620,828,ls),
(645,796,o),
(635,780,o),
(590,780,cs),
(567,780,o),
(550,788,o),
(537,804,cs),
(515,830,ls),
(500,849,o),
(480,849,o),
(457,830,cs),
(424,803,ls),
(405,788,o),
(384,780,o),
(362,780,cs)
);
}
);
width = 600;
},
{
layerId = "F8E4993A-289F-423E-A261-7F0C3E35DC2E";
shapes = (
{
closed = 1;
nodes = (
(350,680,ls),
(327,680,o),
(312,668,o),
(307,645,cs),
(261,426,ls),
(258,413,o),
(263,406,o),
(276,406,cs),
(539,406,ls),
(554,406,o),
(559,396,o),
(556,381,cs),
(553,366,o),
(544,356,o),
(529,356,cs),
(266,356,ls),
(253,356,o),
(244,349,o),
(241,336,cs),
(188,85,ls),
(183,62,o),
(193,50,o),
(216,50,cs),
(498,50,ls),
(513,50,o),
(519,40,o),
(515,25,cs),
(512,10,o),
(502,0,o),
(487,0,cs),
(190,0,ls),
(143,0,o),
(125,23,o),
(135,70,cs),
(260,660,ls),
(270,707,o),
(298,730,o),
(345,730,cs),
(642,730,ls),
(657,730,o),
(663,720,o),
(660,705,cs),
(657,690,o),
(647,680,o),
(632,680,cs)
);
},
{
closed = 1;
nodes = (
(650,880,o),
(643,885,o),
(656,897,cs),
(694,933,ls),
(717,954,o),
(719,966,qs),
(723,985,o),
(697,985,qs),
(641,985,ls),
(629,985,o),
(625,991,o),
(627,1003,cs),
(630,1015,o),
(636,1020,o),
(648,1020,cs),
(702,1020,ls),
(734,1020,o),
(764,994,o),
(759,971,qs),
(754,946,o),
(722,915,qs),
(702,897,ls),
(689,885,o),
(675,880,o),
(660,880,cs)
);
},
{
closed = 1;
nodes = (
(342,780,o),
(340,789,o),
(358,806,cs),
(456,897,ls),
(472,912,o),
(491,920,o),
(511,920,cs),
(531,920,o),
(546,912,o),
(556,897,cs),
(615,805,ls),
(626,788,o),
(620,780,o),
(598,780,cs),
(587,780,o),
(579,784,o),
(573,792,cs),
(519,867,ls),
(509,882,o),
(497,882,o),
(479,867,cs),
(396,793,ls),
(386,785,o),
(376,780,o),
(365,780,cs)
);
}
);
width = 600;
}
);
unicode = 7874;
},
{
glyphname = Ecircumflextilde;
layers = (
{
layerId = "BA60169A-A75E-4ACC-B9C7-976B0FD777BA";
shapes = (
{
closed = 1;
nodes = (
(398,600,ls),
(369,600,o),
(355,588,o),
(349,560,cs),
(330,470,ls),
(325,448,o),
(332,440,o),
(354,440,cs),
(527,440,ls),
(569,440,o),
(588,417,o),
(579,375,cs),
(570,333,o),
(540,308,o),
(498,308,cs),
(325,308,ls),
(305,308,o),
(293,298,o),
(289,278,cs),
(266,170,ls),
(260,143,o),
(271,130,o),
(298,130,cs),
(493,130,ls),
(537,130,o),
(553,109,o),
(544,65,cs),
(534,21,o),
(509,0,o),
(465,0,cs),
(180,0,ls),
(113,0,o),
(87,33,o),
(101,100,cs),
(214,630,ls),
(228,697,o),
(268,730,o),
(335,730,cs),
(620,730,ls),
(664,730,o),
(681,709,o),
(671,665,cs),
(662,621,o),
(637,600,o),
(593,600,cs)
);
},
{
closed = 1;
nodes = (
(333,780,ls),
(288,780,o),
(284,796,o),
(321,829,cs),
(321,829,ls),
(362,866,o),
(408,884,o),
(457,884,cs),
(533,884,ls),
(580,884,o),
(614,867,o),
(639,832,cs),
(639,832,ls),
(663,797,o),
(653,780,o),
(606,780,cs),
(590,780,ls),
(557,780,o),
(531,792,o),
(514,817,cs),
(513,818,ls),
(495,843,o),
(473,843,o),
(445,818,cs),
(440,813,ls),
(414,791,o),
(387,780,o),
(357,780,cs)
);
},
{
closed = 1;
nodes = (
(335,915,o),
(319,938,o),
(340,968,cs),
(350,982,o),
(363,993,qs),
(396,1020,o),
(442,1020,qs),
(470,1020,o),
(511,1009,o),
(542,996,o),
(569,985,o),
(584,985,qs),
(590,985,o),
(596,987,qs),
(615,993,o),
(626,1015,o),
(647,1015,cs),
(686,1015,o),
(701,992,o),
(681,962,cs),
(671,948,o),
(657,937,qs),
(624,910,o),
(578,910,qs),
(550,910,o),
(510,921,o),
(479,934,o),
(451,945,o),
(436,945,qs),
(430,945,o),
(424,943,qs),
(407,935,o),
(392,915,o),
(374,915,cs)
);
}
);
width = 600;
},
{
layerId = "61B1B659-4F4A-4AEF-9EF6-2030D7AB6825";
shapes = (
{
closed = 1;
nodes = (
(366,640,ls),
(339,640,o),
(323,627,o),
(318,600,cs),
(286,452,ls),
(282,435,o),
(289,427,o),
(306,427,cs),
(536,427,ls),
(563,427,o),
(577,409,o),
(571,382,cs),
(565,355,o),
(544,337,o),
(517,337,cs),
(287,337,ls),
(270,337,o),
(260,329,o),
(256,312,cs),
(218,130,ls),
(212,103,o),
(222,90,o),
(249,90,cs),
(498,90,ls),
(525,90,o),
(535,72,o),
(530,45,cs),
(524,18,o),
(506,0,o),
(479,0,cs),
(180,0,ls),
(126,0,o),
(106,26,o),
(117,80,cs),
(238,650,ls),
(250,704,o),
(281,730,o),
(335,730,cs),
(634,730,ls),
(661,730,o),
(671,712,o),
(666,685,cs),
(660,658,o),
(642,640,o),
(615,640,cs)
);
},
{
closed = 1;
nodes = (
(318,780,o),
(315,795,o),
(353,825,cs),
(380,846,ls),
(417,876,o),
(456,890,o),
(499,890,cs),
(499,890,ls),
(542,890,o),
(575,876,o),
(600,846,cs),
(617,826,ls),
(643,795,o),
(634,780,o),
(589,780,cs),
(589,780,ls),
(566,780,o),
(549,788,o),
(535,803,cs),
(515,826,ls),
(498,844,o),
(479,844,o),
(456,826,cs),
(425,802,ls),
(405,787,o),
(384,780,o),
(362,780,cs)
);
},
{
closed = 1;
nodes = (
(354,930,o),
(343,947,o),
(357,970,cs),
(367,986,o),
(381,998,qs),
(410,1021,o),
(452,1020,qs),
(484,1020,o),
(522,1006,o),
(547,987,o),
(570,973,o),
(587,973,qs),
(602,973,o),
(611,982,qs),
(622,992,o),
(634,1010,o),
(650,1010,cs),
(679,1010,o),
(690,993,o),
(676,970,cs),
(667,955,o),
(651,943,qs),
(623,921,o),
(583,920,qs),
(552,920,o),
(513,934,o),
(487,953,o),
(463,967,o),
(446,967,qs),
(431,968,o),
(422,959,qs),
(409,946,o),
(403,930,o),
(383,930,cs)
);
}
);
width = 600;
},
{
layerId = "F8E4993A-289F-423E-A261-7F0C3E35DC2E";
shapes = (
{
closed = 1;
nodes = (
(350,680,ls),
(327,680,o),
(312,668,o),
(307,645,cs),
(261,426,ls),
(258,413,o),
(263,406,o),
(276,406,cs),
(539,406,ls),
(554,406,o),
(559,396,o),
(556,381,cs),
(553,366,o),
(544,356,o),
(529,356,cs),
(266,356,ls),
(253,356,o),
(244,349,o),
(241,336,cs),
(188,85,ls),
(183,62,o),
(193,50,o),
(216,50,cs),
(498,50,ls),
(513,50,o),
(519,40,o),
(515,25,cs),
(512,10,o),
(502,0,o),
(487,0,cs),
(190,0,ls),
(143,0,o),
(125,23,o),
(135,70,cs),
(260,660,ls),
(270,707,o),
(298,730,o),
(345,730,cs),
(642,730,ls),
(657,730,o),
(663,720,o),
(660,705,cs),
(657,690,o),
(647,680,o),
(632,680,cs)
);
},
{
closed = 1;
nodes = (
(342,780,o),
(341,788,o),
(360,804,cs),
(451,880,ls),
(468,894,o),
(487,901,o),
(507,901,cs),
(507,901,ls),
(527,901,o),
(542,894,o),
(553,880,cs),
(613,803,ls),
(624,787,o),
(620,780,o),
(598,780,cs),
(598,780,ls),
(587,780,o),
(579,784,o),
(572,791,cs),
(518,852,ls),
(506,866,o),
(492,866,o),
(474,852,cs),
(396,792,ls),
(387,784,o),
(376,780,o),
(365,780,cs)
);
},
{
closed = 1;
nodes = (
(369,930,o),
(363,937,o),
(367,950,cs),
(375,981,o),
(399,1000,qs),
(424,1020,o),
(462,1020,qs),
(490,1020,o),
(525,1001,o),
(550,977,o),
(575,958,o),
(594,958,qs),
(624,958,o),
(635,990,qs),
(640,1003,o),
(647,1010,o),
(660,1010,cs),
(674,1010,o),
(679,1003,o),
(675,990,cs),
(668,960,o),
(645,941,qs),
(621,921,o),
(586,920,qs),
(558,920,o),
(523,939,o),
(498,963,o),
(473,982,o),
(454,982,qs),
(418,982,o),
(407,950,qs),
(402,937,o),
(396,930,o),
(383,930,cs)
);
}
);
width = 600;
}
);
unicode = 7876;
},
{
glyphname = Edieresis;
layers = (
{
layerId = "BA60169A-A75E-4ACC-B9C7-976B0FD777BA";
shapes = (
{
closed = 1;
nodes = (
(398,600,ls),
(369,600,o),
(355,588,o),
(349,560,cs),
(330,470,ls),
(325,448,o),
(332,440,o),
(354,440,cs),
(527,440,ls),
(569,440,o),
(588,417,o),
(579,375,cs),
(570,333,o),
(540,308,o),
(498,308,cs),
(325,308,ls),
(305,308,o),
(293,298,o),
(289,278,cs),
(266,170,ls),
(260,143,o),
(271,130,o),
(298,130,cs),
(493,130,ls),
(537,130,o),
(553,109,o),
(544,65,cs),
(534,21,o),
(509,0,o),
(465,0,cs),
(180,0,ls),
(113,0,o),
(87,33,o),
(101,100,cs),
(214,630,ls),
(228,697,o),
(268,730,o),
(335,730,cs),
(620,730,ls),
(664,730,o),
(681,709,o),
(671,665,cs),
(662,621,o),
(637,600,o),
(593,600,cs)
);
},
{
closed = 1;
nodes = (
(561,802,o),
(526,844,o),
(534,880,qs),
(542,916,o),
(594,958,o),
(631,958,qs),
(668,958,o),
(702,916,o),
(694,880,qs),
(686,844,o),
(635,802,o),
(598,802,qs)
);
},
{
closed = 1;
nodes = (
(317,802,o),
(282,844,o),
(290,880,qs),
(298,916,o),
(350,958,o),
(387,958,qs),
(424,958,o),
(458,916,o),
(450,880,qs),
(442,844,o),
(391,802,o),
(354,802,qs)
);
}
);
width = 600;
},
{
layerId = "61B1B659-4F4A-4AEF-9EF6-2030D7AB6825";
shapes = (
{
closed = 1;
nodes = (
(366,640,ls),
(339,640,o),
(323,627,o),
(318,600,cs),
(286,452,ls),
(282,435,o),
(289,427,o),
(306,427,cs),
(536,427,ls),
(563,427,o),
(577,409,o),
(571,382,cs),
(565,355,o),
(544,337,o),
(517,337,cs),
(287,337,ls),
(270,337,o),
(260,329,o),
(256,312,cs),
(218,130,ls),
(212,103,o),
(222,90,o),
(249,90,cs),
(498,90,ls),
(525,90,o),
(535,72,o),
(530,45,cs),
(524,18,o),
(506,0,o),
(479,0,cs),
(180,0,ls),
(126,0,o),
(106,26,o),
(117,80,cs),
(238,650,ls),
(250,704,o),
(281,730,o),
(335,730,cs),
(634,730,ls),
(661,730,o),
(671,712,o),
(666,685,cs),
(660,658,o),
(642,640,o),
(615,640,cs)
);
},
{
closed = 1;
nodes = (
(566,817,o),
(538,851,o),
(544,880,qs),
(550,910,o),
(593,945,o),
(622,945,qs),
(651,945,o),
(678,910,o),
(672,880,qs),
(666,851,o),
(624,817,o),
(595,817,qs)
);
},
{
closed = 1;
nodes = (
(344,817,o),
(316,851,o),
(322,880,qs),
(328,910,o),
(371,945,o),
(400,945,qs),
(429,945,o),
(456,910,o),
(450,880,qs),
(444,851,o),
(402,817,o),
(373,817,qs)
);
}
);
width = 600;
},
{
layerId = "F8E4993A-289F-423E-A261-7F0C3E35DC2E";
shapes = (
{
closed = 1;
nodes = (
(350,680,ls),
(327,680,o),
(312,668,o),
(307,645,cs),
(261,426,ls),
(258,413,o),
(263,406,o),
(276,406,cs),
(539,406,ls),
(554,406,o),
(559,396,o),
(556,381,cs),
(553,366,o),
(544,356,o),
(529,356,cs),
(266,356,ls),
(253,356,o),
(244,349,o),
(241,336,cs),
(188,85,ls),
(183,62,o),
(193,50,o),
(216,50,cs),
(498,50,ls),
(513,50,o),
(519,40,o),
(515,25,cs),
(512,10,o),
(502,0,o),
(487,0,cs),
(190,0,ls),
(143,0,o),
(125,23,o),
(135,70,cs),
(260,660,ls),
(270,707,o),
(298,730,o),
(345,730,cs),
(642,730,ls),
(657,730,o),
(663,720,o),
(660,705,cs),
(657,690,o),
(647,680,o),
(632,680,cs)
);
},
{
closed = 1;
nodes = (
(576,825,o),
(554,855,o),
(559,880,qs),
(564,905,o),
(600,935,o),
(624,935,qs),
(647,935,o),
(668,905,o),
(663,880,qs),
(658,855,o),
(623,825,o),
(600,825,qs)
);
},
{
closed = 1;
nodes = (
(362,825,o),
(340,855,o),
(345,880,qs),
(350,905,o),
(386,935,o),
(409,935,qs),
(432,935,o),
(454,905,o),
(449,880,qs),
(444,855,o),
(408,825,o),
(385,825,qs)
);
}
);
width = 600;
}
);
unicode = 203;
},
{
glyphname = Edotaccent;
layers = (
{
layerId = "BA60169A-A75E-4ACC-B9C7-976B0FD777BA";
shapes = (
{
closed = 1;
nodes = (
(398,600,ls),
(369,600,o),
(355,588,o),
(349,560,cs),
(330,470,ls),
(325,448,o),
(332,440,o),
(354,440,cs),
(527,440,ls),
(569,440,o),
(588,417,o),
(579,375,cs),
(570,333,o),
(540,308,o),
(498,308,cs),
(325,308,ls),
(305,308,o),
(293,298,o),
(289,278,cs),
(266,170,ls),
(260,143,o),
(271,130,o),
(298,130,cs),
(493,130,ls),
(537,130,o),
(553,109,o),
(544,65,cs),
(534,21,o),
(509,0,o),
(465,0,cs),
(180,0,ls),
(113,0,o),
(87,33,o),
(101,100,cs),
(214,630,ls),
(228,697,o),
(268,730,o),
(335,730,cs),
(620,730,ls),
(664,730,o),
(681,709,o),
(671,665,cs),
(662,621,o),
(637,600,o),
(593,600,cs)
);
},
{
closed = 1;
nodes = (
(435,802,o),
(394,844,o),
(402,880,qs),
(410,916,o),
(468,958,o),
(509,958,qs),
(550,958,o),
(590,916,o),
(582,880,qs),
(574,844,o),
(517,802,o),
(476,802,qs)
);
}
);
width = 600;
},
{
layerId = "61B1B659-4F4A-4AEF-9EF6-2030D7AB6825";
shapes = (
{
closed = 1;
nodes = (
(366,640,ls),
(339,640,o),
(323,627,o),
(318,600,cs),
(286,452,ls),
(282,435,o),
(289,427,o),
(306,427,cs),
(536,427,ls),
(563,427,o),
(577,409,o),
(571,382,cs),
(565,355,o),
(544,337,o),
(517,337,cs),
(287,337,ls),
(270,337,o),
(260,329,o),
(256,312,cs),
(218,130,ls),
(212,103,o),
(222,90,o),
(249,90,cs),
(498,90,ls),
(525,90,o),
(535,72,o),
(530,45,cs),
(524,18,o),
(506,0,o),
(479,0,cs),
(180,0,ls),
(126,0,o),
(106,26,o),
(117,80,cs),
(238,650,ls),
(250,704,o),
(281,730,o),
(335,730,cs),
(634,730,ls),
(661,730,o),
(671,712,o),
(666,685,cs),
(660,658,o),
(642,640,o),
(615,640,cs)
);
},
{
closed = 1;
nodes = (
(450,816,o),
(420,851,o),
(426,880,qs),
(432,909,o),
(478,944,o),
(511,944,qs),
(544,944,o),
(574,909,o),
(568,880,qs),
(562,851,o),
(516,816,o),
(483,816,qs)
);
}
);
width = 600;
},
{
layerId = "F8E4993A-289F-423E-A261-7F0C3E35DC2E";
shapes = (
{
closed = 1;
nodes = (
(350,680,ls),
(327,680,o),
(312,668,o),
(307,645,cs),
(261,426,ls),
(258,413,o),
(263,406,o),
(276,406,cs),
(539,406,ls),
(554,406,o),
(559,396,o),
(556,381,cs),
(553,366,o),
(544,356,o),
(529,356,cs),
(266,356,ls),
(253,356,o),
(244,349,o),
(241,336,cs),
(188,85,ls),
(183,62,o),
(193,50,o),
(216,50,cs),
(498,50,ls),
(513,50,o),
(519,40,o),
(515,25,cs),
(512,10,o),
(502,0,o),
(487,0,cs),
(190,0,ls),
(143,0,o),
(125,23,o),
(135,70,cs),
(260,660,ls),
(270,707,o),
(298,730,o),
(345,730,cs),
(642,730,ls),
(657,730,o),
(663,720,o),
(660,705,cs),
(657,690,o),
(647,680,o),
(632,680,cs)
);
},
{
closed = 1;
nodes = (
(464,825,o),
(439,855,o),
(444,880,qs),
(449,905,o),
(488,935,o),
(514,935,qs),
(540,935,o),
(565,905,o),
(560,880,qs),
(555,855,o),
(516,825,o),
(490,825,qs)
);
}
);
width = 600;
}
);
unicode = 278;
},
{
glyphname = Edotbelow;
layers = (
{
layerId = "BA60169A-A75E-4ACC-B9C7-976B0FD777BA";
shapes = (
{
closed = 1;
nodes = (
(398,600,ls),
(369,600,o),
(355,588,o),
(349,560,cs),
(330,470,ls),
(325,448,o),
(332,440,o),
(354,440,cs),
(527,440,ls),
(569,440,o),
(588,417,o),
(579,375,cs),
(570,333,o),
(540,308,o),
(498,308,cs),
(325,308,ls),
(305,308,o),
(293,298,o),
(289,278,cs),
(266,170,ls),
(260,143,o),
(271,130,o),
(298,130,cs),
(493,130,ls),
(537,130,o),
(553,109,o),
(544,65,cs),
(534,21,o),
(509,0,o),
(465,0,cs),
(180,0,ls),
(113,0,o),
(87,33,o),
(101,100,cs),
(214,630,ls),
(228,697,o),
(268,730,o),
(335,730,cs),
(620,730,ls),
(664,730,o),
(681,709,o),
(671,665,cs),
(662,621,o),
(637,600,o),
(593,600,cs)
);
},
{
closed = 1;
nodes = (
(214,-233,o),
(174,-191,o),
(182,-155,qs),
(190,-119,o),
(248,-77,o),
(289,-77,qs),
(330,-77,o),
(370,-119,o),
(362,-155,qs),
(354,-191,o),
(296,-233,o),
(255,-233,qs)
);
}
);
width = 600;
},
{
layerId = "61B1B659-4F4A-4AEF-9EF6-2030D7AB6825";
shapes = (
{
closed = 1;
nodes = (
(366,640,ls),
(339,640,o),
(323,627,o),
(318,600,cs),
(286,452,ls),
(282,435,o),
(289,427,o),
(306,427,cs),
(536,427,ls),
(563,427,o),
(577,409,o),
(571,382,cs),
(565,355,o),
(544,337,o),
(517,337,cs),
(287,337,ls),
(270,337,o),
(260,329,o),
(256,312,cs),
(218,130,ls),
(212,103,o),
(222,90,o),
(249,90,cs),
(498,90,ls),
(525,90,o),
(535,72,o),
(530,45,cs),
(524,18,o),
(506,0,o),
(479,0,cs),
(180,0,ls),
(126,0,o),
(106,26,o),
(117,80,cs),
(238,650,ls),
(250,704,o),
(281,730,o),
(335,730,cs),
(634,730,ls),
(661,730,o),
(671,712,o),
(666,685,cs),
(660,658,o),
(642,640,o),
(615,640,cs)
);
},
{
closed = 1;
nodes = (
(232,-213,o),
(201,-179,o),
(207,-150,qs),
(213,-120,o),
(259,-85,o),
(292,-85,qs),
(325,-85,o),
(355,-120,o),
(349,-150,qs),
(343,-179,o),
(298,-213,o),
(265,-213,qs)
);
}
);
width = 600;
},
{
layerId = "F8E4993A-289F-423E-A261-7F0C3E35DC2E";
shapes = (
{
closed = 1;
nodes = (
(350,680,ls),
(327,680,o),
(312,668,o),
(307,645,cs),
(261,426,ls),
(258,413,o),
(263,406,o),
(276,406,cs),
(539,406,ls),
(554,406,o),
(559,396,o),
(556,381,cs),
(553,366,o),
(544,356,o),
(529,356,cs),
(266,356,ls),
(253,356,o),
(244,349,o),
(241,336,cs),
(188,85,ls),
(183,62,o),
(193,50,o),
(216,50,cs),
(498,50,ls),
(513,50,o),
(519,40,o),
(515,25,cs),
(512,10,o),
(502,0,o),
(487,0,cs),
(190,0,ls),
(143,0,o),
(125,23,o),
(135,70,cs),
(260,660,ls),
(270,707,o),
(298,730,o),
(345,730,cs),
(642,730,ls),
(657,730,o),
(663,720,o),
(660,705,cs),
(657,690,o),
(647,680,o),
(632,680,cs)
);
},
{
closed = 1;
nodes = (
(245,-205,o),
(220,-175,o),
(225,-150,qs),
(230,-125,o),
(269,-95,o),
(295,-95,qs),
(321,-95,o),
(346,-125,o),
(341,-150,qs),
(336,-175,o),
(297,-205,o),
(271,-205,qs)
);
}
);
width = 600;
}
);
unicode = 7864;
},
{
glyphname = Egrave;
layers = (
{
layerId = "BA60169A-A75E-4ACC-B9C7-976B0FD777BA";
shapes = (
{
closed = 1;
nodes = (
(398,600,ls),
(369,600,o),
(355,588,o),
(349,560,cs),
(330,470,ls),
(325,448,o),
(332,440,o),
(354,440,cs),
(527,440,ls),
(569,440,o),
(588,417,o),
(579,375,cs),
(570,333,o),
(540,308,o),
(498,308,cs),
(325,308,ls),
(305,308,o),
(293,298,o),
(289,278,cs),
(266,170,ls),
(260,143,o),
(271,130,o),
(298,130,cs),
(493,130,ls),
(537,130,o),
(553,109,o),
(544,65,cs),
(534,21,o),
(509,0,o),
(465,0,cs),
(180,0,ls),
(113,0,o),
(87,33,o),
(101,100,cs),
(214,630,ls),
(228,697,o),
(268,730,o),
(335,730,cs),
(620,730,ls),
(664,730,o),
(681,709,o),
(671,665,cs),
(662,621,o),
(637,600,o),
(593,600,cs)
);
},
{
closed = 1;
nodes = (
(432,810,o),
(406,820,o),
(390,848,cs),
(375,873,ls),
(340,929,o),
(366,950,o),
(432,950,cs),
(476,950,o),
(499,937,o),
(513,910,cs),
(524,890,ls),
(553,836,o),
(534,810,o),
(467,810,cs)
);
}
);
width = 600;
},
{
layerId = "61B1B659-4F4A-4AEF-9EF6-2030D7AB6825";
shapes = (
{
closed = 1;
nodes = (
(366,640,ls),
(339,640,o),
(323,627,o),
(318,600,cs),
(286,452,ls),
(282,435,o),
(289,427,o),
(306,427,cs),
(536,427,ls),
(563,427,o),
(577,409,o),
(571,382,cs),
(565,355,o),
(544,337,o),
(517,337,cs),
(287,337,ls),
(270,337,o),
(260,329,o),
(256,312,cs),
(218,130,ls),
(212,103,o),
(222,90,o),
(249,90,cs),
(498,90,ls),
(525,90,o),
(535,72,o),
(530,45,cs),
(524,18,o),
(506,0,o),
(479,0,cs),
(180,0,ls),
(126,0,o),
(106,26,o),
(117,80,cs),
(238,650,ls),
(250,704,o),
(281,730,o),
(335,730,cs),
(634,730,ls),
(661,730,o),
(671,712,o),
(666,685,cs),
(660,658,o),
(642,640,o),
(615,640,cs)
);
},
{
closed = 1;
nodes = (
(460,810,o),
(444,818,o),
(434,834,cs),
(395,898,ls),
(374,933,o),
(386,950,o),
(431,950,cs),
(453,950,o),
(469,942,o),
(479,924,cs),
(516,860,ls),
(535,827,o),
(523,810,o),
(481,810,cs)
);
}
);
width = 600;
},
{
layerId = "F8E4993A-289F-423E-A261-7F0C3E35DC2E";
shapes = (
{
closed = 1;
nodes = (
(350,680,ls),
(327,680,o),
(312,668,o),
(307,645,cs),
(261,426,ls),
(258,413,o),
(263,406,o),
(276,406,cs),
(539,406,ls),
(554,406,o),
(559,396,o),
(556,381,cs),
(553,366,o),
(544,356,o),
(529,356,cs),
(266,356,ls),
(253,356,o),
(244,349,o),
(241,336,cs),
(188,85,ls),
(183,62,o),
(193,50,o),
(216,50,cs),
(498,50,ls),
(513,50,o),
(519,40,o),
(515,25,cs),
(512,10,o),
(502,0,o),
(487,0,cs),
(190,0,ls),
(143,0,o),
(125,23,o),
(135,70,cs),
(260,660,ls),
(270,707,o),
(298,730,o),
(345,730,cs),
(642,730,ls),
(657,730,o),
(663,720,o),
(660,705,cs),
(657,690,o),
(647,680,o),
(632,680,cs)
);
},
{
closed = 1;
nodes = (
(476,810,o),
(468,814,o),
(462,824,cs),
(406,918,ls),
(394,939,o),
(402,950,o),
(429,950,cs),
(443,950,o),
(452,945,o),
(458,934,cs),
(509,839,ls),
(520,819,o),
(513,810,o),
(488,810,cs)
);
}
);
width = 600;
}
);
unicode = 200;
},
{
glyphname = Ehookabove;
layers = (
{
layerId = "BA60169A-A75E-4ACC-B9C7-976B0FD777BA";
shapes = (
{
closed = 1;
nodes = (
(398,600,ls),
(369,600,o),
(355,588,o),
(349,560,cs),
(330,470,ls),
(325,448,o),
(332,440,o),
(354,440,cs),
(527,440,ls),
(569,440,o),
(588,417,o),
(579,375,cs),
(570,333,o),
(540,308,o),
(498,308,cs),
(325,308,ls),
(305,308,o),
(293,298,o),
(289,278,cs),
(266,170,ls),
(260,143,o),
(271,130,o),
(298,130,cs),
(493,130,ls),
(537,130,o),
(553,109,o),
(544,65,cs),
(534,21,o),
(509,0,o),
(465,0,cs),
(180,0,ls),
(113,0,o),
(87,33,o),
(101,100,cs),
(214,630,ls),
(228,697,o),
(268,730,o),
(335,730,cs),
(620,730,ls),
(664,730,o),
(681,709,o),
(671,665,cs),
(662,621,o),
(637,600,o),
(593,600,cs)
);
},
{
closed = 1;
nodes = (
(451,796,o),
(434,817,o),
(476,852,cs),
(479,854,ls),
(499,871,o),
(500,883,qs),
(501,900,o),
(476,900,qs),
(438,900,ls),
(410,900,o),
(400,915,o),
(405,943,cs),
(411,971,o),
(428,985,o),
(456,985,cs),
(519,985,ls),
(566,985,o),
(613,938,o),
(606,899,qs),
(599,864,o),
(571,838,qs),
(556,824,ls),
(536,805,o),
(515,796,o),
(490,796,cs)
);
}
);
width = 600;
},
{
layerId = "61B1B659-4F4A-4AEF-9EF6-2030D7AB6825";
shapes = (
{
closed = 1;
nodes = (
(366,640,ls),
(339,640,o),
(323,627,o),
(318,600,cs),
(286,452,ls),
(282,435,o),
(289,427,o),
(306,427,cs),
(536,427,ls),
(563,427,o),
(577,409,o),
(571,382,cs),
(565,355,o),
(544,337,o),
(517,337,cs),
(287,337,ls),
(270,337,o),
(260,329,o),
(256,312,cs),
(218,130,ls),
(212,103,o),
(222,90,o),
(249,90,cs),
(498,90,ls),
(525,90,o),
(535,72,o),
(530,45,cs),
(524,18,o),
(506,0,o),
(479,0,cs),
(180,0,ls),
(126,0,o),
(106,26,o),
(117,80,cs),
(238,650,ls),
(250,704,o),
(281,730,o),
(335,730,cs),
(634,730,ls),
(661,730,o),
(671,712,o),
(666,685,cs),
(660,658,o),
(642,640,o),
(615,640,cs)
);
},
{
closed = 1;
nodes = (
(467,800,o),
(452,814,o),
(482,844,cs),
(501,863,l),
(520,882,o),
(522,895,qs),
(527,915,o),
(495,915,qs),
(447,915,ls),
(425,915,o),
(417,926,o),
(422,948,cs),
(426,970,o),
(438,980,o),
(460,980,cs),
(533,980,ls),
(571,980,o),
(610,941,o),
(603,906,qs),
(596,874,o),
(574,852,qs),
(545,822,ls),
(530,807,o),
(514,800,o),
(495,800,cs)
);
}
);
width = 600;
},
{
layerId = "F8E4993A-289F-423E-A261-7F0C3E35DC2E";
shapes = (
{
closed = 1;
nodes = (
(350,680,ls),
(327,680,o),
(312,668,o),
(307,645,cs),
(261,426,ls),
(258,413,o),
(263,406,o),
(276,406,cs),
(539,406,ls),
(554,406,o),
(559,396,o),
(556,381,cs),
(553,366,o),
(544,356,o),
(529,356,cs),
(266,356,ls),
(253,356,o),
(244,349,o),
(241,336,cs),
(188,85,ls),
(183,62,o),
(193,50,o),
(216,50,cs),
(498,50,ls),
(513,50,o),
(519,40,o),
(515,25,cs),
(512,10,o),
(502,0,o),
(487,0,cs),
(190,0,ls),
(143,0,o),
(125,23,o),
(135,70,cs),
(260,660,ls),
(270,707,o),
(298,730,o),
(345,730,cs),
(642,730,ls),
(657,730,o),
(663,720,o),
(660,705,cs),
(657,690,o),
(647,680,o),
(632,680,cs)
);
},
{
closed = 1;
nodes = (
(475,800,o),
(467,808,o),
(484,826,cs),
(531,876,ls),
(553,900,o),
(556,912,qs),
(562,940,o),
(525,940,qs),
(454,940,ls),
(444,940,o),
(438,946,o),
(441,958,cs),
(443,970,o),
(451,975,o),
(461,975,cs),
(532,975,ls),
(567,975,o),
(602,943,o),
(597,916,qs),
(591,890,o),
(566,863,qs),
(520,813,ls),
(512,804,o),
(503,800,o),
(492,800,cs)
);
}
);
width = 600;
}
);
unicode = 7866;
},
{
glyphname = Emacron;
layers = (
{
layerId = "BA60169A-A75E-4ACC-B9C7-976B0FD777BA";
shapes = (
{
closed = 1;
nodes = (
(398,600,ls),
(369,600,o),
(355,588,o),
(349,560,cs),
(330,470,ls),
(325,448,o),
(332,440,o),
(354,440,cs),
(527,440,ls),
(569,440,o),
(588,417,o),
(579,375,cs),
(570,333,o),
(540,308,o),
(498,308,cs),
(325,308,ls),
(305,308,o),
(293,298,o),
(289,278,cs),
(266,170,ls),
(260,143,o),
(271,130,o),
(298,130,cs),
(493,130,ls),
(537,130,o),
(553,109,o),
(544,65,cs),
(534,21,o),
(509,0,o),
(465,0,cs),
(180,0,ls),
(113,0,o),
(87,33,o),
(101,100,cs),
(214,630,ls),
(228,697,o),
(268,730,o),
(335,730,cs),
(620,730,ls),
(664,730,o),
(681,709,o),
(671,665,cs),
(662,621,o),
(637,600,o),
(593,600,cs)
);
},
{
closed = 1;
nodes = (
(354,820,ls),
(317,820,o),
(303,838,o),
(311,875,cs),
(319,912,o),
(341,930,o),
(378,930,cs),
(628,930,ls),
(665,930,o),
(679,912,o),
(671,875,cs),
(663,838,o),
(641,820,o),
(604,820,cs)
);
}
);
width = 600;
},
{
layerId = "61B1B659-4F4A-4AEF-9EF6-2030D7AB6825";
shapes = (
{
closed = 1;
nodes = (
(366,640,ls),
(339,640,o),
(323,627,o),
(318,600,cs),
(286,452,ls),
(282,435,o),
(289,427,o),
(306,427,cs),
(536,427,ls),
(563,427,o),
(577,409,o),
(571,382,cs),
(565,355,o),
(544,337,o),
(517,337,cs),
(287,337,ls),
(270,337,o),
(260,329,o),
(256,312,cs),
(218,130,ls),
(212,103,o),
(222,90,o),
(249,90,cs),
(498,90,ls),
(525,90,o),
(535,72,o),
(530,45,cs),
(524,18,o),
(506,0,o),
(479,0,cs),
(180,0,ls),
(126,0,o),
(106,26,o),
(117,80,cs),
(238,650,ls),
(250,704,o),
(281,730,o),
(335,730,cs),
(634,730,ls),
(661,730,o),
(671,712,o),
(666,685,cs),
(660,658,o),
(642,640,o),
(615,640,cs)
);
},
{
closed = 1;
nodes = (
(366,840,ls),
(341,840,o),
(331,853,o),
(337,878,cs),
(342,903,o),
(357,915,o),
(382,915,cs),
(627,915,ls),
(652,915,o),
(662,903,o),
(657,878,cs),
(651,853,o),
(636,840,o),
(611,840,cs)
);
}
);
width = 600;
},
{
layerId = "F8E4993A-289F-423E-A261-7F0C3E35DC2E";
shapes = (
{
closed = 1;
nodes = (
(350,680,ls),
(327,680,o),
(312,668,o),
(307,645,cs),
(261,426,ls),
(258,413,o),
(263,406,o),
(276,406,cs),
(539,406,ls),
(554,406,o),
(559,396,o),
(556,381,cs),
(553,366,o),
(544,356,o),
(529,356,cs),
(266,356,ls),
(253,356,o),
(244,349,o),
(241,336,cs),
(188,85,ls),
(183,62,o),
(193,50,o),
(216,50,cs),
(498,50,ls),
(513,50,o),
(519,40,o),
(515,25,cs),
(512,10,o),
(502,0,o),
(487,0,cs),
(190,0,ls),
(143,0,o),
(125,23,o),
(135,70,cs),
(260,660,ls),
(270,707,o),
(298,730,o),
(345,730,cs),
(642,730,ls),
(657,730,o),
(663,720,o),
(660,705,cs),
(657,690,o),
(647,680,o),
(632,680,cs)
);
},
{
closed = 1;
nodes = (
(378,854,ls),
(364,854,o),
(358,862,o),
(361,876,cs),
(364,890,o),
(373,897,o),
(387,897,cs),
(625,897,ls),
(639,897,o),
(644,890,o),
(641,876,cs),
(638,862,o),
(630,854,o),
(616,854,cs)
);
}
);
width = 600;
}
);
unicode = 274;
},
{
glyphname = Eogonek;
layers = (
{
layerId = "BA60169A-A75E-4ACC-B9C7-976B0FD777BA";
shapes = (
{
closed = 1;
nodes = (
(398,600,ls),
(369,600,o),
(355,588,o),
(349,560,cs),
(330,470,ls),
(325,448,o),
(332,440,o),
(354,440,cs),
(527,440,ls),
(569,440,o),
(588,417,o),
(579,375,cs),
(570,333,o),
(540,308,o),
(498,308,cs),
(325,308,ls),
(305,308,o),
(293,298,o),
(289,278,cs),
(266,170,ls),
(260,143,o),
(271,130,o),
(298,130,cs),
(493,130,ls),
(537,130,o),
(553,109,o),
(544,65,cs),
(534,21,o),
(509,0,o),
(465,0,cs),
(180,0,ls),
(113,0,o),
(87,33,o),
(101,100,cs),
(214,630,ls),
(228,697,o),
(268,730,o),
(335,730,cs),
(620,730,ls),
(664,730,o),
(681,709,o),
(671,665,cs),
(662,621,o),
(637,600,o),
(593,600,cs)
);
},
{
closed = 1;
nodes = (
(456,-120,ls),
(491,-120,o),
(505,-138,o),
(497,-173,cs),
(490,-208,o),
(468,-225,o),
(433,-225,cs),
(378,-225,ls),
(317,-225,o),
(260,-164,o),
(271,-115,qs),
(278,-80,o),
(353,-11,o),
(408,11,q),
(494,11,l),
(456,-18,ls),
(433,-36,o),
(404,-70,o),
(401,-83,qs),
(398,-98,o),
(417,-120,o),
(439,-120,qs)
);
}
);
width = 600;
},
{
layerId = "61B1B659-4F4A-4AEF-9EF6-2030D7AB6825";
shapes = (
{
closed = 1;
nodes = (
(366,640,ls),
(339,640,o),
(323,627,o),
(318,600,cs),
(286,452,ls),
(282,435,o),
(289,427,o),
(306,427,cs),
(536,427,ls),
(563,427,o),
(577,409,o),
(571,382,cs),
(565,355,o),
(544,337,o),
(517,337,cs),
(287,337,ls),
(270,337,o),
(260,329,o),
(256,312,cs),
(218,130,ls),
(212,103,o),
(222,90,o),
(249,90,cs),
(498,90,ls),
(525,90,o),
(535,72,o),
(530,45,cs),
(524,18,o),
(506,0,o),
(479,0,cs),
(180,0,ls),
(126,0,o),
(106,26,o),
(117,80,cs),
(238,650,ls),
(250,704,o),
(281,730,o),
(335,730,cs),
(634,730,ls),
(661,730,o),
(671,712,o),
(666,685,cs),
(660,658,o),
(642,640,o),
(615,640,cs)
);
},
{
closed = 1;
nodes = (
(465,-143,ls),
(485,-143,o),
(492,-153,o),
(488,-173,cs),
(484,-193,o),
(472,-203,o),
(452,-203,cs),
(404,-203,ls),
(349,-203,o),
(293,-150,o),
(302,-110,qs),
(308,-81,o),
(358,-23,o),
(412,10,q),
(487,10,l),
(474,1,ls),
(434,-27,o),
(395,-72,o),
(390,-93,qs),
(386,-115,o),
(410,-143,o),
(435,-143,qs)
);
}
);
width = 600;
},
{
layerId = "F8E4993A-289F-423E-A261-7F0C3E35DC2E";
shapes = (
{
closed = 1;
nodes = (
(350,680,ls),
(327,680,o),
(312,668,o),
(307,645,cs),
(261,426,ls),
(258,413,o),
(263,406,o),
(276,406,cs),
(539,406,ls),
(554,406,o),
(559,396,o),
(556,381,cs),
(553,366,o),
(544,356,o),
(529,356,cs),
(266,356,ls),
(253,356,o),
(244,349,o),
(241,336,cs),
(188,85,ls),
(183,62,o),
(193,50,o),
(216,50,cs),
(498,50,ls),
(513,50,o),
(519,40,o),
(515,25,cs),
(512,10,o),
(502,0,o),
(487,0,cs),
(190,0,ls),
(143,0,o),
(125,23,o),
(135,70,cs),
(260,660,ls),
(270,707,o),
(298,730,o),
(345,730,cs),
(642,730,ls),
(657,730,o),
(663,720,o),
(660,705,cs),
(657,690,o),
(647,680,o),
(632,680,cs)
);
},
{
closed = 1;
nodes = (
(461,-153,ls),
(475,-153,o),
(481,-160,o),
(478,-174,cs),
(475,-188,o),
(467,-195,o),
(453,-195,cs),
(401,-195,ls),
(360,-195,o),
(321,-152,o),
(329,-115,qs),
(335,-84,o),
(393,-18,o),
(437,10,q),
(474,10,l),
(461,0,l),
(427,-27,o),
(383,-82,o),
(378,-103,qs),
(373,-126,o),
(394,-153,o),
(418,-153,qs)
);
}
);
width = 600;
}
);
unicode = 280;
},
{
color = (153, 254, 255, 255);
glyphname = Eopen;
layers = (
{
layerId = "BA60169A-A75E-4ACC-B9C7-976B0FD777BA";
shapes = (
{
closed = 1;
nodes = (
(674,561,o),
(633,520,o),
(562,520,cs),
(535,520,o),
(523,531,o),
(512,568,cs),
(503,598,o),
(477,616,o),
(438,616,cs),
(386,616,o),
(338,583,o),
(326,529,cs),
(313,465,o),
(348,440,o),
(395,440,cs),
(423,440,ls),
(465,440,o),
(480,420,o),
(471,378,cs),
(462,336,o),
(438,316,o),
(396,316,cs),
(368,316,ls),
(313,316,o),
(257,288,o),
(242,217,cs),
(228,152,o),
(274,118,o),
(334,118,cs),
(373,118,o),
(417,132,o),
(444,163,cs),
(474,198,o),
(493,210,o),
(516,210,cs),
(587,210,o),
(611,168,o),
(571,114,cs),
(512,31,o),
(407,-10,o),
(307,-10,cs),
(175,-10,o),
(57,59,o),
(88,207,cs),
(106,291,o),
(173,368,o),
(261,386,c),
(190,399,o),
(164,469,o),
(179,541,cs),
(208,676,o),
(341,740,o),
(462,740,cs),
(560,740,o),
(639,696,o),
(660,616,cs)
);
}
);
width = 600;
},
{
anchors = (
{
name = m.uni0308;
position = "{455, 730}";
},
{
name = m.uni0325_2;
position = "{300, 0}";
}
);
layerId = "61B1B659-4F4A-4AEF-9EF6-2030D7AB6825";
shapes = (
{
closed = 1;
nodes = (
(649,553,o),
(623,530,o),
(581,530,cs),
(562,530,o),
(554,539,o),
(554,560,cs),
(555,622,o),
(513,660,o),
(445,660,cs),
(374,660,o),
(310,616,o),
(294,542,cs),
(274,448,o),
(339,420,o),
(397,420,cs),
(443,420,ls),
(470,420,o),
(481,407,o),
(475,380,cs),
(469,353,o),
(453,340,o),
(426,340,cs),
(380,340,ls),
(298,340,o),
(220,292,o),
(202,205,cs),
(183,118,o),
(241,70,o),
(323,70,cs),
(392,70,o),
(462,104,o),
(491,170,cs),
(501,191,o),
(512,200,o),
(531,200,cs),
(573,200,o),
(588,178,o),
(569,141,cs),
(520,43,o),
(414,-10,o),
(307,-10,cs),
(181,-10,o),
(79,61,o),
(108,199,cs),
(127,286,o),
(194,368,o),
(288,384,c),
(217,403,o),
(190,477,o),
(206,551,cs),
(232,674,o),
(348,740,o),
(462,740,cs),
(568,740,o),
(642,685,o),
(646,590,cs)
);
}
);
width = 600;
},
{
layerId = "F8E4993A-289F-423E-A261-7F0C3E35DC2E";
shapes = (
{
closed = 1;
nodes = (
(634,541,o),
(621,530,o),
(598,530,cs),
(587,530,o),
(582,536,o),
(583,547,cs),
(595,635,o),
(546,696,o),
(454,696,cs),
(366,696,o),
(289,639,o),
(270,549,cs),
(250,458,o),
(302,401,o),
(391,401,cs),
(438,401,ls),
(453,401,o),
(459,394,o),
(456,379,cs),
(452,364,o),
(443,356,o),
(428,356,cs),
(386,356,ls),
(289,356,o),
(197,299,o),
(175,196,cs),
(153,93,o),
(220,35,o),
(317,35,cs),
(409,35,o),
(496,86,o),
(524,179,cs),
(527,190,o),
(535,196,o),
(546,196,cs),
(569,196,o),
(577,184,o),
(570,163,cs),
(530,52,o),
(422,-10,o),
(308,-10,cs),
(185,-10,o),
(96,63,o),
(124,194,cs),
(143,282,o),
(214,360,o),
(305,381,c),
(231,397,o),
(203,471,o),
(219,547,cs),
(244,665,o),
(348,740,o),
(463,740,cs),
(578,740,o),
(644,670,o),
(636,563,cs)
);
}
);
width = 600;
}
);
unicode = 400;
},
{
glyphname = Etilde;
layers = (
{
layerId = "BA60169A-A75E-4ACC-B9C7-976B0FD777BA";
shapes = (
{
closed = 1;
nodes = (
(398,600,ls),
(369,600,o),
(355,588,o),
(349,560,cs),
(330,470,ls),
(325,448,o),
(332,440,o),
(354,440,cs),
(527,440,ls),
(569,440,o),
(588,417,o),
(579,375,cs),
(570,333,o),
(540,308,o),
(498,308,cs),
(325,308,ls),
(305,308,o),
(293,298,o),
(289,278,cs),
(266,170,ls),
(260,143,o),
(271,130,o),
(298,130,cs),
(493,130,ls),
(537,130,o),
(553,109,o),
(544,65,cs),
(534,21,o),
(509,0,o),
(465,0,cs),
(180,0,ls),
(113,0,o),
(87,33,o),
(101,100,cs),
(214,630,ls),
(228,697,o),
(268,730,o),
(335,730,cs),
(620,730,ls),
(664,730,o),
(681,709,o),
(671,665,cs),
(662,621,o),
(637,600,o),
(593,600,cs)
);
},
{
closed = 1;
nodes = (
(373,817,o),
(355,805,o),
(338,805,cs),
(309,805,o),
(298,819,o),
(305,847,cs),
(321,910,o),
(373,960,o),
(439,960,cs),
(525,960,o),
(519,900,o),
(561,900,cs),
(575,900,o),
(584,905,o),
(590,913,cs),
(612,943,o),
(628,955,o),
(645,955,cs),
(674,955,o),
(686,941,o),
(679,913,cs),
(663,850,o),
(612,800,o),
(545,800,cs),
(459,800,o),
(465,860,o),
(423,860,cs),
(410,860,o),
(401,855,o),
(395,847,cs)
);
}
);
width = 600;
},
{
layerId = "61B1B659-4F4A-4AEF-9EF6-2030D7AB6825";
shapes = (
{
closed = 1;
nodes = (
(366,640,ls),
(339,640,o),
(323,627,o),
(318,600,cs),
(286,452,ls),
(282,435,o),
(289,427,o),
(306,427,cs),
(536,427,ls),
(563,427,o),
(577,409,o),
(571,382,cs),
(565,355,o),
(544,337,o),
(517,337,cs),
(287,337,ls),
(270,337,o),
(260,329,o),
(256,312,cs),
(218,130,ls),
(212,103,o),
(222,90,o),
(249,90,cs),
(498,90,ls),
(525,90,o),
(535,72,o),
(530,45,cs),
(524,18,o),
(506,0,o),
(479,0,cs),
(180,0,ls),
(126,0,o),
(106,26,o),
(117,80,cs),
(238,650,ls),
(250,704,o),
(281,730,o),
(335,730,cs),
(634,730,ls),
(661,730,o),
(671,712,o),
(666,685,cs),
(660,658,o),
(642,640,o),
(615,640,cs)
);
},
{
closed = 1;
nodes = (
(389,829,o),
(377,820,o),
(356,820,cs),
(334,820,o),
(327,831,o),
(331,853,cs),
(344,908,o),
(384,945,o),
(441,945,cs),
(524,945,o),
(514,875,o),
(561,875,cs),
(584,875,o),
(593,891,o),
(598,908,cs),
(605,931,o),
(616,940,o),
(637,940,cs),
(659,940,o),
(668,929,o),
(663,907,cs),
(650,852,o),
(610,815,o),
(553,815,cs),
(470,815,o),
(480,885,o),
(433,885,cs),
(411,885,o),
(402,869,o),
(396,852,cs)
);
}
);
width = 600;
},
{
layerId = "F8E4993A-289F-423E-A261-7F0C3E35DC2E";
shapes = (
{
closed = 1;
nodes = (
(350,680,ls),
(327,680,o),
(312,668,o),
(307,645,cs),
(261,426,ls),
(258,413,o),
(263,406,o),
(276,406,cs),
(539,406,ls),
(554,406,o),
(559,396,o),
(556,381,cs),
(553,366,o),
(544,356,o),
(529,356,cs),
(266,356,ls),
(253,356,o),
(244,349,o),
(241,336,cs),
(188,85,ls),
(183,62,o),
(193,50,o),
(216,50,cs),
(498,50,ls),
(513,50,o),
(519,40,o),
(515,25,cs),
(512,10,o),
(502,0,o),
(487,0,cs),
(190,0,ls),
(143,0,o),
(125,23,o),
(135,70,cs),
(260,660,ls),
(270,707,o),
(298,730,o),
(345,730,cs),
(642,730,ls),
(657,730,o),
(663,720,o),
(660,705,cs),
(657,690,o),
(647,680,o),
(632,680,cs)
);
},
{
closed = 1;
nodes = (
(371,827,o),
(362,820,o),
(349,820,cs),
(336,820,o),
(331,827,o),
(334,840,cs),
(348,907,o),
(377,945,o),
(446,945,cs),
(525,945,o),
(519,854,o),
(572,854,cs),
(613,854,o),
(624,888,o),
(631,920,cs),
(633,933,o),
(642,940,o),
(655,940,cs),
(668,940,o),
(673,933,o),
(671,920,cs),
(657,857,o),
(631,815,o),
(563,815,cs),
(484,815,o),
(491,906,o),
(438,906,cs),
(393,906,o),
(381,873,o),
(374,840,cs)
);
}
);
width = 600;
}
);
unicode = 7868;
},
